Muli-600.ufo
<glyph name="exclam" format="1">
  <advance width="630.8"/>
  <unicode hex="0021"/>
  <outline>
    <contour>
      <point x="185.63" y="0.0" type="line"/>
      <point x="444.48" y="0.0" type="line"/>
      <point x="444.48" y="244.64" type="line"/>
      <point x="185.63" y="244.64" type="line"/>
    </contour>
    <contour>
      <point x="252.84" y="381.28" type="line"/>
      <point x="378.89" y="381.28" type="line"/>
      <point x="442.69" y="1456.0" type="line"/>
      <point x="189.04" y="1456.0" type="line"/>
    </contour>
  </outline>
</glyph>
<glyph name="quotedbl" format="1">
  <advance width="753.33"/>
  <unicode hex="0022"/>
  <outline>
    <contour>
      <point x="155.73" y="959.98" type="line"/>
      <point x="108.36" y="1456.0" type="line"/>
      <point x="322.19" y="1456.0" type="line"/>
      <point x="282.45" y="959.98" type="line"/>
    </contour>
    <contour>
      <point x="479.19" y="959.98" type="line"/>
      <point x="431.82" y="1456.0" type="line"/>
      <point x="645.65" y="1456.0" type="line"/>
      <point x="605.91" y="959.98" type="line"/>
    </contour>
  </outline>
</glyph>
<glyph name="dollar" format="1">
  <advance width="1214.82"/>
  <unicode hex="0024"/>
  <outline>
    <contour>
      <point x="577.73" y="-207.41" type="line"/>
      <point x="577.73" y="1629.64" type="line"/>
      <point x="682.64" y="1629.64" type="line"/>
      <point x="682.64" y="-207.41" type="line"/>
    </contour>
    <component base="S"/>
  </outline>
</glyph>
<glyph name="percent" format="1">
  <advance width="1819.86"/>
  <unicode hex="0025"/>
  <outline>
    <contour>
      <point x="447.45" y="865.37" type="curve" smooth="yes"/>
      <point x="568.0" y="865.37"/>
      <point x="618.69" y="952.54"/>
      <point x="618.69" y="1103.93" type="curve" smooth="yes"/>
      <point x="618.69" y="1250.6"/>
      <point x="572.36" y="1341.84"/>
      <point x="447.78" y="1341.84" type="curve" smooth="yes"/>
      <point x="321.88" y="1341.84"/>
      <point x="275.55" y="1246.97"/>
      <point x="275.55" y="1102.61" type="curve" smooth="yes"/>
      <point x="275.55" y="949.24"/>
      <point x="326.9" y="865.37"/>
    </contour>
    <contour>
      <point x="446.13" y="727.58" type="curve" smooth="yes"/>
      <point x="222.46" y="727.58"/>
      <point x="93.36" y="875.52"/>
      <point x="93.36" y="1102.28" type="curve" smooth="yes"/>
      <point x="93.36" y="1323.03"/>
      <point x="224.76" y="1479.3"/>
      <point x="448.11" y="1479.3" type="curve" smooth="yes"/>
      <point x="673.11" y="1479.3"/>
      <point x="800.55" y="1326.0"/>
      <point x="800.55" y="1103.6" type="curve" smooth="yes"/>
      <point x="800.55" y="877.5"/>
      <point x="668.48" y="727.58"/>
    </contour>
    <contour>
      <point x="364.81" y="0.0" type="line"/>
      <point x="1288.19" y="1456.0" type="line"/>
      <point x="1466.69" y="1456.0" type="line"/>
      <point x="542.31" y="0.0" type="line"/>
    </contour>
    <contour>
      <point x="1373.07" y="114.81" type="curve" smooth="yes"/>
      <point x="1493.95" y="114.81"/>
      <point x="1544.31" y="202.31"/>
      <point x="1544.31" y="353.7" type="curve" smooth="yes"/>
      <point x="1544.31" y="500.37"/>
      <point x="1498.64" y="591.28"/>
      <point x="1373.73" y="591.28" type="curve" smooth="yes"/>
      <point x="1247.17" y="591.28"/>
      <point x="1201.5" y="495.75"/>
      <point x="1201.5" y="351.39" type="curve" smooth="yes"/>
      <point x="1201.5" y="198.68"/>
      <point x="1252.52" y="114.81"/>
    </contour>
    <contour>
      <point x="1372.08" y="-22.98" type="curve" smooth="yes"/>
      <point x="1149.07" y="-22.98"/>
      <point x="1019.31" y="138.69"/>
      <point x="1019.31" y="351.72" type="curve" smooth="yes"/>
      <point x="1019.31" y="559.4"/>
      <point x="1150.71" y="729.07"/>
      <point x="1374.06" y="729.07" type="curve" smooth="yes"/>
      <point x="1599.06" y="729.07"/>
      <point x="1726.5" y="562.04"/>
      <point x="1726.5" y="353.37" type="curve" smooth="yes"/>
      <point x="1726.5" y="140.34"/>
      <point x="1594.43" y="-22.98"/>
    </contour>
  </outline>
</glyph>
<glyph name="ampersand" format="1">
  <advance width="1558.19"/>
  <unicode hex="0026"/>
  <outline>
    <contour>
      <point x="628.33" y="-25.35" type="curve" smooth="yes"/>
      <point x="341.97" y="-25.35"/>
      <point x="122.6" y="138.01"/>
      <point x="122.6" y="415.71" type="curve" smooth="yes"/>
      <point x="122.6" y="633.35"/>
      <point x="275.22" y="749.38"/>
      <point x="444.88" y="850.04" type="curve"/>
      <point x="350.88" y="954.04"/>
      <point x="286.25" y="1041.97"/>
      <point x="286.25" y="1168.91" type="curve" smooth="yes"/>
      <point x="286.25" y="1370.29"/>
      <point x="442.3" y="1473.31"/>
      <point x="631.01" y="1473.31" type="curve" smooth="yes"/>
      <point x="810.4" y="1473.31"/>
      <point x="989.78" y="1379.29"/>
      <point x="989.78" y="1175.58" type="curve" smooth="yes"/>
      <point x="989.78" y="1022.61"/>
      <point x="865.85" y="899.31"/>
      <point x="726.55" y="812.64" type="curve"/>
      <point x="1059.32" y="448.56" type="line"/>
      <point x="1135.96" y="581.92"/>
      <point x="1175.88" y="752.15"/>
      <point x="1175.88" y="920.49" type="curve"/>
      <point x="1371.1" y="883.41" type="line"/>
      <point x="1368.46" y="678.4"/>
      <point x="1302.46" y="455.05"/>
      <point x="1196.14" y="297.71" type="curve"/>
      <point x="1274.99" y="215.84"/>
      <point x="1388.63" y="144.76"/>
      <point x="1509.47" y="111.77" type="curve"/>
      <point x="1369.66" y="-13.7" type="line"/>
      <point x="1242.93" y="6.98"/>
      <point x="1152.53" y="84.37"/>
      <point x="1074.33" y="165.93" type="curve"/>
      <point x="967.33" y="58.65"/>
      <point x="820.63" y="-25.35"/>
    </contour>
    <contour>
      <point x="628.01" y="158.52" type="curve" smooth="yes"/>
      <point x="771.24" y="158.52"/>
      <point x="866.55" y="219.83"/>
      <point x="949.17" y="301.75" type="curve"/>
      <point x="563.69" y="715.88" type="line"/>
      <point x="442.1" y="647.25"/>
      <point x="337.15" y="568.27"/>
      <point x="337.15" y="417.04" type="curve" smooth="yes"/>
      <point x="337.15" y="266.79"/>
      <point x="457.45" y="158.52"/>
    </contour>
    <contour>
      <point x="602.4" y="937.15" type="curve"/>
      <point x="697.0" y="996.12"/>
      <point x="784.87" y="1071.68"/>
      <point x="784.87" y="1165.58" type="curve" smooth="yes"/>
      <point x="784.87" y="1264.16"/>
      <point x="706.95" y="1300.11"/>
      <point x="639.69" y="1300.11" type="curve" smooth="yes"/>
      <point x="557.1" y="1300.11"/>
      <point x="492.84" y="1256.83"/>
      <point x="492.84" y="1164.24" type="curve" smooth="yes"/>
      <point x="492.84" y="1079.99"/>
      <point x="532.8" y="1007.09"/>
    </contour>
  </outline>
</glyph>
<glyph name="quotesingle" format="1">
  <advance width="498.57"/>
  <unicode hex="0027"/>
  <outline>
    <contour>
      <point x="187.22" y="933.18" type="line"/>
      <point x="147.89" y="1456.0" type="line"/>
      <point x="372.44" y="1456.0" type="line"/>
      <point x="340.74" y="933.18" type="line"/>
    </contour>
  </outline>
</glyph>
<glyph name="parenleft" format="1">
  <advance width="660.09"/>
  <unicode hex="0028"/>
  <outline>
    <contour>
      <point x="409.17" y="-171.93" type="line"/>
      <point x="250.72" y="69.21"/>
      <point x="128.82" y="369.11"/>
      <point x="128.82" y="664.07" type="curve" smooth="yes"/>
      <point x="128.82" y="973.41"/>
      <point x="236.41" y="1252.69"/>
      <point x="402.72" y="1516.0" type="curve"/>
      <point x="610.4" y="1516.0" type="line"/>
      <point x="439.95" y="1247.24"/>
      <point x="342.19" y="951.13"/>
      <point x="342.19" y="663.62" type="curve" smooth="yes"/>
      <point x="342.19" y="396.73"/>
      <point x="451.4" y="83.9"/>
      <point x="610.71" y="-171.93" type="curve"/>
    </contour>
  </outline>
</glyph>
<glyph name="parenright" format="1">
  <advance width="658.87"/>
  <unicode hex="0029"/>
  <outline>
    <contour>
      <point x="250.23" y="1496.0" type="line"/>
      <point x="408.58" y="1254.98"/>
      <point x="530.28" y="955.28"/>
      <point x="530.28" y="660.0" type="curve" smooth="yes"/>
      <point x="530.28" y="350.38"/>
      <point x="422.91" y="71.34"/>
      <point x="256.58" y="-191.99" type="curve"/>
      <point x="50.34" y="-191.99" type="line"/>
      <point x="220.69" y="76.69"/>
      <point x="318.37" y="372.42"/>
      <point x="318.37" y="660.35" type="curve" smooth="yes"/>
      <point x="318.37" y="927.62"/>
      <point x="209.34" y="1240.31"/>
      <point x="50.01" y="1496.0" type="curve"/>
    </contour>
  </outline>
</glyph>
<glyph name="asterisk" format="1">
  <advance width="1085.46"/>
  <unicode hex="002A"/>
  <outline>
    <contour>
      <point x="697.5" y="681.18" type="line"/>
      <point x="532.67" y="937.76" type="line"/>
      <point x="369.39" y="683.66" type="line"/>
      <point x="210.2" y="789.71" type="line"/>
      <point x="415.14" y="1025.19" type="line"/>
      <point x="140.93" y="1122.68" type="line"/>
      <point x="210.08" y="1281.66" type="line"/>
      <point x="458.8" y="1159.21" type="line"/>
      <point x="428.8" y="1456.62" type="line"/>
      <point x="628.17" y="1456.62" type="line"/>
      <point x="604.37" y="1159.21" type="line"/>
      <point x="845.34" y="1281.66" type="line"/>
      <point x="920.38" y="1122.68" type="line"/>
      <point x="649.27" y="1025.19" type="line"/>
      <point x="857.31" y="785.92" type="line"/>
    </contour>
  </outline>
</glyph>
<glyph name="plus" format="1">
  <advance width="1230.58"/>
  <unicode hex="002B"/>
  <outline>
    <contour>
      <point x="515.34" y="91.9" type="line"/>
      <point x="515.34" y="497.48" type="line"/>
      <point x="133.36" y="497.48" type="line"/>
      <point x="133.36" y="675.34" type="line"/>
      <point x="516.68" y="675.34" type="line"/>
      <point x="516.68" y="1073.65" type="line"/>
      <point x="713.91" y="1073.65" type="line"/>
      <point x="713.91" y="675.34" type="line"/>
      <point x="1097.22" y="675.34" type="line"/>
      <point x="1097.22" y="497.48" type="line"/>
      <point x="713.57" y="497.48" type="line"/>
      <point x="713.57" y="91.9" type="line"/>
    </contour>
  </outline>
</glyph>
<glyph name="comma" format="1">
  <advance width="512.22"/>
  <unicode hex="002C"/>
  <outline>
    <contour>
      <point x="63.26" y="-245.28" type="line"/>
      <point x="172.94" y="241.84" type="line"/>
      <point x="412.2" y="241.84" type="line"/>
      <point x="239.82" y="-245.28" type="line"/>
    </contour>
  </outline>
</glyph>
<glyph name="period" format="1">
  <advance width="541.65"/>
  <unicode hex="002E"/>
  <outline>
    <contour>
      <point x="133.85" y="0.0" type="line"/>
      <point x="133.85" y="244.84" type="line"/>
      <point x="392.39" y="244.84" type="line"/>
      <point x="392.39" y="0.0" type="line"/>
    </contour>
  </outline>
</glyph>
<glyph name="slash" format="1">
  <advance width="911.81"/>
  <unicode hex="002F"/>
  <outline>
    <contour>
      <point x="72.7" y="-133.03" type="line"/>
      <point x="658.04" y="1456.0" type="line"/>
      <point x="855.19" y="1456.0" type="line"/>
      <point x="265.18" y="-133.03" type="line"/>
    </contour>
  </outline>
</glyph>
<glyph name="zero" format="1">
  <advance width="1249.74"/>
  <unicode hex="0030"/>
  <outline>
    <contour>
      <point x="630.8" y="165.4" type="curve" smooth="yes"/>
      <point x="833.72" y="165.4"/>
      <point x="897.89" y="407.77"/>
      <point x="897.89" y="735.21" type="curve" smooth="yes"/>
      <point x="897.89" y="1037.53"/>
      <point x="833.79" y="1293.98"/>
      <point x="630.49" y="1293.98" type="curve" smooth="yes"/>
      <point x="420.81" y="1293.98"/>
      <point x="349.99" y="1038.22"/>
      <point x="349.99" y="735.52" type="curve" smooth="yes"/>
      <point x="349.99" y="408.08"/>
      <point x="421.12" y="165.4"/>
    </contour>
    <contour>
      <point x="627.11" y="-23.0" type="curve" smooth="yes"/>
      <point x="297.42" y="-23.0"/>
      <point x="124.0" y="286.55"/>
      <point x="124.0" y="736.21" type="curve" smooth="yes"/>
      <point x="124.0" y="1202.21"/>
      <point x="296.04" y="1483.0"/>
      <point x="629.11" y="1483.0" type="curve" smooth="yes"/>
      <point x="961.49" y="1483.0"/>
      <point x="1125.74" y="1192.24"/>
      <point x="1125.74" y="735.9" type="curve" smooth="yes"/>
      <point x="1125.74" y="287.31"/>
      <point x="962.18" y="-23.0"/>
    </contour>
  </outline>
</glyph>
<glyph name="one" format="1">
  <advance width="1248.82"/>
  <unicode hex="0031"/>
  <outline>
    <contour>
      <point x="287.04" y="0.0" type="line"/>
      <point x="287.04" y="175.83" type="line"/>
      <point x="555.32" y="175.83" type="line"/>
      <point x="555.32" y="1226.81" type="line"/>
      <point x="478.38" y="1186.53"/>
      <point x="369.71" y="1142.85"/>
      <point x="261.01" y="1104.86" type="curve"/>
      <point x="261.01" y="1303.07" type="line"/>
      <point x="365.69" y="1338.4"/>
      <point x="502.6" y="1404.35"/>
      <point x="591.6" y="1456.0" type="curve"/>
      <point x="774.22" y="1456.0" type="line"/>
      <point x="774.22" y="173.82" type="line"/>
      <point x="1037.21" y="173.82" type="line"/>
      <point x="1037.21" y="0.0" type="line"/>
    </contour>
  </outline>
</glyph>
<glyph name="two" format="1">
  <advance width="1249.74"/>
  <unicode hex="0032"/>
  <outline>
    <contour>
      <point x="206.4" y="0.0" type="line"/>
      <point x="206.4" y="168.39" type="line"/>
      <point x="440.65" y="372.6"/>
      <point x="856.62" y="716.55"/>
      <point x="822.71" y="1062.73" type="curve" smooth="yes"/>
      <point x="807.67" y="1226.2"/>
      <point x="711.64" y="1294.6"/>
      <point x="582.55" y="1294.6" type="curve" smooth="yes"/>
      <point x="392.01" y="1294.6"/>
      <point x="219.1" y="1166.91"/>
      <point x="218.41" y="1166.91" type="curve"/>
      <point x="146.47" y="1339.55" type="line"/>
      <point x="146.47" y="1339.55"/>
      <point x="328.03" y="1481.62"/>
      <point x="598.52" y="1481.62" type="curve" smooth="yes"/>
      <point x="842.49" y="1481.62"/>
      <point x="1020.04" y="1333.14"/>
      <point x="1036.63" y="1062.24" type="curve" smooth="yes"/>
      <point x="1065.19" y="608.57"/>
      <point x="556.03" y="261.62"/>
      <point x="470.47" y="182.26" type="curve"/>
      <point x="1032.04" y="182.26" type="line"/>
      <point x="1032.04" y="0.0" type="line"/>
    </contour>
  </outline>
</glyph>
<glyph name="three" format="1">
  <advance width="1249.74"/>
  <unicode hex="0033"/>
  <outline>
    <contour>
      <point x="598.81" y="-23.0" type="curve" smooth="yes"/>
      <point x="337.71" y="-23.0"/>
      <point x="178.92" y="85.77"/>
      <point x="173.34" y="89.18" type="curve"/>
      <point x="237.66" y="258.23" type="line"/>
      <point x="256.88" y="248.0"/>
      <point x="405.65" y="165.4"/>
      <point x="573.28" y="165.4" type="curve" smooth="yes"/>
      <point x="757.52" y="165.4"/>
      <point x="872.61" y="260.43"/>
      <point x="872.61" y="415.73" type="curve" smooth="yes"/>
      <point x="872.61" y="596.58"/>
      <point x="716.09" y="672.61"/>
      <point x="475.47" y="668.47" type="curve" smooth="yes"/>
      <point x="407.68" y="667.09" type="line"/>
      <point x="405.68" y="853.18" type="line"/>
      <point x="472.89" y="853.18" type="line" smooth="yes"/>
      <point x="715.83" y="853.18"/>
      <point x="834.78" y="911.42"/>
      <point x="834.78" y="1102.1" type="curve" smooth="yes"/>
      <point x="834.78" y="1232.64"/>
      <point x="699.13" y="1295.53"/>
      <point x="564.21" y="1295.53" type="curve" smooth="yes"/>
      <point x="398.83" y="1295.53"/>
      <point x="298.56" y="1221.01"/>
      <point x="240.05" y="1175.92" type="curve"/>
      <point x="140.73" y="1328.39" type="line"/>
      <point x="263.95" y="1432.21"/>
      <point x="382.86" y="1483.0"/>
      <point x="592.18" y="1483.0" type="curve" smooth="yes"/>
      <point x="825.46" y="1483.0"/>
      <point x="1053.91" y="1357.14"/>
      <point x="1053.91" y="1106.48" type="curve" smooth="yes"/>
      <point x="1053.91" y="946.49"/>
      <point x="967.88" y="802.58"/>
      <point x="786.01" y="765.31" type="curve"/>
      <point x="978.84" y="728.07"/>
      <point x="1088.84" y="588.41"/>
      <point x="1088.84" y="407.9" type="curve" smooth="yes"/>
      <point x="1088.84" y="138.0"/>
      <point x="866.01" y="-23.0"/>
    </contour>
  </outline>
</glyph>
<glyph name="four" format="1">
  <advance width="1248.82"/>
  <unicode hex="0034"/>
  <outline>
    <contour>
      <point x="737.27" y="0.0" type="line"/>
      <point x="737.27" y="383.65" type="line"/>
      <point x="106.01" y="383.65" type="line"/>
      <point x="106.01" y="546.1" type="line"/>
      <point x="692.68" y="1456.0" type="line"/>
      <point x="953.49" y="1456.0" type="line"/>
      <point x="953.49" y="551.83" type="line"/>
      <point x="1176.2" y="551.83" type="line"/>
      <point x="1176.2" y="383.65" type="line"/>
      <point x="956.17" y="383.65" type="line"/>
      <point x="956.17" y="0.0" type="line"/>
    </contour>
    <contour>
      <point x="340.97" y="551.83" type="line"/>
      <point x="739.28" y="551.83" type="line"/>
      <point x="739.28" y="1206.25" type="line"/>
      <point x="647.46" y="1054.55" type="line"/>
    </contour>
  </outline>
</glyph>
<glyph name="five" format="1">
  <advance width="1249.74"/>
  <unicode hex="0035"/>
  <outline>
    <contour>
      <point x="615.35" y="-23.0" type="curve" smooth="yes"/>
      <point x="453.28" y="-23.0"/>
      <point x="286.07" y="33.18"/>
      <point x="163.55" y="160.46" type="curve"/>
      <point x="274.29" y="324.72" type="line"/>
      <point x="371.22" y="212.2"/>
      <point x="497.63" y="165.4"/>
      <point x="611.28" y="165.4" type="curve" smooth="yes"/>
      <point x="783.6" y="165.4"/>
      <point x="898.68" y="282.21"/>
      <point x="898.68" y="470.97" type="curve" smooth="yes"/>
      <point x="898.68" y="622.2"/>
      <point x="816.55" y="752.92"/>
      <point x="665.64" y="752.92" type="curve" smooth="yes"/>
      <point x="587.82" y="752.92"/>
      <point x="503.42" y="726.48"/>
      <point x="465.56" y="670.14" type="curve"/>
      <point x="252.29" y="690.15" type="line"/>
      <point x="252.29" y="1456.0" type="line"/>
      <point x="1047.92" y="1456.0" type="line"/>
      <point x="1047.92" y="1267.29" type="line"/>
      <point x="451.17" y="1267.29" type="line"/>
      <point x="438.55" y="851.84" type="line"/>
      <point x="498.1" y="921.74"/>
      <point x="598.96" y="947.77"/>
      <point x="697.86" y="947.77" type="curve" smooth="yes"/>
      <point x="945.39" y="947.77"/>
      <point x="1125.36" y="741.87"/>
      <point x="1125.36" y="467.28" type="curve" smooth="yes"/>
      <point x="1125.36" y="160.09"/>
      <point x="901.09" y="-23.0"/>
    </contour>
  </outline>
</glyph>
<glyph name="six" format="1">
  <advance width="1248.82"/>
  <unicode hex="0036"/>
  <outline>
    <contour>
      <point x="669.12" y="-23.0" type="curve" smooth="yes"/>
      <point x="314.76" y="-23.0"/>
      <point x="144.72" y="267.33"/>
      <point x="144.72" y="695.35" type="curve" smooth="yes"/>
      <point x="144.72" y="1127.01"/>
      <point x="338.78" y="1483.0"/>
      <point x="721.46" y="1483.0" type="curve" smooth="yes"/>
      <point x="868.14" y="1483.0"/>
      <point x="990.17" y="1437.69"/>
      <point x="1075.56" y="1360.95" type="curve"/>
      <point x="1002.16" y="1199.76" type="line"/>
      <point x="923.1" y="1262.14"/>
      <point x="829.11" y="1295.14"/>
      <point x="723.13" y="1295.14" type="curve" smooth="yes"/>
      <point x="517.74" y="1295.14"/>
      <point x="401.02" y="1095.76"/>
      <point x="377.98" y="846.59" type="curve" smooth="yes"/>
      <point x="375.64" y="825.24"/>
      <point x="374.97" y="802.22"/>
      <point x="374.3" y="779.87" type="curve"/>
      <point x="447.69" y="888.25"/>
      <point x="555.36" y="949.75"/>
      <point x="699.4" y="949.75" type="curve" smooth="yes"/>
      <point x="969.53" y="949.75"/>
      <point x="1155.85" y="763.73"/>
      <point x="1155.85" y="470.7" type="curve" smooth="yes"/>
      <point x="1155.85" y="189.68"/>
      <point x="969.48" y="-23.0"/>
    </contour>
    <contour>
      <point x="667.75" y="164.2" type="curve" smooth="yes"/>
      <point x="830.97" y="164.2"/>
      <point x="930.28" y="295.14"/>
      <point x="930.28" y="466.71" type="curve" smooth="yes"/>
      <point x="930.28" y="637.62"/>
      <point x="845.0" y="771.22"/>
      <point x="672.15" y="771.22" type="curve" smooth="yes"/>
      <point x="502.86" y="771.22"/>
      <point x="390.29" y="651.54"/>
      <point x="390.29" y="487.21" type="curve" smooth="yes"/>
      <point x="390.29" y="285.07"/>
      <point x="509.04" y="164.2"/>
    </contour>
  </outline>
</glyph>
<glyph name="seven" format="1">
  <advance width="1248.82"/>
  <unicode hex="0037"/>
  <outline>
    <contour>
      <point x="334.21" y="0.0" type="line"/>
      <point x="873.56" y="1274.82" type="line"/>
      <point x="157.93" y="1274.82" type="line"/>
      <point x="157.93" y="1456.0" type="line"/>
      <point x="1123.85" y="1456.0" type="line"/>
      <point x="1123.85" y="1290.81" type="line"/>
      <point x="569.12" y="0.0" type="line"/>
    </contour>
  </outline>
</glyph>
<glyph name="eight" format="1">
  <advance width="1250.49"/>
  <unicode hex="0038"/>
  <outline>
    <contour>
      <point x="627.09" y="-23.0" type="curve" smooth="yes"/>
      <point x="358.66" y="-23.0"/>
      <point x="138.02" y="124.36"/>
      <point x="138.02" y="386.39" type="curve" smooth="yes"/>
      <point x="138.02" y="558.66"/>
      <point x="239.99" y="693.97"/>
      <point x="411.53" y="763.67" type="curve"/>
      <point x="266.32" y="829.38"/>
      <point x="169.34" y="942.67"/>
      <point x="169.34" y="1105.29" type="curve" smooth="yes"/>
      <point x="169.34" y="1343.32"/>
      <point x="366.01" y="1483.0"/>
      <point x="623.07" y="1483.0" type="curve" smooth="yes"/>
      <point x="894.53" y="1483.0"/>
      <point x="1080.81" y="1339.3"/>
      <point x="1080.81" y="1099.26" type="curve" smooth="yes"/>
      <point x="1080.81" y="935.97"/>
      <point x="987.85" y="822.68"/>
      <point x="840.63" y="761.66" type="curve"/>
      <point x="1003.46" y="695.31"/>
      <point x="1112.47" y="551.29"/>
      <point x="1112.47" y="381.7" type="curve" smooth="yes"/>
      <point x="1112.47" y="120.34"/>
      <point x="881.44" y="-23.0"/>
    </contour>
    <contour>
      <point x="625.08" y="163.54" type="curve" smooth="yes"/>
      <point x="783.98" y="163.54"/>
      <point x="893.23" y="240.46"/>
      <point x="893.23" y="399.39" type="curve" smooth="yes"/>
      <point x="893.23" y="535.25"/>
      <point x="778.62" y="643.97"/>
      <point x="628.43" y="678.96" type="curve"/>
      <point x="472.87" y="645.31"/>
      <point x="358.6" y="543.29"/>
      <point x="358.6" y="397.38" type="curve" smooth="yes"/>
      <point x="358.6" y="245.82"/>
      <point x="466.17" y="163.54"/>
    </contour>
    <contour>
      <point x="624.41" y="849.06" type="curve"/>
      <point x="773.94" y="886.07"/>
      <point x="863.22" y="972.72"/>
      <point x="863.22" y="1103.64" type="curve" smooth="yes"/>
      <point x="863.22" y="1229.17"/>
      <point x="753.98" y="1298.44"/>
      <point x="623.74" y="1298.44" type="curve" smooth="yes"/>
      <point x="490.14" y="1298.44"/>
      <point x="385.59" y="1231.85"/>
      <point x="385.59" y="1096.94" type="curve" smooth="yes"/>
      <point x="385.59" y="971.38"/>
      <point x="474.87" y="884.06"/>
    </contour>
  </outline>
</glyph>
<glyph name="nine" format="1">
  <advance width="1249.48"/>
  <unicode hex="0039"/>
  <outline>
    <contour>
      <point x="557.36" y="-24.67" type="curve" smooth="yes"/>
      <point x="444.39" y="-24.67"/>
      <point x="325.65" y="4.36"/>
      <point x="192.28" y="71.7" type="curve"/>
      <point x="265.74" y="246.58" type="line"/>
      <point x="360.32" y="190.26"/>
      <point x="451.68" y="164.87"/>
      <point x="540.34" y="164.87" type="curve" smooth="yes"/>
      <point x="736.52" y="164.87"/>
      <point x="884.58" y="313.36"/>
      <point x="884.58" y="640.92" type="curve" smooth="yes"/>
      <point x="884.58" y="683.81" type="line"/>
      <point x="818.23" y="571.19"/>
      <point x="703.55" y="528.59"/>
      <point x="573.71" y="528.59" type="curve" smooth="yes"/>
      <point x="293.68" y="528.59"/>
      <point x="121.94" y="720.93"/>
      <point x="121.94" y="996.63" type="curve" smooth="yes"/>
      <point x="121.94" y="1272.32"/>
      <point x="305.34" y="1483.0"/>
      <point x="607.37" y="1483.0" type="curve" smooth="yes"/>
      <point x="929.38" y="1483.0"/>
      <point x="1102.48" y="1237.03"/>
      <point x="1102.48" y="771.99" type="curve" smooth="yes"/>
      <point x="1102.48" y="261.29"/>
      <point x="889.88" y="-24.67"/>
    </contour>
    <contour>
      <point x="342.51" y="1001.96" type="curve" smooth="yes"/>
      <point x="342.51" y="837.05"/>
      <point x="419.51" y="710.45"/>
      <point x="599.04" y="710.45" type="curve" smooth="yes"/>
      <point x="760.63" y="710.45"/>
      <point x="876.6" y="814.39"/>
      <point x="876.6" y="1005.07" type="curve" smooth="yes"/>
      <point x="876.6" y="1156.62"/>
      <point x="785.27" y="1295.14"/>
      <point x="610.09" y="1295.14" type="curve" smooth="yes"/>
      <point x="443.5" y="1295.14"/>
      <point x="342.51" y="1173.22"/>
    </contour>
  </outline>
</glyph>
<glyph name="colon" format="1">
  <advance width="562.52"/>
  <unicode hex="003A"/>
  <outline>
    <contour>
      <point x="148.64" y="-7.37" type="line"/>
      <point x="148.64" y="237.47" type="line"/>
      <point x="413.88" y="237.47" type="line"/>
      <point x="413.88" y="-7.37" type="line"/>
    </contour>
    <contour>
      <point x="148.64" y="870.09" type="line"/>
      <point x="148.64" y="1114.93" type="line"/>
      <point x="413.21" y="1114.93" type="line"/>
      <point x="413.88" y="870.09" type="line"/>
    </contour>
  </outline>
</glyph>
<glyph name="semicolon" format="1">
  <advance width="541.65"/>
  <unicode hex="003B"/>
  <outline>
    <contour>
      <point x="81.24" y="-245.28" type="line"/>
      <point x="188.58" y="241.84" type="line"/>
      <point x="429.51" y="241.84" type="line"/>
      <point x="257.8" y="-245.28" type="line"/>
    </contour>
    <contour>
      <point x="171.73" y="866.46" type="line"/>
      <point x="171.73" y="1111.3" type="line"/>
      <point x="408.83" y="1111.3" type="line"/>
      <point x="408.83" y="866.46" type="line"/>
    </contour>
  </outline>
</glyph>
<glyph name="less" format="1">
  <advance width="1325.27"/>
  <unicode hex="003C"/>
  <outline>
    <contour>
      <point x="1106.94" y="53.88" type="line"/>
      <point x="123.5" y="523.24" type="line"/>
      <point x="123.5" y="626.98" type="line"/>
      <point x="1111.27" y="1090.83" type="line"/>
      <point x="1111.27" y="894.62" type="line"/>
      <point x="397.53" y="574.63" type="line"/>
      <point x="1106.94" y="246.75" type="line"/>
    </contour>
  </outline>
</glyph>
<glyph name="equal" format="1">
  <advance width="1372.38"/>
  <unicode hex="003D"/>
  <outline>
    <contour>
      <point x="191.17" y="278.88" type="line"/>
      <point x="191.17" y="452.06" type="line"/>
      <point x="1181.54" y="452.06" type="line"/>
      <point x="1181.54" y="278.88" type="line"/>
    </contour>
    <contour>
      <point x="190.84" y="676.27" type="line"/>
      <point x="190.84" y="850.45" type="line"/>
      <point x="1179.87" y="850.45" type="line"/>
      <point x="1179.87" y="676.27" type="line"/>
    </contour>
  </outline>
</glyph>
<glyph name="greater" format="1">
  <advance width="1326.61"/>
  <unicode hex="003E"/>
  <outline>
    <contour>
      <point x="214.0" y="55.89" type="line"/>
      <point x="214.0" y="254.78" type="line"/>
      <point x="922.41" y="565.72" type="line"/>
      <point x="219.0" y="900.64" type="line"/>
      <point x="219.0" y="1095.52" type="line"/>
      <point x="1203.11" y="611.42" type="line"/>
      <point x="1203.11" y="502.32" type="line"/>
    </contour>
  </outline>
</glyph>
<glyph name="question" format="1">
  <advance width="1041.18"/>
  <unicode hex="003F"/>
  <outline>
    <contour>
      <point x="328.87" y="392.79" type="line"/>
      <point x="328.87" y="532.77" type="line" smooth="yes"/>
      <point x="328.87" y="786.49"/>
      <point x="693.44" y="905.1"/>
      <point x="693.44" y="1120.31" type="curve" smooth="yes"/>
      <point x="693.44" y="1247.86"/>
      <point x="591.19" y="1297.14"/>
      <point x="463.62" y="1297.14" type="curve" smooth="yes"/>
      <point x="343.97" y="1297.14"/>
      <point x="217.91" y="1250.82"/>
      <point x="169.24" y="1226.83" type="curve"/>
      <point x="169.24" y="1412.01" type="line"/>
      <point x="218.01" y="1436.23"/>
      <point x="339.32" y="1482.02"/>
      <point x="485.63" y="1482.02" type="curve" smooth="yes"/>
      <point x="722.59" y="1482.02"/>
      <point x="913.36" y="1366.01"/>
      <point x="913.36" y="1127.64" type="curve" smooth="yes"/>
      <point x="913.36" y="826.867303461"/>
      <point x="499.73" y="732.8"/>
      <point x="499.73" y="476.66" type="curve" smooth="yes"/>
      <point x="499.73" y="392.79" type="line"/>
    </contour>
    <contour>
      <point x="294.54" y="-3.63" type="line"/>
      <point x="294.54" y="241.21" type="line"/>
      <point x="553.08" y="241.21" type="line"/>
      <point x="553.08" y="-3.63" type="line"/>
    </contour>
  </outline>
</glyph>
<glyph name="at" format="1">
  <advance width="1787.84"/>
  <unicode hex="0040"/>
  <outline>
    <contour>
      <point x="933.4" y="-93.72" type="curve" smooth="yes"/>
      <point x="1145.36" y="-93.72"/>
      <point x="1362.27" y="-32.75"/>
      <point x="1508.39" y="93.84" type="curve"/>
      <point x="1433.35" y="191.31" type="line"/>
      <point x="1292.6" y="91.73"/>
      <point x="1113.38" y="43.75"/>
      <point x="947.11" y="43.75" type="curve" smooth="yes"/>
      <point x="601.24" y="43.75"/>
      <point x="283.18" y="252.31"/>
      <point x="283.18" y="673.61" type="curve" smooth="yes"/>
      <point x="283.18" y="1111.02"/>
      <point x="590.81" y="1338.54"/>
      <point x="952.82" y="1338.54" type="curve" smooth="yes"/>
      <point x="1260.97" y="1338.54"/>
      <point x="1536.73" y="1149.1"/>
      <point x="1536.73" y="800.65" type="curve" smooth="yes"/>
      <point x="1536.73" y="554.24"/>
      <point x="1397.0" y="367.73"/>
      <point x="1292.19" y="367.73" type="curve" smooth="yes"/>
      <point x="1244.57" y="367.73"/>
      <point x="1226.25" y="414.46"/>
      <point x="1226.25" y="454.08" type="curve" smooth="yes"/>
      <point x="1226.25" y="495.66"/>
      <point x="1231.87" y="537.29"/>
      <point x="1248.57" y="620.82" type="curve" smooth="yes"/>
      <point x="1348.5" y="1115.35" type="line"/>
      <point x="1165.93" y="1115.35" type="line"/>
      <point x="1142.95" y="1010.74" type="line"/>
      <point x="1113.93" y="1102.0"/>
      <point x="1031.36" y="1138.98"/>
      <point x="930.67" y="1138.98" type="curve" smooth="yes"/>
      <point x="726.43" y="1138.98"/>
      <point x="485.62" y="921.46"/>
      <point x="481.0" y="624.33" type="curve" smooth="yes"/>
      <point x="477.04" y="383.61"/>
      <point x="650.43" y="261.96"/>
      <point x="806.44" y="261.96" type="curve" smooth="yes"/>
      <point x="951.9" y="261.96"/>
      <point x="1056.49" y="351.33"/>
      <point x="1097.12" y="460.36" type="curve"/>
      <point x="1097.12" y="333.47"/>
      <point x="1170.19" y="253.67"/>
      <point x="1306.57" y="253.67" type="curve" smooth="yes"/>
      <point x="1507.28" y="253.67"/>
      <point x="1681.18" y="517.49"/>
      <point x="1681.18" y="795.65" type="curve" smooth="yes"/>
      <point x="1681.18" y="1197.35"/>
      <point x="1360.83" y="1480.68"/>
      <point x="948.12" y="1480.68" type="curve" smooth="yes"/>
      <point x="494.0" y="1480.68"/>
      <point x="106.66" y="1174.34"/>
      <point x="106.66" y="674.27" type="curve" smooth="yes"/>
      <point x="106.66" y="200.62"/>
      <point x="467.0" y="-93.72"/>
    </contour>
    <contour>
      <point x="831.17" y="425.48" type="curve" smooth="yes"/>
      <point x="743.92" y="425.48"/>
      <point x="683.96" y="492.75"/>
      <point x="683.96" y="592.67" type="curve" smooth="yes"/>
      <point x="683.96" y="767.26"/>
      <point x="791.13" y="985.77"/>
      <point x="951.73" y="985.77" type="curve" smooth="yes"/>
      <point x="1038.96" y="985.77"/>
      <point x="1092.61" y="920.9"/>
      <point x="1092.61" y="821.97" type="curve" smooth="yes"/>
      <point x="1092.61" y="622.38"/>
      <point x="978.77" y="425.48"/>
    </contour>
  </outline>
</glyph>
<glyph name="A" format="1">
  <advance width="1424.92"/>
  <unicode hex="0041"/>
  <outline>
    <contour>
      <point x="476.17" y="568.81" type="line"/>
      <point x="934.16" y="568.81" type="line"/>
      <point x="796.96" y="960.01" type="line"/>
      <point x="706.7" y="1215.89" type="line"/>
      <point x="615.37" y="959.7" type="line"/>
    </contour>
    <contour>
      <point x="20.27" y="0.0" type="line"/>
      <point x="596.69" y="1456.0" type="line"/>
      <point x="824.47" y="1456.0" type="line"/>
      <point x="1404.65" y="0.0" type="line"/>
      <point x="1160.24" y="0.0" type="line"/>
      <point x="1014.38" y="371.75" type="line"/>
      <point x="402.71" y="371.75" type="line"/>
      <point x="259.54" y="0.0" type="line"/>
    </contour>
  </outline>
</glyph>
<glyph name="B" format="1">
  <advance width="1355.63"/>
  <unicode hex="0042"/>
  <outline>
    <contour>
      <point x="190.76" y="0.0" type="line"/>
      <point x="190.76" y="1456.0" type="line"/>
      <point x="574.36" y="1456.0" type="line" smooth="yes"/>
      <point x="834.56" y="1456.0"/>
      <point x="1172.91" y="1426.21"/>
      <point x="1172.91" y="1092.34" type="curve" smooth="yes"/>
      <point x="1172.91" y="952.04"/>
      <point x="1105.68" y="828.84"/>
      <point x="949.38" y="773.45" type="curve"/>
      <point x="1139.58" y="733.41"/>
      <point x="1240.84" y="593.27"/>
      <point x="1240.84" y="410.59" type="curve" smooth="yes"/>
      <point x="1240.84" y="189.49"/>
      <point x="1069.6" y="0.0"/>
      <point x="714.42" y="0.0" type="curve" smooth="yes"/>
    </contour>
    <contour>
      <point x="412.44" y="188.71" type="line"/>
      <point x="674.52" y="188.71" type="line" smooth="yes"/>
      <point x="889.37" y="188.71"/>
      <point x="1006.33" y="264.5"/>
      <point x="1006.33" y="418.42" type="curve" smooth="yes"/>
      <point x="1006.33" y="606.65"/>
      <point x="906.86" y="662.99"/>
      <point x="655.46" y="662.99" type="curve" smooth="yes"/>
      <point x="412.44" y="662.99" type="line"/>
    </contour>
    <contour>
      <point x="411.06" y="844.87" type="line"/>
      <point x="637.88" y="844.87" type="line" smooth="yes"/>
      <point x="792.17" y="844.87"/>
      <point x="940.4" y="891.35"/>
      <point x="940.4" y="1063.2" type="curve" smooth="yes"/>
      <point x="940.4" y="1232.67"/>
      <point x="809.0" y="1267.29"/>
      <point x="603.66" y="1267.29" type="curve" smooth="yes"/>
      <point x="411.06" y="1267.29" type="line"/>
    </contour>
  </outline>
</glyph>
<glyph name="C" format="1">
  <advance width="1409.83"/>
  <unicode hex="0043"/>
  <outline>
    <contour>
      <point x="829.04" y="-22.0" type="curve" smooth="yes"/>
      <point x="456.33" y="-22.0"/>
      <point x="106.66" y="229.41"/>
      <point x="106.66" y="721.04" type="curve" smooth="yes"/>
      <point x="106.66" y="1188.65"/>
      <point x="427.94" y="1482.67"/>
      <point x="815.33" y="1482.67" type="curve" smooth="yes"/>
      <point x="987.62" y="1482.67"/>
      <point x="1146.34" y="1443.02"/>
      <point x="1286.76" y="1329.64" type="curve"/>
      <point x="1200.67" y="1178.8" type="line"/>
      <point x="1079.57" y="1265.52"/>
      <point x="956.94" y="1295.13"/>
      <point x="834.34" y="1295.13" type="curve" smooth="yes"/>
      <point x="536.36" y="1295.13"/>
      <point x="337.23" y="1046.12"/>
      <point x="337.23" y="722.72" type="curve" smooth="yes"/>
      <point x="337.23" y="374.85"/>
      <point x="553.18" y="165.54"/>
      <point x="841.4" y="165.54" type="curve" smooth="yes"/>
      <point x="975.69" y="165.54"/>
      <point x="1112.69" y="207.18"/>
      <point x="1249.03" y="311.55" type="curve"/>
      <point x="1322.44" y="136.38" type="line"/>
      <point x="1173.39" y="23.98"/>
      <point x="1003.71" y="-22.0"/>
    </contour>
  </outline>
</glyph>
<glyph name="D" format="1">
  <advance width="1544.52"/>
  <unicode hex="0044"/>
  <outline>
    <contour>
      <point x="409.58" y="187.53" type="line"/>
      <point x="636.44" y="187.53" type="line" smooth="yes"/>
      <point x="1017.56" y="187.53"/>
      <point x="1206.28" y="391.02"/>
      <point x="1206.28" y="731.05" type="curve" smooth="yes"/>
      <point x="1206.28" y="1100.04"/>
      <point x="1004.76" y="1268.47"/>
      <point x="575.64" y="1268.47" type="curve" smooth="yes"/>
      <point x="409.58" y="1268.47" type="line"/>
    </contour>
    <contour>
      <point x="190.68" y="0.0" type="line"/>
      <point x="190.68" y="1456.0" type="line"/>
      <point x="553.3" y="1456.0" type="line" smooth="yes"/>
      <point x="1115.84" y="1456.0"/>
      <point x="1437.86" y="1233.05"/>
      <point x="1437.86" y="731.37" type="curve" smooth="yes"/>
      <point x="1437.86" y="266.59"/>
      <point x="1151.84" y="0.0"/>
      <point x="623.44" y="0.0" type="curve" smooth="yes"/>
    </contour>
  </outline>
</glyph>
<glyph name="E" format="1">
  <advance width="1204.64"/>
  <unicode hex="0045"/>
  <outline>
    <contour>
      <point x="190.68" y="0.0" type="line"/>
      <point x="190.68" y="1456.0" type="line"/>
      <point x="1083.19" y="1456.0" type="line"/>
      <point x="1083.19" y="1268.47" type="line"/>
      <point x="409.58" y="1268.47" type="line"/>
      <point x="409.58" y="839.43" type="line"/>
      <point x="1045.86" y="839.43" type="line"/>
      <point x="1045.86" y="651.23" type="line"/>
      <point x="410.92" y="651.23" type="line"/>
      <point x="410.92" y="187.53" type="line"/>
      <point x="1112.52" y="187.53" type="line"/>
      <point x="1112.52" y="0.0" type="line"/>
    </contour>
  </outline>
</glyph>
<glyph name="F" format="1">
  <advance width="1123.49"/>
  <unicode hex="0046"/>
  <outline>
    <contour>
      <point x="190.68" y="0.0" type="line"/>
      <point x="190.68" y="1456.0" type="line"/>
      <point x="1051.86" y="1456.0" type="line"/>
      <point x="1051.86" y="1268.47" type="line"/>
      <point x="409.58" y="1268.47" type="line"/>
      <point x="409.58" y="834.43" type="line"/>
      <point x="1010.56" y="834.43" type="line"/>
      <point x="1010.56" y="646.23" type="line"/>
      <point x="409.58" y="646.23" type="line"/>
      <point x="409.58" y="0.0" type="line"/>
    </contour>
  </outline>
</glyph>
<glyph name="G" format="1">
  <advance width="1532.04"/>
  <unicode hex="0047"/>
  <outline>
    <contour>
      <point x="847.03" y="-22.67" type="curve" smooth="yes"/>
      <point x="361.67" y="-22.67"/>
      <point x="106.66" y="267.0"/>
      <point x="106.66" y="703.01" type="curve" smooth="yes"/>
      <point x="106.66" y="1146.16"/>
      <point x="410.77" y="1482.67"/>
      <point x="867.07" y="1482.67" type="curve" smooth="yes"/>
      <point x="1105.11" y="1482.67"/>
      <point x="1248.34" y="1412.82"/>
      <point x="1349.42" y="1337.34" type="curve"/>
      <point x="1261.33" y="1184.17" type="line"/>
      <point x="1168.2" y="1249.37"/>
      <point x="1045.59" y="1295.13"/>
      <point x="870.72" y="1295.13" type="curve" smooth="yes"/>
      <point x="538.93" y="1295.13"/>
      <point x="334.24" y="1037.33"/>
      <point x="334.24" y="714.67" type="curve" smooth="yes"/>
      <point x="334.24" y="391.13"/>
      <point x="500.55" y="164.2"/>
      <point x="856.38" y="164.2" type="curve" smooth="yes"/>
      <point x="951.29" y="164.2"/>
      <point x="1055.84" y="179.85"/>
      <point x="1143.13" y="210.14" type="curve"/>
      <point x="1143.13" y="590.57" type="line"/>
      <point x="788.89" y="590.57" type="line"/>
      <point x="788.89" y="777.77" type="line"/>
      <point x="1364.04" y="777.77" type="line"/>
      <point x="1364.04" y="85.68" type="line"/>
      <point x="1190.31" y="6.66"/>
      <point x="1016.02" y="-22.67"/>
    </contour>
  </outline>
</glyph>
<glyph name="H" format="1">
  <advance width="1572.29"/>
  <unicode hex="0048"/>
  <outline>
    <contour>
      <point x="199.92" y="0.0" type="line"/>
      <point x="199.92" y="1456.0" type="line"/>
      <point x="418.82" y="1456.0" type="line"/>
      <point x="418.82" y="839.78" type="line"/>
      <point x="1152.48" y="839.78" type="line"/>
      <point x="1152.48" y="1456.0" type="line"/>
      <point x="1371.05" y="1456.0" type="line"/>
      <point x="1371.05" y="0.0" type="line"/>
      <point x="1155.16" y="0.0" type="line"/>
      <point x="1155.16" y="653.23" type="line"/>
      <point x="421.5" y="653.23" type="line"/>
      <point x="421.5" y="0.0" type="line"/>
    </contour>
  </outline>
</glyph>
<glyph name="I" format="1">
  <advance width="585.11"/>
  <unicode hex="0049"/>
  <outline>
    <contour>
      <point x="182.75" y="0.0" type="line"/>
      <point x="182.75" y="1456.0" type="line"/>
      <point x="403.05" y="1456.0" type="line"/>
      <point x="403.05" y="0.0" type="line"/>
    </contour>
  </outline>
</glyph>
<glyph name="J" format="1">
  <advance width="844.51"/>
  <unicode hex="004A"/>
  <outline>
    <contour>
      <point x="285.22" y="-330.67" type="curve" smooth="yes"/>
      <point x="188.3" y="-330.67"/>
      <point x="85.95" y="-305.39"/>
      <point x="5.94" y="-276.27" type="curve"/>
      <point x="41.01" y="-105.79" type="line"/>
      <point x="105.29" y="-126.21"/>
      <point x="179.61" y="-145.15"/>
      <point x="251.14" y="-145.15" type="curve" smooth="yes"/>
      <point x="396.52" y="-145.15"/>
      <point x="435.61" y="-50.84"/>
      <point x="435.61" y="115.96" type="curve" smooth="yes"/>
      <point x="435.61" y="1456.0" type="line"/>
      <point x="654.51" y="1456.0" type="line"/>
      <point x="654.51" y="119.02" type="line" smooth="yes"/>
      <point x="654.51" y="-177.3"/>
      <point x="523.02" y="-330.67"/>
    </contour>
  </outline>
</glyph>
<glyph name="K" format="1">
  <advance width="1314.59"/>
  <unicode hex="004B"/>
  <outline>
    <contour>
      <point x="190.68" y="0.0" type="line"/>
      <point x="190.68" y="1456.0" type="line"/>
      <point x="409.58" y="1456.0" type="line"/>
      <point x="409.58" y="808.41" type="line"/>
      <point x="1007.33" y="1456.0" type="line"/>
      <point x="1279.63" y="1456.0" type="line"/>
      <point x="624.79" y="753.99" type="line"/>
      <point x="1327.97" y="0.0" type="line"/>
      <point x="1047.64" y="0.0" type="line"/>
      <point x="410.92" y="674.51" type="line"/>
      <point x="410.92" y="0.0" type="line"/>
    </contour>
  </outline>
</glyph>
<glyph name="L" format="1">
  <advance width="1128.97"/>
  <unicode hex="004C"/>
  <outline>
    <contour>
      <point x="190.68" y="0.0" type="line"/>
      <point x="190.68" y="1456.0" type="line"/>
      <point x="409.58" y="1456.0" type="line"/>
      <point x="409.58" y="187.53" type="line"/>
      <point x="1084.57" y="187.53" type="line"/>
      <point x="1084.57" y="0.0" type="line"/>
    </contour>
  </outline>
</glyph>
<glyph name="M" format="1">
  <advance width="1939.02"/>
  <unicode hex="004D"/>
  <outline>
    <contour>
      <point x="190.68" y="0.0" type="line"/>
      <point x="190.68" y="1456.0" type="line"/>
      <point x="452.92" y="1456.0" type="line"/>
      <point x="872.45" y="506.73" type="line"/>
      <point x="971.85" y="281.96" type="line"/>
      <point x="1072.26" y="511.74" type="line"/>
      <point x="1488.09" y="1456.0" type="line"/>
      <point x="1748.34" y="1456.0" type="line"/>
      <point x="1748.34" y="0.0" type="line"/>
      <point x="1542.13" y="0.0" type="line"/>
      <point x="1542.13" y="1099.6" type="line"/>
      <point x="1463.66" y="926.34" type="line"/>
      <point x="1050.94" y="0.0" type="line"/>
      <point x="890.1" y="0.0" type="line"/>
      <point x="481.0" y="916.4" type="line"/>
      <point x="401.57" y="1097.17" type="line"/>
      <point x="401.57" y="0.0" type="line"/>
    </contour>
  </outline>
</glyph>
<glyph name="N" format="1">
  <advance width="1600.23"/>
  <unicode hex="004E"/>
  <outline>
    <contour>
      <point x="190.68" y="0.0" type="line"/>
      <point x="190.68" y="1456.0" type="line"/>
      <point x="424.91" y="1456.0" type="line"/>
      <point x="1095.85" y="473.62" type="line"/>
      <point x="1201.99" y="315.76" type="line"/>
      <point x="1201.99" y="1456.0" type="line"/>
      <point x="1409.55" y="1456.0" type="line"/>
      <point x="1409.55" y="0.0" type="line"/>
      <point x="1174.65" y="0.0" type="line"/>
      <point x="499.72" y="978.39" type="line"/>
      <point x="394.22" y="1137.27" type="line"/>
      <point x="394.22" y="0.0" type="line"/>
    </contour>
  </outline>
</glyph>
<glyph name="O" format="1">
  <advance width="1646.16"/>
  <unicode hex="004F"/>
  <outline>
    <contour>
      <point x="823.07" y="164.2" type="curve" smooth="yes"/>
      <point x="1148.9" y="164.2"/>
      <point x="1301.25" y="385.05"/>
      <point x="1301.25" y="732.02" type="curve" smooth="yes"/>
      <point x="1301.25" y="1062.36"/>
      <point x="1148.9" y="1295.8"/>
      <point x="825.75" y="1295.8" type="curve" smooth="yes"/>
      <point x="506.56" y="1295.8"/>
      <point x="342.25" y="1062.7"/>
      <point x="342.25" y="732.02" type="curve" smooth="yes"/>
      <point x="342.25" y="384.38"/>
      <point x="500.87" y="164.2"/>
    </contour>
    <contour>
      <point x="826.42" y="-22.67" type="curve" smooth="yes"/>
      <point x="375.05" y="-22.67"/>
      <point x="106.66" y="272.68"/>
      <point x="106.66" y="732.02" type="curve" smooth="yes"/>
      <point x="106.66" y="1174.38"/>
      <point x="373.72" y="1482.67"/>
      <point x="828.43" y="1482.67" type="curve" smooth="yes"/>
      <point x="1267.13" y="1482.67"/>
      <point x="1539.5" y="1175.39"/>
      <point x="1539.5" y="732.02" type="curve" smooth="yes"/>
      <point x="1539.5" y="274.01"/>
      <point x="1275.8" y="-22.67"/>
    </contour>
  </outline>
</glyph>
<glyph name="P" format="1">
  <advance width="1271.53"/>
  <unicode hex="0050"/>
  <outline>
    <contour>
      <point x="190.68" y="0.0" type="line"/>
      <point x="190.68" y="1456.0" type="line"/>
      <point x="606.67" y="1456.0" type="line" smooth="yes"/>
      <point x="949.35" y="1456.0"/>
      <point x="1202.87" y="1407.45"/>
      <point x="1202.87" y="1050.6" type="curve" smooth="yes"/>
      <point x="1202.87" y="740.56"/>
      <point x="989.88" y="646.21"/>
      <point x="658.4" y="646.21" type="curve" smooth="yes"/>
      <point x="409.58" y="646.21" type="line"/>
      <point x="409.58" y="0.0" type="line"/>
    </contour>
    <contour>
      <point x="409.58" y="833.41" type="line"/>
      <point x="655.39" y="833.41" type="line" smooth="yes"/>
      <point x="852.61" y="833.41"/>
      <point x="976.93" y="873.37"/>
      <point x="976.93" y="1048.6" type="curve" smooth="yes"/>
      <point x="976.93" y="1249.24"/>
      <point x="841.9" y="1267.13"/>
      <point x="613.69" y="1267.13" type="curve" smooth="yes"/>
      <point x="409.58" y="1267.13" type="line"/>
    </contour>
  </outline>
</glyph>
<glyph name="Q" format="1">
  <advance width="1644.84"/>
  <unicode hex="0051"/>
  <outline>
    <contour>
      <point x="1239.48" y="-436.07" type="line"/>
      <point x="1239.48" y="-436.07"/>
      <point x="1038.12" y="-251.09"/>
      <point x="918.05" y="-8.33" type="curve"/>
      <point x="1115.21" y="30.05" type="line"/>
      <point x="1198.85" y="-143.24"/>
      <point x="1366.89" y="-299.98"/>
      <point x="1366.89" y="-299.98" type="curve"/>
    </contour>
    <component base="O"/>
  </outline>
</glyph>
<glyph name="R" format="1">
  <advance width="1360.2"/>
  <unicode hex="0052"/>
  <outline>
    <contour>
      <point x="190.68" y="0.0" type="line"/>
      <point x="190.68" y="1456.0" type="line"/>
      <point x="672.63" y="1456.0" type="line" smooth="yes"/>
      <point x="946.81" y="1456.0"/>
      <point x="1178.32" y="1392.57"/>
      <point x="1178.32" y="1063.28" type="curve" smooth="yes"/>
      <point x="1178.32" y="897.37"/>
      <point x="1095.3" y="759.99"/>
      <point x="896.58" y="712.99" type="curve"/>
      <point x="998.72" y="672.65"/>
      <point x="1057.79" y="573.56"/>
      <point x="1110.11" y="443.93" type="curve" smooth="yes"/>
      <point x="1290.22" y="0.0" type="line"/>
      <point x="1053.63" y="0.0" type="line"/>
      <point x="889.28" y="429.04" type="line" smooth="yes"/>
      <point x="828.99" y="587.26"/>
      <point x="786.28" y="632.57"/>
      <point x="635.08" y="632.57" type="curve" smooth="yes"/>
      <point x="409.58" y="632.57" type="line"/>
      <point x="409.58" y="0.0" type="line"/>
    </contour>
    <contour>
      <point x="407.57" y="818.43" type="line"/>
      <point x="655.87" y="818.43" type="line" smooth="yes"/>
      <point x="817.78" y="818.43"/>
      <point x="946.74" y="867.4"/>
      <point x="946.74" y="1049.29" type="curve" smooth="yes"/>
      <point x="946.74" y="1226.84"/>
      <point x="859.13" y="1268.47"/>
      <point x="676.25" y="1268.47" type="curve" smooth="yes"/>
      <point x="407.57" y="1268.47" type="line"/>
    </contour>
  </outline>
</glyph>
<glyph name="S" format="1">
  <advance width="1230.2"/>
  <unicode hex="0053"/>
  <outline>
    <contour>
      <point x="612.08" y="-22.67" type="curve" smooth="yes"/>
      <point x="383.31" y="-22.67"/>
      <point x="192.22" y="71.76"/>
      <point x="121.96" y="142.34" type="curve"/>
      <point x="217.38" y="300.5" type="line"/>
      <point x="288.55" y="244.36"/>
      <point x="452.63" y="164.2"/>
      <point x="602.37" y="164.2" type="curve" smooth="yes"/>
      <point x="791.64" y="164.2"/>
      <point x="887.23" y="240.8"/>
      <point x="887.23" y="385.41" type="curve" smooth="yes"/>
      <point x="887.23" y="519.91"/>
      <point x="843.36" y="574.2"/>
      <point x="549.8" y="661.53" type="curve" smooth="yes"/>
      <point x="271.63" y="744.94"/>
      <point x="123.98" y="847.92"/>
      <point x="123.98" y="1093.29" type="curve" smooth="yes"/>
      <point x="123.98" y="1352.98"/>
      <point x="346.28" y="1482.67"/>
      <point x="620.67" y="1482.67" type="curve" smooth="yes"/>
      <point x="890.33" y="1482.67"/>
      <point x="1009.64" y="1402.87"/>
      <point x="1090.92" y="1323.61" type="curve"/>
      <point x="980.45" y="1176.8" type="line"/>
      <point x="906.23" y="1246.69"/>
      <point x="782.82" y="1295.13"/>
      <point x="650.05" y="1295.13" type="curve" smooth="yes"/>
      <point x="488.15" y="1295.13"/>
      <point x="356.57" y="1236.86"/>
      <point x="356.57" y="1101.31" type="curve" smooth="yes"/>
      <point x="356.57" y="961.8"/>
      <point x="409.42" y="921.13"/>
      <point x="673.77" y="840.11" type="curve" smooth="yes"/>
      <point x="1015.11" y="735.42"/>
      <point x="1117.5" y="624.49"/>
      <point x="1117.5" y="383.39" type="curve" smooth="yes"/>
      <point x="1117.5" y="98.27"/>
      <point x="880.73" y="-22.67"/>
    </contour>
  </outline>
</glyph>
<glyph name="T" format="1">
  <advance width="1161.29"/>
  <unicode hex="0054"/>
  <outline>
    <contour>
      <point x="467.96" y="0.0" type="line"/>
      <point x="467.96" y="1267.29" type="line"/>
      <point x="10.69" y="1267.29" type="line"/>
      <point x="10.69" y="1456.0" type="line"/>
      <point x="1150.6" y="1456.0" type="line"/>
      <point x="1150.6" y="1267.29" type="line"/>
      <point x="688.26" y="1267.29" type="line"/>
      <point x="688.26" y="0.0" type="line"/>
    </contour>
  </outline>
</glyph>
<glyph name="U" format="1">
  <advance width="1501.38"/>
  <unicode hex="0055"/>
  <outline>
    <contour>
      <point x="748.05" y="-22.67" type="curve" smooth="yes"/>
      <point x="293.53" y="-22.67"/>
      <point x="167.64" y="244.5"/>
      <point x="167.64" y="575.82" type="curve" smooth="yes"/>
      <point x="167.64" y="1456.0" type="line"/>
      <point x="386.54" y="1456.0" type="line"/>
      <point x="386.54" y="571.44" type="line" smooth="yes"/>
      <point x="386.54" y="279.67"/>
      <point x="517.66" y="164.2"/>
      <point x="750.36" y="164.2" type="curve" smooth="yes"/>
      <point x="975.47" y="164.2"/>
      <point x="1114.84" y="277.69"/>
      <point x="1114.84" y="567.81" type="curve" smooth="yes"/>
      <point x="1114.84" y="1456.0" type="line"/>
      <point x="1333.41" y="1456.0" type="line"/>
      <point x="1333.41" y="577.8" type="line"/>
      <point x="1332.75" y="237.57"/>
      <point x="1191.68" y="-22.67"/>
    </contour>
  </outline>
</glyph>
<glyph name="V" format="1">
  <advance width="1348.63"/>
  <unicode hex="0056"/>
  <outline>
    <contour>
      <point x="563.72" y="0.0" type="line"/>
      <point x="14.68" y="1456.0" type="line"/>
      <point x="260.28" y="1456.0" type="line"/>
      <point x="600.99" y="491.48" type="line"/>
      <point x="679.82" y="272.74" type="line"/>
      <point x="758.64" y="491.14" type="line"/>
      <point x="1104.03" y="1456.0" type="line"/>
      <point x="1333.95" y="1456.0" type="line"/>
      <point x="786.91" y="0.0" type="line"/>
    </contour>
  </outline>
</glyph>
<glyph name="W" format="1">
  <advance width="2030.77"/>
  <unicode hex="0057"/>
  <outline>
    <contour>
      <point x="423.03" y="0.0" type="line"/>
      <point x="17.3" y="1456.0" type="line"/>
      <point x="251.54" y="1456.0" type="line"/>
      <point x="490.04" y="533.46" type="line"/>
      <point x="556.84" y="255.34" type="line"/>
      <point x="632.32" y="529.49" type="line"/>
      <point x="914.79" y="1456.0" type="line"/>
      <point x="1129.97" y="1456.0" type="line"/>
      <point x="1416.13" y="524.78" type="line"/>
      <point x="1493.61" y="254.64" type="line"/>
      <point x="1555.08" y="521.16" type="line"/>
      <point x="1787.89" y="1456.0" type="line"/>
      <point x="2013.47" y="1456.0" type="line"/>
      <point x="1618.4" y="0.0" type="line"/>
      <point x="1364.48" y="0.0" type="line"/>
      <point x="1017.2" y="1158.64" type="line"/>
      <point x="673.28" y="0.0" type="line"/>
    </contour>
  </outline>
</glyph>
<glyph name="X" format="1">
  <advance width="1319.58"/>
  <unicode hex="0058"/>
  <outline>
    <contour>
      <point x="1037.71" y="0.0" type="line"/>
      <point x="657.55" y="563.15" type="line"/>
      <point x="272.35" y="0.0" type="line"/>
      <point x="13.18" y="0.0" type="line"/>
      <point x="531.95" y="738.86" type="line"/>
      <point x="39.74" y="1456.0" type="line"/>
      <point x="309.98" y="1456.0" type="line"/>
      <point x="668.45" y="923.71" type="line"/>
      <point x="1036.34" y="1456.0" type="line"/>
      <point x="1289.06" y="1456.0" type="line"/>
      <point x="793.74" y="747.93" type="line"/>
      <point x="1305.71" y="0.0" type="line"/>
    </contour>
  </outline>
</glyph>
<glyph name="Y" format="1">
  <advance width="1248.23"/>
  <unicode hex="0059"/>
  <outline>
    <contour>
      <point x="507.93" y="0.0" type="line"/>
      <point x="507.93" y="569.34" type="line"/>
      <point x="-1.18" y="1456.0" type="line"/>
      <point x="245.85" y="1456.0" type="line"/>
      <point x="621.77" y="763.57" type="line"/>
      <point x="998.24" y="1456.0" type="line"/>
      <point x="1249.41" y="1456.0" type="line"/>
      <point x="728.23" y="571.65" type="line"/>
      <point x="728.23" y="0.0" type="line"/>
    </contour>
  </outline>
</glyph>
<glyph name="Z" format="1">
  <advance width="1188.63"/>
  <unicode hex="005A"/>
  <outline>
    <contour>
      <point x="82.82" y="0.0" type="line"/>
      <point x="82.82" y="118.22" type="line"/>
      <point x="798.18" y="1267.29" type="line"/>
      <point x="111.37" y="1267.29" type="line"/>
      <point x="111.37" y="1456.0" type="line"/>
      <point x="1099.87" y="1456.0" type="line"/>
      <point x="1099.87" y="1341.78" type="line"/>
      <point x="379.82" y="188.71" type="line"/>
      <point x="1096.01" y="188.71" type="line"/>
      <point x="1096.01" y="0.0" type="line"/>
    </contour>
  </outline>
</glyph>
<glyph name="bracketleft" format="1">
  <advance width="642.26"/>
  <unicode hex="005B"/>
  <outline>
    <contour>
      <point x="156.85" y="-196.73" type="line"/>
      <point x="156.85" y="1483.6" type="line"/>
      <point x="572.13" y="1483.6" type="line"/>
      <point x="572.13" y="1321.58" type="line"/>
      <point x="371.6" y="1321.58" type="line"/>
      <point x="371.6" y="-34.71" type="line"/>
      <point x="573.13" y="-34.71" type="line"/>
      <point x="573.13" y="-196.73" type="line"/>
    </contour>
  </outline>
</glyph>
<glyph name="backslash" format="1">
  <advance width="720.85"/>
  <unicode hex="005C"/>
  <outline>
    <contour>
      <point x="559.97" y="-53.6" type="line"/>
      <point x="-70.78" y="1456.0" type="line"/>
      <point x="151.49" y="1456.0" type="line"/>
      <point x="778.9" y="-53.6" type="line"/>
    </contour>
  </outline>
</glyph>
<glyph name="bracketright" format="1">
  <advance width="643.18"/>
  <unicode hex="005D"/>
  <outline>
    <contour>
      <point x="110.53" y="-198.39" type="line"/>
      <point x="110.53" y="-37.53" type="line"/>
      <point x="308.97" y="-37.53" type="line"/>
      <point x="308.97" y="1321.94" type="line"/>
      <point x="110.2" y="1321.94" type="line"/>
      <point x="110.2" y="1482.8" type="line"/>
      <point x="522.89" y="1482.8" type="line"/>
      <point x="522.89" y="-198.39" type="line"/>
    </contour>
  </outline>
</glyph>
<glyph name="asciicircum" format="1">
  <advance width="1598.07"/>
  <unicode hex="005E"/>
  <outline>
    <contour>
      <point x="233.0" y="549.88" type="line"/>
      <point x="728.12" y="1456.0" type="line"/>
      <point x="863.29" y="1456.0" type="line"/>
      <point x="1365.07" y="549.88" type="line"/>
      <point x="1155.13" y="549.88" type="line"/>
      <point x="793.2" y="1220.35" type="line"/>
      <point x="445.95" y="549.88" type="line"/>
    </contour>
  </outline>
</glyph>
<glyph name="underscore" format="1">
  <advance width="971.6"/>
  <unicode hex="005F"/>
  <outline>
    <contour>
      <point x="-8.7" y="-262.28" type="line"/>
      <point x="-8.7" y="-95.42" type="line"/>
      <point x="980.3" y="-95.42" type="line"/>
      <point x="980.3" y="-262.28" type="line"/>
    </contour>
  </outline>
</glyph>
<glyph name="grave" format="1">
  <advance width="602.38"/>
  <unicode hex="0060"/>
  <outline>
    <contour>
      <point x="362.49" y="1169.32" type="line"/>
      <point x="19.77" y="1485.97" type="line"/>
      <point x="293.4" y="1485.97" type="line"/>
      <point x="548.44" y="1169.32" type="line"/>
    </contour>
  </outline>
</glyph>
<glyph name="a" format="1">
  <advance width="1282.49"/>
  <unicode hex="0061"/>
  <outline>
    <contour>
      <point x="604.66" y="-22.69" type="curve" smooth="yes"/>
      <point x="267.52" y="-22.69"/>
      <point x="105.52" y="233.42"/>
      <point x="105.52" y="508.34" type="curve" smooth="yes"/>
      <point x="105.52" y="797.78"/>
      <point x="281.48" y="1052.0"/>
      <point x="612.66" y="1052.0" type="curve" smooth="yes"/>
      <point x="801.51" y="1052.0"/>
      <point x="908.34" y="936.33"/>
      <point x="956.38" y="822.35" type="curve"/>
      <point x="919.03" y="800.24" type="line"/>
      <point x="919.03" y="1026.0" type="line"/>
      <point x="1129.26" y="1026.0" type="line"/>
      <point x="1129.26" y="0.0" type="line"/>
      <point x="915.58" y="0.0" type="line"/>
      <point x="915.58" y="242.03" type="line"/>
      <point x="949.48" y="228.27" type="line"/>
      <point x="902.45" y="97.73"/>
      <point x="782.8" y="-22.69"/>
    </contour>
    <contour>
      <point x="627.32" y="878.67" type="curve" smooth="yes"/>
      <point x="413.51" y="878.67"/>
      <point x="320.37" y="719.48"/>
      <point x="320.37" y="515.31" type="curve" smooth="yes"/>
      <point x="320.37" y="314.21"/>
      <point x="413.68" y="150.64"/>
      <point x="630.39" y="150.64" type="curve" smooth="yes"/>
      <point x="834.39" y="150.64"/>
      <point x="926.41" y="305.29"/>
      <point x="926.41" y="518.41" type="curve" smooth="yes"/>
      <point x="926.41" y="722.27"/>
      <point x="831.52" y="878.67"/>
    </contour>
  </outline>
</glyph>
<glyph name="b" format="1">
  <advance width="1278.42"/>
  <unicode hex="0062"/>
  <outline>
    <contour>
      <point x="705.65" y="-22.67" type="curve" smooth="yes"/>
      <point x="542.11" y="-22.67"/>
      <point x="420.8" y="63.25"/>
      <point x="373.14" y="153.16" type="curve"/>
      <point x="372.48" y="0.0" type="line"/>
      <point x="155.9" y="0.0" type="line"/>
      <point x="160.59" y="144.05"/>
      <point x="163.57" y="241.02"/>
      <point x="163.57" y="271.34" type="curve" smooth="yes"/>
      <point x="163.57" y="1472.57" type="line"/>
      <point x="375.14" y="1472.57" type="line"/>
      <point x="375.14" y="867.76" type="line"/>
      <point x="408.32" y="941.54"/>
      <point x="517.88" y="1052.0"/>
      <point x="711.7" y="1052.0" type="curve" smooth="yes"/>
      <point x="997.42" y="1052.0"/>
      <point x="1177.04" y="840.24"/>
      <point x="1177.04" y="525.95" type="curve" smooth="yes"/>
      <point x="1177.04" y="192.36"/>
      <point x="971.94" y="-22.67"/>
    </contour>
    <contour>
      <point x="673.23" y="149.52" type="curve" smooth="yes"/>
      <point x="864.22" y="149.52"/>
      <point x="955.45" y="306.55"/>
      <point x="955.45" y="523.25" type="curve" smooth="yes"/>
      <point x="955.45" y="726.14"/>
      <point x="855.57" y="879.81"/>
      <point x="672.95" y="879.81" type="curve" smooth="yes"/>
      <point x="481.69" y="879.81"/>
      <point x="366.43" y="725.15"/>
      <point x="366.43" y="515.0" type="curve" smooth="yes"/>
      <point x="366.43" y="305.89"/>
      <point x="476.63" y="149.52"/>
    </contour>
  </outline>
</glyph>
<glyph name="c" format="1">
  <advance width="1053.57"/>
  <unicode hex="0063"/>
  <outline>
    <contour>
      <point x="629.25" y="-22.69" type="curve" smooth="yes"/>
      <point x="301.41" y="-22.69"/>
      <point x="102.14" y="211.05"/>
      <point x="102.14" y="509.21" type="curve" smooth="yes"/>
      <point x="102.14" y="826.2"/>
      <point x="309.41" y="1052.0"/>
      <point x="631.04" y="1052.0" type="curve" smooth="yes"/>
      <point x="777.74" y="1052.0"/>
      <point x="897.95" y="1007.55"/>
      <point x="980.78" y="922.89" type="curve"/>
      <point x="905.15" y="783.22" type="line"/>
      <point x="844.91" y="836.15"/>
      <point x="756.81" y="878.36"/>
      <point x="649.08" y="878.36" type="curve" smooth="yes"/>
      <point x="458.28" y="878.36"/>
      <point x="323.89" y="750.18"/>
      <point x="323.89" y="509.83" type="curve" smooth="yes"/>
      <point x="323.89" y="292.43"/>
      <point x="447.47" y="150.64"/>
      <point x="648.81" y="150.64" type="curve" smooth="yes"/>
      <point x="773.13" y="150.64"/>
      <point x="864.95" y="205.03"/>
      <point x="917.56" y="244.78" type="curve"/>
      <point x="983.36" y="89.76" type="line"/>
      <point x="882.11" y="15.55"/>
      <point x="771.25" y="-22.69"/>
    </contour>
  </outline>
</glyph>
<glyph name="d" format="1">
  <advance width="1266.01"/>
  <unicode hex="0064"/>
  <outline>
    <contour>
      <point x="574.67" y="-22.67" type="curve" smooth="yes"/>
      <point x="306.73" y="-22.67"/>
      <point x="103.36" y="181.67"/>
      <point x="103.36" y="507.34" type="curve" smooth="yes"/>
      <point x="103.36" y="814.87"/>
      <point x="276.28" y="1052.0"/>
      <point x="587.38" y="1052.0" type="curve" smooth="yes"/>
      <point x="751.02" y="1052.0"/>
      <point x="859.26" y="964.0"/>
      <point x="893.88" y="894.16" type="curve"/>
      <point x="893.88" y="1472.57" type="line"/>
      <point x="1105.45" y="1472.57" type="line"/>
      <point x="1105.45" y="266.72" type="line"/>
      <point x="1105.78" y="220.89"/>
      <point x="1107.11" y="169.46"/>
      <point x="1112.79" y="0.0" type="curve"/>
      <point x="896.54" y="0.0" type="line"/>
      <point x="893.88" y="153.52" type="line"/>
      <point x="862.28" y="77.01"/>
      <point x="761.02" y="-22.67"/>
    </contour>
    <contour>
      <point x="610.44" y="149.52" type="curve" smooth="yes"/>
      <point x="804.4" y="149.52"/>
      <point x="898.9" y="305.89"/>
      <point x="898.9" y="520.28" type="curve" smooth="yes"/>
      <point x="898.9" y="723.83"/>
      <point x="801.7" y="879.81"/>
      <point x="613.41" y="879.81" type="curve" smooth="yes"/>
      <point x="424.13" y="879.81"/>
      <point x="324.95" y="724.16"/>
      <point x="324.95" y="512.36" type="curve" smooth="yes"/>
      <point x="324.95" y="306.55"/>
      <point x="418.79" y="149.52"/>
    </contour>
  </outline>
</glyph>
<glyph name="e" format="1">
  <advance width="1184.15"/>
  <unicode hex="0065"/>
  <outline>
    <contour>
      <point x="651.09" y="-22.67" type="curve" smooth="yes"/>
      <point x="312.35" y="-22.67"/>
      <point x="104.7" y="192.38"/>
      <point x="104.7" y="511.34" type="curve" smooth="yes"/>
      <point x="104.7" y="814.55"/>
      <point x="302.99" y="1052.0"/>
      <point x="620.42" y="1052.0" type="curve" smooth="yes"/>
      <point x="930.58" y="1052.0"/>
      <point x="1075.77" y="824.56"/>
      <point x="1075.77" y="527.25" type="curve"/>
      <point x="1075.77" y="519.88"/>
      <point x="1074.77" y="503.2"/>
      <point x="1071.76" y="479.94" type="curve"/>
      <point x="327.29" y="479.94" type="line"/>
      <point x="333.31" y="256.71"/>
      <point x="472.58" y="149.52"/>
      <point x="665.48" y="149.52" type="curve" smooth="yes"/>
      <point x="783.43" y="149.52"/>
      <point x="891.42" y="186.18"/>
      <point x="989.8" y="262.5" type="curve"/>
      <point x="1050.51" y="106.67" type="line"/>
      <point x="936.76" y="19.66"/>
      <point x="806.79" y="-22.67"/>
    </contour>
    <contour>
      <point x="331.62" y="624.41" type="curve"/>
      <point x="889.57" y="624.41" type="line"/>
      <point x="869.89" y="796.91"/>
      <point x="767.33" y="885.17"/>
      <point x="628.13" y="885.17" type="curve" smooth="yes"/>
      <point x="472.54" y="885.17"/>
      <point x="360.64" y="788.23"/>
    </contour>
  </outline>
</glyph>
<glyph name="f" format="1">
  <advance width="767.02"/>
  <unicode hex="0066"/>
  <outline>
    <contour>
      <point x="255.7" y="0.0" type="line"/>
      <point x="255.7" y="884.83" type="line"/>
      <point x="69.34" y="884.83" type="line"/>
      <point x="69.34" y="1026.0" type="line"/>
      <point x="255.7" y="1026.0" type="line"/>
      <point x="255.7" y="1090.82" type="line" smooth="yes"/>
      <point x="255.7" y="1365.27"/>
      <point x="294.33" y="1486.64"/>
      <point x="666.18" y="1486.64" type="curve" smooth="yes"/>
      <point x="716.2" y="1486.64" type="line"/>
      <point x="710.84" y="1321.79" type="line"/>
      <point x="485.94" y="1321.79"/>
      <point x="467.27" y="1286.21"/>
      <point x="467.27" y="1102.43" type="curve" smooth="yes"/>
      <point x="467.27" y="1026.0" type="line"/>
      <point x="706.22" y="1026.0" type="line"/>
      <point x="706.22" y="884.83" type="line"/>
      <point x="467.27" y="884.83" type="line"/>
      <point x="467.27" y="0.0" type="line"/>
    </contour>
  </outline>
</glyph>
<glyph name="g" format="1">
  <advance width="1247.3"/>
  <unicode hex="0067"/>
  <outline>
    <contour>
      <point x="606.13" y="168.17" type="curve" smooth="yes"/>
      <point x="815.08" y="168.17"/>
      <point x="896.55" y="333.19"/>
      <point x="896.55" y="531.24" type="curve" smooth="yes"/>
      <point x="896.55" y="735.47"/>
      <point x="800.02" y="879.81"/>
      <point x="616.75" y="879.81" type="curve" smooth="yes"/>
      <point x="427.81" y="879.81"/>
      <point x="324.95" y="721.8"/>
      <point x="324.95" y="515.67" type="curve" smooth="yes"/>
      <point x="324.95" y="303.44"/>
      <point x="420.49" y="168.17"/>
    </contour>
    <contour>
      <point x="223.38" y="-140.78" type="line"/>
      <point x="345.07" y="-216.5"/>
      <point x="450.8" y="-241.47"/>
      <point x="565.63" y="-241.47" type="curve" smooth="yes"/>
      <point x="768.18" y="-241.47"/>
      <point x="889.18" y="-143.27"/>
      <point x="889.18" y="67.46" type="curve" smooth="yes"/>
      <point x="889.18" y="245.53" type="line"/>
      <point x="923.88" y="220.84" type="line"/>
      <point x="895.62" y="155.75"/>
      <point x="815.4" y="4.02"/>
      <point x="595.08" y="4.02" type="curve" smooth="yes"/>
      <point x="304.7" y="4.02"/>
      <point x="103.36" y="201.0"/>
      <point x="103.36" y="513.68" type="curve" smooth="yes"/>
      <point x="103.36" y="816.2"/>
      <point x="267.25" y="1052.0"/>
      <point x="585.03" y="1052.0" type="curve" smooth="yes"/>
      <point x="790.52" y="1052.0"/>
      <point x="889.6" y="922.78"/>
      <point x="925.17" y="820.11" type="curve"/>
      <point x="889.52" y="799.06" type="line"/>
      <point x="891.83" y="1026.0" type="line"/>
      <point x="1112.78" y="1026.0" type="line"/>
      <point x="1112.78" y="1026.0"/>
      <point x="1098.74" y="867.05"/>
      <point x="1098.74" y="720.74" type="curve" smooth="yes"/>
      <point x="1098.74" y="143.04" type="line" smooth="yes"/>
      <point x="1098.74" y="-148.96"/>
      <point x="975.11" y="-416.99"/>
      <point x="576.67" y="-416.99" type="curve" smooth="yes"/>
      <point x="437.7" y="-416.99"/>
      <point x="312.67" y="-387.99"/>
      <point x="188.33" y="-324.98" type="curve"/>
    </contour>
  </outline>
</glyph>
<glyph name="h" format="1">
  <advance width="1230.59"/>
  <unicode hex="0068"/>
  <outline>
    <contour>
      <point x="157.9" y="0.0" type="line"/>
      <point x="157.9" y="1472.57" type="line"/>
      <point x="370.14" y="1472.57" type="line"/>
      <point x="370.14" y="878.1" type="line"/>
      <point x="428.11" y="984.72"/>
      <point x="573.48" y="1052.0"/>
      <point x="701.31" y="1052.0" type="curve" smooth="yes"/>
      <point x="998.29" y="1052.0"/>
      <point x="1085.35" y="814.62"/>
      <point x="1085.35" y="598.48" type="curve" smooth="yes"/>
      <point x="1085.35" y="0.0" type="line"/>
      <point x="873.11" y="0.0" type="line"/>
      <point x="873.11" y="599.2" type="line" smooth="yes"/>
      <point x="873.11" y="798.53"/>
      <point x="807.79" y="879.81"/>
      <point x="668.28" y="879.81" type="curve" smooth="yes"/>
      <point x="516.73" y="879.81"/>
      <point x="370.14" y="757.9"/>
      <point x="370.14" y="620.65" type="curve" smooth="yes"/>
      <point x="370.14" y="0.0" type="line"/>
    </contour>
  </outline>
</glyph>
<glyph name="j" format="1">
  <advance width="555.26"/>
  <unicode hex="006A"/>
  <outline>
    <contour>
      <point x="69.01" y="-387.61" type="curve" smooth="yes"/>
      <point x="333.39" y="-387.61"/>
      <point x="406.55" y="-243.2"/>
      <point x="406.55" y="9.98" type="curve" smooth="yes"/>
      <point x="406.55" y="1026.0" type="line"/>
      <point x="193.56" y="1026.0" type="line"/>
      <point x="193.56" y="15.46" type="line" smooth="yes"/>
      <point x="193.56" y="-177.43"/>
      <point x="152.55" y="-228.49"/>
      <point x="45.46" y="-228.49" type="curve" smooth="yes"/>
      <point x="-19.61" y="-228.49"/>
      <point x="-81.99" y="-209.87"/>
      <point x="-81.99" y="-209.87" type="curve"/>
      <point x="-100.44" y="-364.92" type="line"/>
      <point x="-84.94" y="-368.95"/>
      <point x="-15.18" y="-387.61"/>
    </contour>
    <contour>
      <point x="193.56" y="1263.74" type="line"/>
      <point x="406.55" y="1263.74" type="line"/>
      <point x="406.55" y="1456.0" type="line"/>
      <point x="193.56" y="1456.0" type="line"/>
    </contour>
  </outline>
</glyph>
<glyph name="k" format="1">
  <advance width="1084.73"/>
  <unicode hex="006B"/>
  <outline>
    <contour>
      <point x="157.9" y="0.0" type="line"/>
      <point x="157.9" y="1472.57" type="line"/>
      <point x="370.14" y="1472.57" type="line"/>
      <point x="370.14" y="598.39" type="line"/>
      <point x="782.2" y="1026.0" type="line"/>
      <point x="1074.2" y="1026.0" type="line"/>
      <point x="567.32" y="535.3" type="line"/>
      <point x="1108.85" y="0.0" type="line"/>
      <point x="826.87" y="0.0" type="line"/>
      <point x="370.14" y="468.17" type="line"/>
      <point x="370.14" y="0.0" type="line"/>
    </contour>
  </outline>
</glyph>
<glyph name="m" format="1">
  <advance width="1859.33"/>
  <unicode hex="006D"/>
  <outline>
    <contour>
      <point x="169.51" y="0.0" type="line"/>
      <point x="169.51" y="722.36" type="line" smooth="yes"/>
      <point x="169.51" y="861.49"/>
      <point x="159.23" y="952.76"/>
      <point x="155.92" y="1026.0" type="curve"/>
      <point x="379.74" y="1026.0" type="line"/>
      <point x="379.74" y="874.22" type="line"/>
      <point x="431.91" y="983.62"/>
      <point x="561.38" y="1052.0"/>
      <point x="689.93" y="1052.0" type="curve" smooth="yes"/>
      <point x="824.51" y="1052.0"/>
      <point x="942.27" y="979.32"/>
      <point x="997.24" y="843.91" type="curve"/>
      <point x="1071.93" y="966.83"/>
      <point x="1192.16" y="1052.0"/>
      <point x="1352.19" y="1052.0" type="curve" smooth="yes"/>
      <point x="1594.27" y="1052.0"/>
      <point x="1713.89" y="887.48"/>
      <point x="1713.89" y="629.31" type="curve" smooth="yes"/>
      <point x="1713.89" y="0.0" type="line"/>
      <point x="1500.21" y="0.0" type="line"/>
      <point x="1500.21" y="611.45" type="line" smooth="yes"/>
      <point x="1500.21" y="760.0"/>
      <point x="1455.91" y="878.67"/>
      <point x="1331.26" y="878.67" type="curve" smooth="yes"/>
      <point x="1178.88" y="878.67"/>
      <point x="1050.97" y="739.15"/>
      <point x="1050.97" y="583.55" type="curve" smooth="yes"/>
      <point x="1050.97" y="0.0" type="line"/>
      <point x="837.29" y="0.0" type="line"/>
      <point x="837.29" y="630.17" type="line" smooth="yes"/>
      <point x="837.29" y="753.49"/>
      <point x="796.2" y="878.67"/>
      <point x="654.86" y="878.67" type="curve" smooth="yes"/>
      <point x="499.8" y="878.67"/>
      <point x="383.19" y="750.51"/>
      <point x="383.19" y="614.42" type="curve" smooth="yes"/>
      <point x="383.19" y="0.0" type="line"/>
    </contour>
  </outline>
</glyph>
<glyph name="n" format="1">
  <advance width="1234.61"/>
  <unicode hex="006E"/>
  <outline>
    <contour>
      <point x="169.26" y="0.0" type="line"/>
      <point x="169.26" y="696.59" type="line" smooth="yes"/>
      <point x="169.26" y="889.27"/>
      <point x="155.22" y="1026.0"/>
      <point x="155.22" y="1026.0" type="curve"/>
      <point x="378.15" y="1026.0" type="line"/>
      <point x="378.15" y="878.07" type="line"/>
      <point x="450.84" y="991.41"/>
      <point x="588.84" y="1052.0"/>
      <point x="710.69" y="1052.0" type="curve" smooth="yes"/>
      <point x="968.15" y="1052.0"/>
      <point x="1091.35" y="900.28"/>
      <point x="1091.35" y="570.1" type="curve" smooth="yes"/>
      <point x="1091.35" y="0.0" type="line"/>
      <point x="879.11" y="0.0" type="line"/>
      <point x="879.11" y="571.87" type="line" smooth="yes"/>
      <point x="879.11" y="775.39"/>
      <point x="835.05" y="879.81"/>
      <point x="668.63" y="879.81" type="curve" smooth="yes"/>
      <point x="531.27" y="879.81"/>
      <point x="381.83" y="756.74"/>
      <point x="381.5" y="630.56" type="curve"/>
      <point x="381.5" y="0.0" type="line"/>
    </contour>
  </outline>
</glyph>
<glyph name="o" format="1">
  <advance width="1269.44"/>
  <unicode hex="006F"/>
  <outline>
    <contour>
      <point x="637.37" y="149.52" type="curve" smooth="yes"/>
      <point x="847.64" y="149.52"/>
      <point x="943.84" y="306.88"/>
      <point x="943.84" y="513.68" type="curve" smooth="yes"/>
      <point x="943.84" y="724.49"/>
      <point x="842.96" y="879.81"/>
      <point x="636.05" y="879.81" type="curve" smooth="yes"/>
      <point x="428.48" y="879.81"/>
      <point x="325.6" y="724.49"/>
      <point x="325.6" y="513.02" type="curve" smooth="yes"/>
      <point x="325.6" y="306.55"/>
      <point x="424.79" y="149.52"/>
    </contour>
    <contour>
      <point x="638.06" y="-22.67" type="curve" smooth="yes"/>
      <point x="289.27" y="-22.67"/>
      <point x="103.36" y="209.13"/>
      <point x="103.36" y="512.34" type="curve" smooth="yes"/>
      <point x="103.36" y="821.56"/>
      <point x="293.62" y="1052.0"/>
      <point x="639.38" y="1052.0" type="curve" smooth="yes"/>
      <point x="987.19" y="1052.0"/>
      <point x="1166.08" y="822.9"/>
      <point x="1166.08" y="511.66" type="curve" smooth="yes"/>
      <point x="1166.08" y="211.47"/>
      <point x="981.5" y="-22.67"/>
    </contour>
  </outline>
</glyph>
<glyph name="p" format="1">
  <advance width="1265.05"/>
  <unicode hex="0070"/>
  <outline>
    <contour>
      <point x="169.93" y="-408.91" type="line"/>
      <point x="169.93" y="713.78" type="line" smooth="yes"/>
      <point x="169.93" y="799.93"/>
      <point x="162.24" y="921.64"/>
      <point x="155.9" y="1026.0" type="curve"/>
      <point x="380.16" y="1026.0" type="line"/>
      <point x="380.16" y="861.45" type="line"/>
      <point x="409.38" y="951.92"/>
      <point x="541.93" y="1052.0"/>
      <point x="707.42" y="1052.0" type="curve" smooth="yes"/>
      <point x="989.07" y="1052.0"/>
      <point x="1163.03" y="822.2"/>
      <point x="1163.03" y="525.66" type="curve" smooth="yes"/>
      <point x="1163.03" y="223.17"/>
      <point x="988.09" y="-22.67"/>
      <point x="701.04" y="-22.67" type="curve" smooth="yes"/>
      <point x="531.63" y="-22.67"/>
      <point x="405.73" y="77.08"/>
      <point x="380.16" y="153.25" type="curve"/>
      <point x="380.16" y="-408.91" type="line"/>
    </contour>
    <contour>
      <point x="658.94" y="149.52" type="curve" smooth="yes"/>
      <point x="849.6" y="149.52"/>
      <point x="940.79" y="308.2"/>
      <point x="940.79" y="516.98" type="curve" smooth="yes"/>
      <point x="940.79" y="725.81"/>
      <point x="846.24" y="879.81"/>
      <point x="660.92" y="879.81" type="curve" smooth="yes"/>
      <point x="471.31" y="879.81"/>
      <point x="372.12" y="722.51"/>
      <point x="372.12" y="508.07" type="curve" smooth="yes"/>
      <point x="372.12" y="304.9"/>
      <point x="466.63" y="149.52"/>
    </contour>
  </outline>
</glyph>
<glyph name="q" format="1">
  <advance width="1253.66"/>
  <unicode hex="0071"/>
  <outline>
    <contour>
      <point x="885.22" y="-408.91" type="line"/>
      <point x="885.22" y="120.74" type="line"/>
      <point x="818.44" y="45.13"/>
      <point x="711.8" y="-22.67"/>
      <point x="579.72" y="-22.67" type="curve" smooth="yes"/>
      <point x="272.57" y="-22.67"/>
      <point x="102.02" y="220.53"/>
      <point x="102.02" y="518.73" type="curve" smooth="yes"/>
      <point x="102.02" y="819.56"/>
      <point x="279.63" y="1052.0"/>
      <point x="584.7" y="1052.0" type="curve" smooth="yes"/>
      <point x="701.85" y="1052.0"/>
      <point x="813.82" y="996.43"/>
      <point x="886.56" y="897.79" type="curve"/>
      <point x="886.56" y="1026.0" type="line"/>
      <point x="1104.46" y="1026.0" type="line"/>
      <point x="1099.77" y="964.36"/>
      <point x="1095.45" y="823.05"/>
      <point x="1095.45" y="765.43" type="curve"/>
      <point x="1095.45" y="-408.91" type="line"/>
    </contour>
    <contour>
      <point x="606.77" y="149.52" type="curve" smooth="yes"/>
      <point x="801.06" y="149.52"/>
      <point x="893.26" y="309.19"/>
      <point x="893.26" y="522.59" type="curve" smooth="yes"/>
      <point x="893.26" y="727.13"/>
      <point x="796.38" y="879.81"/>
      <point x="610.4" y="879.81" type="curve" smooth="yes"/>
      <point x="421.12" y="879.81"/>
      <point x="324.26" y="724.16"/>
      <point x="324.26" y="512.36" type="curve" smooth="yes"/>
      <point x="324.26" y="306.55"/>
      <point x="415.78" y="149.52"/>
    </contour>
  </outline>
</glyph>
<glyph name="r" format="1">
  <advance width="804.18"/>
  <unicode hex="0072"/>
  <outline>
    <contour>
      <point x="171.93" y="0.0" type="line"/>
      <point x="171.93" y="771.63" type="line" smooth="yes"/>
      <point x="171.93" y="848.01"/>
      <point x="157.23" y="1026.0"/>
      <point x="157.23" y="1026.0" type="curve"/>
      <point x="382.16" y="1026.0" type="line"/>
      <point x="382.16" y="876.76" type="line"/>
      <point x="448.55" y="985.69"/>
      <point x="535.47" y="1051.34"/>
      <point x="647.11" y="1051.34" type="curve" smooth="yes"/>
      <point x="680.75" y="1051.34"/>
      <point x="716.08" y="1046.67"/>
      <point x="751.76" y="1037.33" type="curve"/>
      <point x="751.76" y="850.13" type="line"/>
      <point x="717.02" y="861.16"/>
      <point x="675.02" y="869.48"/>
      <point x="632.73" y="869.48" type="curve" smooth="yes"/>
      <point x="489.15" y="869.48"/>
      <point x="384.17" y="766.28"/>
      <point x="384.17" y="575.37" type="curve" smooth="yes"/>
      <point x="384.17" y="0.0" type="line"/>
    </contour>
  </outline>
</glyph>
<glyph name="s" format="1">
  <advance width="1000.26"/>
  <unicode hex="0073"/>
  <outline>
    <contour>
      <point x="534.6" y="-22.69" type="curve" smooth="yes"/>
      <point x="325.23" y="-22.69"/>
      <point x="178.29" y="56.68"/>
      <point x="118.93" y="103.45" type="curve"/>
      <point x="175.9" y="262.4" type="line"/>
      <point x="248.84" y="208.22"/>
      <point x="384.88" y="151.33"/>
      <point x="516.39" y="151.33" type="curve" smooth="yes"/>
      <point x="622.08" y="151.33"/>
      <point x="705.17" y="183.02"/>
      <point x="705.17" y="284.35" type="curve" smooth="yes"/>
      <point x="705.17" y="361.81"/>
      <point x="640.95" y="384.02"/>
      <point x="471.58" y="441.81" type="curve"/>
      <point x="286.57" y="505.33"/>
      <point x="125.45" y="557.57"/>
      <point x="125.45" y="760.65" type="curve" smooth="yes"/>
      <point x="125.45" y="969.31"/>
      <point x="313.86" y="1050.62"/>
      <point x="504.56" y="1050.62" type="curve" smooth="yes"/>
      <point x="662.71" y="1050.62"/>
      <point x="788.55" y="1006.87"/>
      <point x="866.5" y="957.03" type="curve"/>
      <point x="807.84" y="805.6" type="line"/>
      <point x="755.51" y="832.61"/>
      <point x="638.3" y="879.36"/>
      <point x="529.83" y="879.36" type="curve" smooth="yes"/>
      <point x="413.26" y="879.36"/>
      <point x="337.92" y="838.33"/>
      <point x="338.61" y="765.27" type="curve" smooth="yes"/>
      <point x="339.3" y="686.46"/>
      <point x="395.5" y="673.94"/>
      <point x="576.24" y="610.36" type="curve" smooth="yes"/>
      <point x="766.11" y="543.15"/>
      <point x="908.88" y="491.98"/>
      <point x="908.88" y="287.45" type="curve" smooth="yes"/>
      <point x="908.88" y="56.48"/>
      <point x="714.01" y="-22.69"/>
    </contour>
  </outline>
</glyph>
<glyph name="t" format="1">
  <advance width="789.06"/>
  <unicode hex="0074"/>
  <outline>
    <contour>
      <point x="713.68" y="0.69" type="line"/>
      <point x="631.49" y="0.69" type="line"/>
      <point x="350.75" y="0.69"/>
      <point x="225.96" y="65.19"/>
      <point x="225.96" y="364.25" type="curve" smooth="yes"/>
      <point x="225.96" y="883.81" type="line"/>
      <point x="18.82" y="883.81" type="line"/>
      <point x="18.82" y="1026.0" type="line"/>
      <point x="231.48" y="1026.0" type="line"/>
      <point x="231.48" y="1279.37" type="line"/>
      <point x="438.95" y="1341.55" type="line"/>
      <point x="438.95" y="1026.0" type="line"/>
      <point x="707.68" y="1026.0" type="line"/>
      <point x="707.68" y="883.81" type="line"/>
      <point x="438.95" y="883.81" type="line"/>
      <point x="438.95" y="352.11" type="line" smooth="yes"/>
      <point x="438.95" y="185.98"/>
      <point x="483.06" y="165.26"/>
      <point x="713.68" y="165.26" type="curve"/>
    </contour>
  </outline>
</glyph>
<glyph name="u" format="1">
  <advance width="1211.84"/>
  <unicode hex="0075"/>
  <outline>
    <contour>
      <point x="541.23" y="-22.67" type="curve" smooth="yes"/>
      <point x="268.05" y="-22.67"/>
      <point x="143.92" y="153.18"/>
      <point x="143.92" y="384.94" type="curve" smooth="yes"/>
      <point x="143.92" y="1026.0" type="line"/>
      <point x="354.82" y="1026.0" type="line"/>
      <point x="354.82" y="386.62" type="line" smooth="yes"/>
      <point x="354.82" y="226.09"/>
      <point x="438.79" y="149.52"/>
      <point x="581.63" y="149.52" type="curve" smooth="yes"/>
      <point x="746.5" y="149.52"/>
      <point x="837.05" y="243.34"/>
      <point x="837.05" y="414.31" type="curve" smooth="yes"/>
      <point x="837.05" y="1026.0" type="line"/>
      <point x="1049.29" y="1026.0" type="line"/>
      <point x="1049.29" y="263.42" type="line" smooth="yes"/>
      <point x="1049.29" y="194.85"/>
      <point x="1057.32" y="27.72"/>
      <point x="1059.3" y="0.0" type="curve"/>
      <point x="840.72" y="0.0" type="line"/>
      <point x="837.05" y="158.29" type="line"/>
      <point x="802.2" y="84.46"/>
      <point x="712.95" y="-22.67"/>
    </contour>
  </outline>
</glyph>
<glyph name="v" format="1">
  <advance width="1084.96"/>
  <unicode hex="0076"/>
  <outline>
    <contour>
      <point x="443.05" y="0.0" type="line"/>
      <point x="12.37" y="1026.0" type="line"/>
      <point x="246.32" y="1026.0" type="line"/>
      <point x="473.75" y="432.83" type="line" smooth="yes"/>
      <point x="550.82" y="227.0" type="line"/>
      <point x="623.89" y="432.83" type="line"/>
      <point x="844.98" y="1026.0" type="line"/>
      <point x="1072.92" y="1026.0" type="line"/>
      <point x="641.23" y="0.0" type="line"/>
    </contour>
  </outline>
</glyph>
<glyph name="w" format="1">
  <advance width="1655.22"/>
  <unicode hex="0077"/>
  <outline>
    <contour>
      <point x="564.87" y="0.0" type="line"/>
      <point x="783.74" y="620.26" type="line"/>
      <point x="832.08" y="757.93" type="line"/>
      <point x="877.08" y="619.27" type="line"/>
      <point x="1082.96" y="0.0" type="line"/>
      <point x="1270.42" y="0.0" type="line"/>
      <point x="1632.6" y="1026.0" type="line"/>
      <point x="1431.07" y="1026.0" type="line"/>
      <point x="1230.1" y="372.76" type="line"/>
      <point x="1192.73" y="252.67" type="line"/>
      <point x="1153.03" y="375.11" type="line" smooth="yes"/>
      <point x="943.19" y="1026.0" type="line"/>
      <point x="748.38" y="1026.0" type="line"/>
      <point x="532.9" y="386.55" type="line"/>
      <point x="488.5" y="254.34" type="line"/>
      <point x="444.76" y="393.21" type="line"/>
      <point x="248.21" y="1026.0" type="line"/>
      <point x="22.62" y="1026.0" type="line"/>
      <point x="376.74" y="0.0" type="line"/>
    </contour>
  </outline>
</glyph>
<glyph name="x" format="1">
  <advance width="1052.99"/>
  <unicode hex="0078"/>
  <outline>
    <contour>
      <point x="26.51" y="0.0" type="line"/>
      <point x="408.05" y="506.34" type="line"/>
      <point x="46.99" y="1026.62" type="line"/>
      <point x="282.88" y="1026.0" type="line"/>
      <point x="528.48" y="667.33" type="line"/>
      <point x="796.53" y="1026.0" type="line"/>
      <point x="1020.38" y="1026.0" type="line"/>
      <point x="649.32" y="528.28" type="line"/>
      <point x="1025.86" y="0.0" type="line"/>
      <point x="791.28" y="0.0" type="line"/>
      <point x="529.27" y="368.22" type="line"/>
      <point x="253.12" y="0.0" type="line"/>
    </contour>
  </outline>
</glyph>
<glyph name="y" format="1">
  <advance width="1085.21"/>
  <unicode hex="0079"/>
  <outline>
    <contour>
      <point x="229.49" y="-438.38" type="curve"/>
      <point x="141.05" y="-294.22" type="line"/>
      <point x="331.34" y="-226.19"/>
      <point x="415.36" y="-137.32"/>
      <point x="448.02" y="-33.62" type="curve" smooth="yes"/>
      <point x="463.01" y="16.05" type="line"/>
      <point x="37.28" y="1026.0" type="line"/>
      <point x="257.86" y="1026.0" type="line"/>
      <point x="566.12" y="241.99" type="line"/>
      <point x="845.63" y="1026.0" type="line"/>
      <point x="1060.55" y="1026.0" type="line"/>
      <point x="645.21" y="-55.34" type="line" smooth="yes"/>
      <point x="565.49" y="-258.8"/>
      <point x="411.72" y="-388.03"/>
    </contour>
  </outline>
</glyph>
<glyph name="z" format="1">
  <advance width="981.77"/>
  <unicode hex="007A"/>
  <outline>
    <contour>
      <point x="98.35" y="0.0" type="line"/>
      <point x="98.35" y="113.12" type="line"/>
      <point x="610.8" y="854.82" type="line"/>
      <point x="113.75" y="854.82" type="line"/>
      <point x="113.75" y="1026.0" type="line"/>
      <point x="885.45" y="1026.0" type="line"/>
      <point x="885.45" y="914.88" type="line"/>
      <point x="371.32" y="170.18" type="line"/>
      <point x="908.14" y="170.18" type="line"/>
      <point x="908.14" y="0.0" type="line"/>
    </contour>
  </outline>
</glyph>
<glyph name="braceleft" format="1">
  <advance width="676.17"/>
  <unicode hex="007B"/>
  <outline>
    <contour>
      <point x="608.37" y="-195.71" type="line"/>
      <point x="330.58" y="-193.07"/>
      <point x="226.37" y="-71.48"/>
      <point x="226.37" y="131.91" type="curve" smooth="yes"/>
      <point x="226.37" y="362.75" type="line" smooth="yes"/>
      <point x="226.37" y="502.83"/>
      <point x="178.07" y="571.58"/>
      <point x="58.24" y="577.19" type="curve"/>
      <point x="58.24" y="730.01" type="line"/>
      <point x="167.53" y="733.64"/>
      <point x="225.37" y="801.2"/>
      <point x="225.7" y="923.81" type="curve"/>
      <point x="225.7" y="1154.7" type="line" smooth="yes"/>
      <point x="225.7" y="1350.04"/>
      <point x="314.09" y="1500.89"/>
      <point x="610.38" y="1500.89" type="curve"/>
      <point x="610.38" y="1334.69" type="line"/>
      <point x="483.6" y="1333.7"/>
      <point x="442.96" y="1257.51"/>
      <point x="442.96" y="1116.44" type="curve" smooth="yes"/>
      <point x="442.96" y="866.97" type="line" smooth="yes"/>
      <point x="442.96" y="751.51"/>
      <point x="362.74" y="680.91"/>
      <point x="275.56" y="648.24" type="curve"/>
      <point x="369.36" y="603.56"/>
      <point x="442.96" y="520.5"/>
      <point x="442.96" y="390.3" type="curve" smooth="yes"/>
      <point x="442.96" y="138.13" type="line" smooth="yes"/>
      <point x="442.96" y="-6.66"/>
      <point x="516.2" y="-29.51"/>
      <point x="608.37" y="-30.18" type="curve"/>
    </contour>
  </outline>
</glyph>
<glyph name="bar" format="1">
  <advance width="695.68"/>
  <unicode hex="007C"/>
  <outline>
    <contour>
      <point x="245.88" y="-469.61" type="line"/>
      <point x="245.88" y="1522.23" type="line"/>
      <point x="449.8" y="1522.23" type="line"/>
      <point x="449.8" y="-469.61" type="line"/>
    </contour>
  </outline>
</glyph>
<glyph name="braceright" format="1">
  <advance width="723.07"/>
  <unicode hex="007D"/>
  <outline>
    <contour>
      <point x="111.03" y="936.59" type="curve"/>
      <point x="327.44" y="936.59"/>
      <point x="366.97" y="879.68"/>
      <point x="366.97" y="739.65" type="curve"/>
      <point x="401.29" y="740.64"/>
      <point x="438.58" y="609.13"/>
      <point x="438.58" y="651.04" type="curve" smooth="yes"/>
      <point x="438.58" y="551.88"/>
      <point x="468.73" y="617.77"/>
      <point x="537.74" y="617.77" type="curve" smooth="yes"/>
      <point x="537.74" y="669.58"/>
      <point x="571.73" y="584.74"/>
      <point x="610.67" y="595.3" type="curve"/>
      <point x="496.1" y="609.16"/>
      <point x="439.25" y="616.51"/>
      <point x="439.25" y="567.82" type="curve" smooth="yes"/>
      <point x="439.25" y="492.36" type="line" smooth="yes"/>
      <point x="439.25" y="422.75"/>
      <point x="368.02" y="327.01"/>
      <point x="109.02" y="327.01" type="curve"/>
      <point x="109.02" y="493.21" type="line"/>
      <point x="262.86" y="490.57"/>
      <point x="330.89" y="531.12"/>
      <point x="330.89" y="566.92" type="curve" smooth="yes"/>
      <point x="330.89" y="634.23" type="line" smooth="yes"/>
      <point x="330.89" y="656.96"/>
      <point x="395.27" y="660.57"/>
      <point x="494.33" y="677.07" type="curve"/>
      <point x="444.75" y="707.89"/>
      <point x="399.86" y="705.15"/>
      <point x="399.86" y="805.65" type="curve"/>
      <point x="360.92" y="802.02"/>
      <point x="331.22" y="952.88"/>
      <point x="330.89" y="908.66" type="curve"/>
      <point x="330.89" y="991.74"/>
      <point x="288.01" y="913.61"/>
      <point x="237.09" y="914.28" type="curve" smooth="yes"/>
      <point x="237.09" y="850.26"/>
      <point x="189.57" y="936.59"/>
    </contour>
  </outline>
</glyph>
<glyph name="asciitilde" format="1">
  <advance width="1369.72"/>
  <unicode hex="007E"/>
  <outline>
    <contour>
      <point x="309.82" y="356.02" type="curve"/>
      <point x="147.9" y="433.79" type="line"/>
      <point x="177.59" y="581.45"/>
      <point x="286.36" y="710.19"/>
      <point x="460.95" y="710.19" type="curve" smooth="yes"/>
      <point x="544.54" y="710.19"/>
      <point x="647.65" y="664.77"/>
      <point x="735.48" y="625.87" type="curve" smooth="yes"/>
      <point x="761.21" y="615.95"/>
      <point x="868.95" y="566.39"/>
      <point x="903.84" y="566.39" type="curve" smooth="yes"/>
      <point x="972.21" y="566.39"/>
      <point x="1023.76" y="653.39"/>
      <point x="1045.07" y="744.39" type="curve"/>
      <point x="1221.82" y="690.21" type="line"/>
      <point x="1183.75" y="518.1"/>
      <point x="1073.95" y="391.37"/>
      <point x="904.91" y="391.37" type="curve" smooth="yes"/>
      <point x="842.15" y="391.37"/>
      <point x="758.08" y="427.82"/>
      <point x="676.08" y="467.03" type="curve" smooth="yes"/>
      <point x="650.66" y="477.26"/>
      <point x="516.6" y="536.86"/>
      <point x="466.02" y="536.86" type="curve" smooth="yes"/>
      <point x="381.65" y="536.86"/>
      <point x="333.2" y="450.71"/>
    </contour>
  </outline>
</glyph>
<glyph name="cent" format="1">
  <advance width="1050.88"/>
  <unicode hex="00A2"/>
  <outline>
    <contour>
      <point x="576.9" y="-226.08" type="line"/>
      <point x="576.9" y="1250.62" type="line"/>
      <point x="683.7" y="1250.62" type="line"/>
      <point x="683.7" y="-226.08" type="line"/>
    </contour>
    <component base="c"/>
  </outline>
</glyph>
<glyph name="sterling" format="1">
  <advance width="1225.86"/>
  <unicode hex="00A3"/>
  <outline>
    <contour>
      <point x="148.34" y="0.0" type="line"/>
      <point x="148.34" y="165.47" type="line"/>
      <point x="241.55" y="241.11"/>
      <point x="332.35" y="355.79"/>
      <point x="332.35" y="604.12" type="curve" smooth="yes"/>
      <point x="332.35" y="670.57" type="line"/>
      <point x="144.04" y="670.57" type="line"/>
      <point x="144.04" y="829.42" type="line"/>
      <point x="330.01" y="829.42" type="line"/>
      <point x="330.01" y="919.15" type="line" smooth="yes"/>
      <point x="330.01" y="1230.23"/>
      <point x="417.3" y="1481.35"/>
      <point x="793.49" y="1481.35" type="curve" smooth="yes"/>
      <point x="927.46" y="1481.35"/>
      <point x="1028.16" y="1454.06"/>
      <point x="1101.97" y="1408.02" type="curve"/>
      <point x="1046.93" y="1245.49" type="line"/>
      <point x="985.44" y="1276.87"/>
      <point x="904.49" y="1306.83"/>
      <point x="805.87" y="1305.51" type="curve" smooth="yes"/>
      <point x="622.27" y="1303.2"/>
      <point x="546.24" y="1196.98"/>
      <point x="546.24" y="967.87" type="curve" smooth="yes"/>
      <point x="546.24" y="829.42" type="line"/>
      <point x="897.82" y="829.42" type="line"/>
      <point x="897.82" y="670.57" type="line"/>
      <point x="546.9" y="670.57" type="line"/>
      <point x="546.9" y="601.11" type="line" smooth="yes"/>
      <point x="546.9" y="394.28"/>
      <point x="500.39" y="247.3"/>
      <point x="442.35" y="177.18" type="curve"/>
      <point x="1115.28" y="177.18" type="line"/>
      <point x="1115.28" y="0.0" type="line"/>
    </contour>
  </outline>
</glyph>
<glyph name="currency" format="1">
  <advance width="1218.0"/>
  <unicode hex="00A4"/>
  <outline>
    <contour>
      <point x="1048.0" y="543.66" type="line"/>
      <point x="862.0" y="729.66" type="line"/>
      <point x="794.0" y="673.66"/>
      <point x="706.0" y="639.66"/>
      <point x="610.0" y="639.66" type="curve" smooth="yes"/>
      <point x="514.0" y="639.66"/>
      <point x="426.0" y="673.66"/>
      <point x="358.0" y="730.66" type="curve"/>
      <point x="171.0" y="543.66" type="line"/>
      <point x="120.0" y="594.66" type="line"/>
      <point x="307.0" y="781.66" type="line"/>
      <point x="252.0" y="847.66"/>
      <point x="219.0" y="931.66"/>
      <point x="219.0" y="1024.66" type="curve" smooth="yes"/>
      <point x="219.0" y="1121.66"/>
      <point x="255.0" y="1209.66"/>
      <point x="314.0" y="1276.66" type="curve"/>
      <point x="119.0" y="1471.66" type="line"/>
      <point x="170.0" y="1522.66" type="line"/>
      <point x="367.0" y="1326.66" type="line"/>
      <point x="433.0" y="1378.66"/>
      <point x="518.0" y="1409.66"/>
      <point x="610.0" y="1409.66" type="curve" smooth="yes"/>
      <point x="702.0" y="1409.66"/>
      <point x="786.0" y="1378.66"/>
      <point x="853.0" y="1327.66" type="curve"/>
      <point x="1048.0" y="1522.66" type="line"/>
      <point x="1099.0" y="1471.66" type="line"/>
      <point x="906.0" y="1278.66" type="line"/>
      <point x="966.0" y="1210.66"/>
      <point x="1002.0" y="1122.66"/>
      <point x="1002.0" y="1024.66" type="curve" smooth="yes"/>
      <point x="1002.0" y="931.66"/>
      <point x="969.0" y="846.66"/>
      <point x="913.0" y="779.66" type="curve"/>
      <point x="1099.0" y="594.66" type="line"/>
    </contour>
    <contour>
      <point x="609.0" y="710.66" type="curve" smooth="yes"/>
      <point x="783.0" y="710.66"/>
      <point x="911.0" y="848.65"/>
      <point x="911.0" y="1022.65" type="curve" smooth="yes"/>
      <point x="911.0" y="1196.65"/>
      <point x="783.0" y="1331.66"/>
      <point x="609.0" y="1331.66" type="curve" smooth="yes"/>
      <point x="435.0" y="1331.66"/>
      <point x="307.0" y="1196.65"/>
      <point x="307.0" y="1022.65" type="curve" smooth="yes"/>
      <point x="307.0" y="848.65"/>
      <point x="435.0" y="710.66"/>
    </contour>
  </outline>
</glyph>
<glyph name="yen" format="1">
  <advance width="1246.89"/>
  <unicode hex="00A5"/>
  <outline>
    <contour>
      <point x="1079.15" y="265.73" type="line"/>
      <point x="162.61" y="265.73" type="line"/>
      <point x="162.61" y="417.16" type="line"/>
      <point x="552.11" y="417.16" type="line"/>
      <point x="552.11" y="543.29" type="line"/>
      <point x="162.61" y="543.29" type="line"/>
      <point x="162.61" y="699.4" type="line"/>
      <point x="1077.81" y="699.4" type="line"/>
      <point x="1077.81" y="543.29" type="line"/>
      <point x="684.88" y="543.29" type="line"/>
      <point x="684.88" y="417.16" type="line"/>
      <point x="1079.15" y="417.16" type="line"/>
    </contour>
    <component base="Y"/>
  </outline>
</glyph>
<glyph name="brokenbar" format="1">
  <advance width="500.0"/>
  <unicode hex="00A6"/>
  <outline>
    <contour>
      <point x="137.85" y="-470.23" type="line"/>
      <point x="137.85" y="405.73" type="line"/>
      <point x="341.75" y="405.73" type="line"/>
      <point x="341.75" y="-470.23" type="line"/>
    </contour>
    <contour>
      <point x="136.51" y="612.68" type="line"/>
      <point x="136.51" y="1522.89" type="line"/>
      <point x="340.41" y="1522.89" type="line"/>
      <point x="340.41" y="612.68" type="line"/>
    </contour>
  </outline>
</glyph>
<glyph name="section" format="1">
  <advance width="1084.13"/>
  <unicode hex="00A7"/>
  <outline>
    <contour>
      <point x="630.07" y="558.53" type="curve"/>
      <point x="667.6" y="589.15"/>
      <point x="702.15" y="634.7"/>
      <point x="702.15" y="694.27" type="curve" smooth="yes"/>
      <point x="702.15" y="790.17"/>
      <point x="598.1" y="815.46"/>
      <point x="491.65" y="866.83" type="curve"/>
      <point x="454.47" y="844.91"/>
      <point x="387.92" y="794.95"/>
      <point x="387.92" y="729.69" type="curve" smooth="yes"/>
      <point x="387.92" y="649.11"/>
      <point x="488.04" y="619.89"/>
    </contour>
    <contour>
      <point x="508.76" y="-69.28" type="curve" smooth="yes"/>
      <point x="407.04" y="-69.28"/>
      <point x="295.36" y="-50.27"/>
      <point x="196.28" y="-11.92" type="curve"/>
      <point x="195.62" y="164.63" type="line"/>
      <point x="290.27" y="124.32"/>
      <point x="408.0" y="99.29"/>
      <point x="500.4" y="99.29" type="curve" smooth="yes"/>
      <point x="615.56" y="99.29"/>
      <point x="692.53" y="152.81"/>
      <point x="692.53" y="237.13" type="curve"/>
      <point x="693.19" y="305.32"/>
      <point x="615.3" y="340.6"/>
      <point x="396.89" y="442.99" type="curve" smooth="yes"/>
      <point x="262.94" y="504.64"/>
      <point x="179.95" y="591.36"/>
      <point x="179.95" y="712.33" type="curve" smooth="yes"/>
      <point x="179.95" y="813.6"/>
      <point x="250.5" y="899.26"/>
      <point x="344.08" y="949.31" type="curve"/>
      <point x="260.14" y="1008.64"/>
      <point x="203.94" y="1081.61"/>
      <point x="203.94" y="1191.58" type="curve" smooth="yes"/>
      <point x="203.94" y="1389.31"/>
      <point x="379.29" y="1484.63"/>
      <point x="589.96" y="1484.63" type="curve" smooth="yes"/>
      <point x="681.32" y="1484.63"/>
      <point x="769.44" y="1469.3"/>
      <point x="859.16" y="1439.94" type="curve"/>
      <point x="859.16" y="1270.43" type="line"/>
      <point x="798.17" y="1290.05"/>
      <point x="695.18" y="1323.77"/>
      <point x="611.08" y="1323.77" type="curve" smooth="yes"/>
      <point x="513.2" y="1323.77"/>
      <point x="428.24" y="1282.53"/>
      <point x="428.24" y="1201.61" type="curve" smooth="yes"/>
      <point x="428.24" y="1133.0"/>
      <point x="498.97" y="1077.33"/>
      <point x="650.89" y="1009.35" type="curve" smooth="yes"/>
      <point x="798.83" y="938.67"/>
      <point x="923.51" y="865.68"/>
      <point x="923.51" y="721.67" type="curve" smooth="yes"/>
      <point x="923.51" y="621.39"/>
      <point x="859.25" y="542.08"/>
      <point x="772.3" y="479.73" type="curve"/>
      <point x="857.58" y="432.74"/>
      <point x="916.5" y="353.42"/>
      <point x="916.5" y="244.12" type="curve" smooth="yes"/>
      <point x="916.5" y="34.37"/>
      <point x="730.13" y="-69.28"/>
    </contour>
  </outline>
</glyph>
<glyph name="dieresis" format="1">
  <advance width="743.0"/>
  <unicode hex="00A8"/>
  <outline>
    <contour>
      <point x="60.35" y="1150.17" type="line"/>
      <point x="60.35" y="1351.36" type="line"/>
      <point x="272.59" y="1351.36" type="line"/>
      <point x="272.59" y="1150.17" type="line"/>
    </contour>
    <contour>
      <point x="469.4" y="1150.17" type="line"/>
      <point x="469.4" y="1351.36" type="line"/>
      <point x="680.97" y="1351.36" type="line"/>
      <point x="680.97" y="1150.17" type="line"/>
    </contour>
  </outline>
</glyph>
<glyph name="copyright" format="1">
  <advance width="1721.27"/>
  <unicode hex="00A9"/>
  <outline>
    <contour>
      <point x="881.1" y="282.83" type="curve" smooth="yes"/>
      <point x="609.85" y="282.83"/>
      <point x="445.27" y="475.98"/>
      <point x="445.27" y="722.83" type="curve" smooth="yes"/>
      <point x="445.27" y="984.82"/>
      <point x="616.54" y="1171.48"/>
      <point x="882.27" y="1171.48" type="curve" smooth="yes"/>
      <point x="1003.83" y="1171.48"/>
      <point x="1103.59" y="1134.72"/>
      <point x="1171.73" y="1064.82" type="curve"/>
      <point x="1109.55" y="949.67" type="line"/>
      <point x="1059.31" y="993.29"/>
      <point x="986.21" y="1028.12"/>
      <point x="896.93" y="1028.12" type="curve" smooth="yes"/>
      <point x="740.27" y="1028.12"/>
      <point x="628.67" y="922.01"/>
      <point x="628.67" y="723.14" type="curve" smooth="yes"/>
      <point x="628.67" y="542.98"/>
      <point x="730.25" y="425.88"/>
      <point x="897.59" y="425.88" type="curve" smooth="yes"/>
      <point x="1000.08" y="425.88"/>
      <point x="1075.97" y="470.44"/>
      <point x="1119.34" y="503.95" type="curve"/>
      <point x="1174.38" y="375.9" type="line"/>
      <point x="1090.27" y="314.38"/>
      <point x="998.41" y="282.83"/>
    </contour>
    <contour>
      <point x="860.48" y="1483.62" type="curve" smooth="yes"/>
      <point x="445.55" y="1483.62"/>
      <point x="106.62" y="1144.69"/>
      <point x="106.62" y="729.76" type="curve" smooth="yes"/>
      <point x="106.62" y="314.83"/>
      <point x="445.55" y="-24.79"/>
      <point x="860.48" y="-24.79" type="curve" smooth="yes"/>
      <point x="1275.41" y="-24.79"/>
      <point x="1614.65" y="314.83"/>
      <point x="1614.65" y="729.76" type="curve" smooth="yes"/>
      <point x="1614.65" y="1144.69"/>
      <point x="1275.41" y="1483.62"/>
    </contour>
    <contour>
      <point x="860.1" y="82.56" type="curve" smooth="yes"/>
      <point x="509.69" y="82.56"/>
      <point x="230.66" y="376.35"/>
      <point x="230.66" y="726.45" type="curve" smooth="yes"/>
      <point x="230.66" y="1076.86"/>
      <point x="509.69" y="1370.65"/>
      <point x="860.1" y="1370.65" type="curve" smooth="yes"/>
      <point x="1209.51" y="1370.65"/>
      <point x="1489.23" y="1076.86"/>
      <point x="1489.23" y="726.45" type="curve" smooth="yes"/>
      <point x="1489.23" y="376.35"/>
      <point x="1209.51" y="82.56"/>
    </contour>
  </outline>
</glyph>
<glyph name="ordfeminine" format="1">
  <advance width="826.34"/>
  <unicode hex="00AA"/>
  <outline>
    <contour>
      <point x="339.73" y="741.4" type="curve" smooth="yes"/>
      <point x="456.67" y="741.4"/>
      <point x="531.08" y="805.72"/>
      <point x="556.35" y="865.13" type="curve"/>
      <point x="568.25" y="768.37" type="line"/>
      <point x="727.92" y="768.37" type="line"/>
      <point x="723.99" y="814.11"/>
      <point x="720.92" y="838.59"/>
      <point x="719.54" y="911.55" type="curve" smooth="yes"/>
      <point x="718.85" y="953.64"/>
      <point x="718.78" y="1109.73"/>
      <point x="718.78" y="1206.33" type="curve"/>
      <point x="718.78" y="1408.62"/>
      <point x="583.74" y="1478.0"/>
      <point x="427.46" y="1478.0" type="curve" smooth="yes"/>
      <point x="252.97" y="1478.0"/>
      <point x="132.59" y="1409.62"/>
      <point x="132.59" y="1409.62" type="curve"/>
      <point x="181.7" y="1287.02" type="line"/>
      <point x="181.7" y="1287.02"/>
      <point x="300.53" y="1340.33"/>
      <point x="411.8" y="1340.33" type="curve" smooth="yes"/>
      <point x="499.03" y="1340.33"/>
      <point x="548.45" y="1302.99"/>
      <point x="548.45" y="1201.1" type="curve"/>
      <point x="548.45" y="1165.13" type="line"/>
      <point x="372.69" y="1165.13" type="line" smooth="yes"/>
      <point x="188.28" y="1165.13"/>
      <point x="98.42" y="1086.13"/>
      <point x="98.42" y="953.23" type="curve" smooth="yes"/>
      <point x="98.42" y="816.88"/>
      <point x="208.77" y="741.4"/>
    </contour>
    <contour>
      <point x="354.04" y="858.34" type="curve" smooth="yes"/>
      <point x="297.12" y="858.34"/>
      <point x="249.88" y="893.2"/>
      <point x="249.88" y="955.47" type="curve" smooth="yes"/>
      <point x="249.88" y="1064.74"/>
      <point x="330.59" y="1067.26"/>
      <point x="547.07" y="1067.26" type="curve"/>
      <point x="547.07" y="1066.57"/>
      <point x="547.07" y="1049.16"/>
      <point x="547.07" y="1048.47" type="curve" smooth="yes"/>
      <point x="547.07" y="924.74"/>
      <point x="451.16" y="858.34"/>
    </contour>
  </outline>
</glyph>
<glyph name="guillemotleft" format="1">
  <advance width="1143.89"/>
  <unicode hex="00AB"/>
  <outline>
    <contour>
      <point x="405.4" y="164.62" type="line"/>
      <point x="131.71" y="541.99" type="line"/>
      <point x="411.07" y="919.68" type="line"/>
      <point x="590.21" y="919.68" type="line"/>
      <point x="346.58" y="541.32" type="line"/>
      <point x="582.21" y="164.62" type="line"/>
    </contour>
    <contour>
      <point x="840.11" y="164.62" type="line"/>
      <point x="566.42" y="541.99" type="line"/>
      <point x="845.78" y="919.68" type="line"/>
      <point x="1024.92" y="919.68" type="line"/>
      <point x="781.29" y="541.32" type="line"/>
      <point x="1016.92" y="164.62" type="line"/>
    </contour>
  </outline>
</glyph>
<glyph name="logicalnot" format="1">
  <advance width="1460.64"/>
  <unicode hex="00AC"/>
  <outline>
    <contour>
      <point x="1042.35" y="227.95" type="line"/>
      <point x="1042.35" y="630.19" type="line"/>
      <point x="181.87" y="630.19" type="line"/>
      <point x="181.87" y="807.38" type="line"/>
      <point x="1239.92" y="807.38" type="line"/>
      <point x="1239.92" y="227.95" type="line"/>
    </contour>
  </outline>
</glyph>
<glyph name="uni00AD" format="1">
  <advance width="728.0"/>
  <unicode hex="00AD"/>
  <outline>
    <contour>
      <point x="55.55" y="1191.71" type="line"/>
      <point x="55.22" y="1350.5" type="line"/>
      <point x="657.04" y="1350.5" type="line"/>
      <point x="657.37" y="1191.71" type="line"/>
    </contour>
  </outline>
</glyph>
<glyph name="registered" format="1">
  <advance width="1721.61"/>
  <unicode hex="00AE"/>
  <outline>
    <contour>
      <point x="860.64" y="1483.66" type="curve" smooth="yes"/>
      <point x="445.65" y="1483.66"/>
      <point x="106.66" y="1144.67"/>
      <point x="106.66" y="729.68" type="curve" smooth="yes"/>
      <point x="106.66" y="314.69"/>
      <point x="445.65" y="-24.97"/>
      <point x="860.64" y="-24.97" type="curve" smooth="yes"/>
      <point x="1275.63" y="-24.97"/>
      <point x="1614.95" y="314.69"/>
      <point x="1614.95" y="729.68" type="curve" smooth="yes"/>
      <point x="1614.95" y="1144.67"/>
      <point x="1275.63" y="1483.66"/>
    </contour>
    <contour>
      <point x="860.3" y="82.08" type="curve" smooth="yes"/>
      <point x="509.67" y="82.08"/>
      <point x="230.38" y="376.05"/>
      <point x="230.38" y="726.35" type="curve" smooth="yes"/>
      <point x="230.38" y="1076.98"/>
      <point x="509.67" y="1370.95"/>
      <point x="860.3" y="1370.95" type="curve" smooth="yes"/>
      <point x="1209.93" y="1370.95"/>
      <point x="1489.89" y="1076.98"/>
      <point x="1489.89" y="726.35" type="curve" smooth="yes"/>
      <point x="1489.89" y="376.05"/>
      <point x="1209.93" y="82.08"/>
    </contour>
    <contour>
      <point x="718.44" y="781.71" type="line"/>
      <point x="718.44" y="1032.47" type="line"/>
      <point x="831.08" y="1032.47" type="line" smooth="yes"/>
      <point x="1003.23" y="1032.47"/>
      <point x="1043.83" y="1018.83"/>
      <point x="1043.83" y="905.93" type="curve" smooth="yes"/>
      <point x="1043.83" y="803.36"/>
      <point x="966.19" y="781.71"/>
      <point x="824.34" y="781.71" type="curve" smooth="yes"/>
    </contour>
    <contour>
      <point x="719.1" y="283.05" type="line"/>
      <point x="719.1" y="647.22" type="line"/>
      <point x="862.3" y="647.22" type="line"/>
      <point x="1032.51" y="283.05" type="line"/>
      <point x="1238.7" y="283.05" type="line"/>
      <point x="1038.45" y="674.27" type="line"/>
      <point x="1193.35" y="709.95"/>
      <point x="1233.0" y="810.99"/>
      <point x="1233.0" y="918.92" type="curve" smooth="yes"/>
      <point x="1233.0" y="1087.27"/>
      <point x="1115.66" y="1179.94"/>
      <point x="831.7" y="1179.94" type="curve" smooth="yes"/>
      <point x="532.91" y="1179.94" type="line"/>
      <point x="532.91" y="283.05" type="line"/>
    </contour>
  </outline>
</glyph>
<glyph name="macron" format="1">
  <advance width="736.6"/>
  <unicode hex="00AF"/>
  <outline>
    <contour>
      <point x="66.93" y="1296.47" type="line"/>
      <point x="66.93" y="1456.0" type="line"/>
      <point x="669.67" y="1456.0" type="line"/>
      <point x="669.67" y="1296.47" type="line"/>
    </contour>
  </outline>
</glyph>
<glyph name="degree" format="1">
  <advance width="868.12"/>
  <unicode hex="00B0"/>
  <outline>
    <contour>
      <point x="434.06" y="1456.73" type="curve" smooth="yes"/>
      <point x="262.4" y="1456.73"/>
      <point x="125.69" y="1322.05"/>
      <point x="125.69" y="1154.02" type="curve" smooth="yes"/>
      <point x="125.69" y="985.32"/>
      <point x="262.73" y="851.65"/>
      <point x="434.06" y="851.65" type="curve" smooth="yes"/>
      <point x="606.06" y="851.65"/>
      <point x="742.43" y="985.32"/>
      <point x="742.43" y="1154.02" type="curve" smooth="yes"/>
      <point x="742.43" y="1322.05"/>
      <point x="606.39" y="1456.73"/>
    </contour>
    <contour>
      <point x="434.06" y="974.4" type="curve" smooth="yes"/>
      <point x="330.13" y="974.4"/>
      <point x="260.11" y="1054.69"/>
      <point x="260.11" y="1154.35" type="curve" smooth="yes"/>
      <point x="260.11" y="1253.34"/>
      <point x="331.12" y="1332.64"/>
      <point x="434.06" y="1332.64" type="curve" smooth="yes"/>
      <point x="538.34" y="1332.64"/>
      <point x="609.35" y="1253.34"/>
      <point x="609.35" y="1154.35" type="curve" smooth="yes"/>
      <point x="609.35" y="1054.69"/>
      <point x="539.33" y="974.4"/>
    </contour>
  </outline>
</glyph>
<glyph name="plusminus" format="1">
  <advance width="1249.15"/>
  <unicode hex="00B1"/>
  <outline>
    <contour>
      <point x="524.6" y="270.47" type="line"/>
      <point x="524.6" y="592.99" type="line"/>
      <point x="192.32" y="592.99" type="line"/>
      <point x="192.32" y="767.17" type="line"/>
      <point x="520.59" y="767.17" type="line"/>
      <point x="520.59" y="1093.7" type="line"/>
      <point x="719.84" y="1093.7" type="line"/>
      <point x="719.84" y="767.17" type="line"/>
      <point x="1053.5" y="767.17" type="line"/>
      <point x="1053.5" y="592.99" type="line"/>
      <point x="727.19" y="592.99" type="line"/>
      <point x="727.19" y="270.47" type="line"/>
    </contour>
    <contour>
      <point x="186.36" y="0.0" type="line"/>
      <point x="186.36" y="157.48" type="line"/>
      <point x="1067.42" y="157.48" type="line"/>
      <point x="1067.42" y="0.0" type="line"/>
    </contour>
  </outline>
</glyph>
<glyph name="twosuperior" format="1">
  <advance width="1127.02"/>
  <unicode hex="00B2"/>
  <outline>
    <contour>
      <point x="278.78" y="615.98" type="line"/>
      <point x="278.78" y="760.48" type="line"/>
      <point x="588.78" y="1018.65"/>
      <point x="685.39" y="1134.09"/>
      <point x="685.39" y="1212.93" type="curve" smooth="yes"/>
      <point x="685.39" y="1278.59"/>
      <point x="637.08" y="1310.86"/>
      <point x="565.49" y="1310.86" type="curve" smooth="yes"/>
      <point x="491.2" y="1310.86"/>
      <point x="408.44" y="1272.92"/>
      <point x="345.65" y="1215.37" type="curve"/>
      <point x="274.05" y="1340.27" type="line"/>
      <point x="352.88" y="1417.45"/>
      <point x="464.59" y="1460.69"/>
      <point x="576.18" y="1460.69" type="curve" smooth="yes"/>
      <point x="731.54" y="1460.69"/>
      <point x="857.94" y="1379.39"/>
      <point x="857.94" y="1214.93" type="curve" smooth="yes"/>
      <point x="857.94" y="1049.63"/>
      <point x="701.63" y="915.68"/>
      <point x="521.75" y="773.51" type="curve"/>
      <point x="850.24" y="773.51" type="line"/>
      <point x="850.24" y="615.98" type="line"/>
    </contour>
  </outline>
</glyph>
<glyph name="threesuperior" format="1">
  <advance width="1040.59"/>
  <unicode hex="00B3"/>
  <outline>
    <contour>
      <point x="539.17" y="597.39" type="curve" smooth="yes"/>
      <point x="439.82" y="597.39"/>
      <point x="336.45" y="630.39"/>
      <point x="260.39" y="692.38" type="curve"/>
      <point x="321.06" y="808.48" type="line"/>
      <point x="395.49" y="756.14"/>
      <point x="468.49" y="731.82"/>
      <point x="528.14" y="731.82" type="curve" smooth="yes"/>
      <point x="618.11" y="731.82"/>
      <point x="675.72" y="782.49"/>
      <point x="675.72" y="860.45" type="curve" smooth="yes"/>
      <point x="675.72" y="937.68"/>
      <point x="606.79" y="979.71"/>
      <point x="493.55" y="979.71" type="curve" smooth="yes"/>
      <point x="416.78" y="979.71" type="line"/>
      <point x="416.78" y="1110.44" type="line"/>
      <point x="489.23" y="1110.44" type="line" smooth="yes"/>
      <point x="583.46" y="1110.44"/>
      <point x="652.73" y="1147.14"/>
      <point x="652.73" y="1217.37" type="curve" smooth="yes"/>
      <point x="652.73" y="1289.34"/>
      <point x="602.39" y="1322.67"/>
      <point x="525.75" y="1322.67" type="curve" smooth="yes"/>
      <point x="460.78" y="1322.67"/>
      <point x="384.1" y="1297.03"/>
      <point x="313.7" y="1251.37" type="curve"/>
      <point x="254.36" y="1362.11" type="line"/>
      <point x="337.47" y="1420.1"/>
      <point x="447.49" y="1454.4"/>
      <point x="545.84" y="1454.4" type="curve" smooth="yes"/>
      <point x="691.2" y="1454.4"/>
      <point x="813.2" y="1381.78"/>
      <point x="813.2" y="1233.77" type="curve" smooth="yes"/>
      <point x="813.2" y="1165.82"/>
      <point x="783.24" y="1089.15"/>
      <point x="666.92" y="1055.45" type="curve"/>
      <point x="791.28" y="1024.76"/>
      <point x="839.56" y="942.73"/>
      <point x="839.56" y="857.45" type="curve" smooth="yes"/>
      <point x="839.56" y="684.35"/>
      <point x="700.17" y="597.39"/>
    </contour>
  </outline>
</glyph>
<glyph name="acute" format="1">
  <advance width="607.0"/>
  <unicode hex="00B4"/>
  <outline>
    <contour>
      <point x="57.09" y="1169.24" type="line"/>
      <point x="305.86" y="1485.79" type="line"/>
      <point x="580.65" y="1485.79" type="line"/>
      <point x="245.05" y="1169.24" type="line"/>
    </contour>
  </outline>
</glyph>
<glyph name="paragraph" format="1">
  <advance width="1217.73"/>
  <unicode hex="00B6"/>
  <outline>
    <contour>
      <point x="444.81" y="-178.31" type="line"/>
      <point x="444.81" y="802.37" type="line"/>
      <point x="243.11" y="813.72"/>
      <point x="109.3" y="929.31"/>
      <point x="109.3" y="1131.55" type="curve" smooth="yes"/>
      <point x="109.3" y="1388.76"/>
      <point x="305.2" y="1455.31"/>
      <point x="582.89" y="1455.31" type="curve" smooth="yes"/>
      <point x="1053.39" y="1455.31" type="line"/>
      <point x="1053.39" y="1291.29" type="line"/>
      <point x="969.15" y="1291.29" type="line"/>
      <point x="969.15" y="-178.31" type="line"/>
      <point x="798.37" y="-178.31" type="line"/>
      <point x="798.37" y="1291.29" type="line"/>
      <point x="615.59" y="1291.29" type="line"/>
      <point x="615.59" y="-178.31" type="line"/>
    </contour>
  </outline>
</glyph>
<glyph name="periodcentered" format="1">
  <advance width="529.42"/>
  <unicode hex="00B7"/>
  <outline>
    <contour>
      <point x="135.44" y="535.78" type="line"/>
      <point x="135.44" y="780.62" type="line"/>
      <point x="393.98" y="780.62" type="line"/>
      <point x="393.98" y="535.78" type="line"/>
    </contour>
  </outline>
</glyph>
<glyph name="cedilla" format="1">
  <advance width="529.0"/>
  <unicode hex="00B8"/>
  <outline>
    <contour>
      <point x="219.63" y="-419.36" type="curve" smooth="yes"/>
      <point x="154.38" y="-419.36"/>
      <point x="46.54" y="-394.04"/>
      <point x="31.55" y="-389.04" type="curve"/>
      <point x="45.22" y="-280.26" type="line"/>
      <point x="62.56" y="-287.27"/>
      <point x="153.62" y="-309.27"/>
      <point x="213.98" y="-309.27" type="curve" smooth="yes"/>
      <point x="284.92" y="-309.27"/>
      <point x="314.26" y="-273.24"/>
      <point x="314.26" y="-238.95" type="curve" smooth="yes"/>
      <point x="314.26" y="-203.99"/>
      <point x="285.65" y="-158.25"/>
      <point x="158.97" y="-158.25" type="curve"/>
      <point x="132.26" y="-158.25" type="line"/>
      <point x="163.92" y="26.38" type="line"/>
      <point x="272.36" y="26.38" type="line"/>
      <point x="254.03" y="-86.23" type="line"/>
      <point x="409.84" y="-102.25"/>
      <point x="490.78" y="-160.71"/>
      <point x="490.78" y="-244.28" type="curve" smooth="yes"/>
      <point x="490.78" y="-339.22"/>
      <point x="402.53" y="-419.36"/>
    </contour>
  </outline>
</glyph>
<glyph name="onesuperior" format="1">
  <advance width="1004.39"/>
  <unicode hex="00B9"/>
  <outline>
    <contour>
      <point x="274.13" y="615.73" type="line"/>
      <point x="274.13" y="759.57" type="line"/>
      <point x="449.26" y="759.57" type="line"/>
      <point x="449.26" y="874.89"/>
      <point x="448.95" y="1239.93"/>
      <point x="448.95" y="1270.31" type="curve"/>
      <point x="435.62" y="1263.18"/>
      <point x="270.6" y="1217.48"/>
      <point x="254.17" y="1211.28" type="curve"/>
      <point x="254.48" y="1363.36" type="line"/>
      <point x="276.18" y="1370.49"/>
      <point x="466.18" y="1433.68"/>
      <point x="480.44" y="1442.36" type="curve"/>
      <point x="615.8" y="1447.01" type="line"/>
      <point x="615.8" y="757.26" type="line"/>
      <point x="774.37" y="757.26" type="line"/>
      <point x="774.37" y="615.73" type="line"/>
    </contour>
  </outline>
</glyph>
<glyph name="ordmasculine" format="1">
  <advance width="897.77"/>
  <unicode hex="00BA"/>
  <outline>
    <contour>
      <point x="450.71" y="877.3" type="curve" smooth="yes"/>
      <point x="573.32" y="877.3"/>
      <point x="652.3" y="962.27"/>
      <point x="652.3" y="1092.88" type="curve" smooth="yes"/>
      <point x="652.3" y="1231.16"/>
      <point x="573.32" y="1313.79"/>
      <point x="450.39" y="1313.79" type="curve" smooth="yes"/>
      <point x="329.45" y="1313.79"/>
      <point x="247.46" y="1228.82"/>
      <point x="247.46" y="1096.21" type="curve" smooth="yes"/>
      <point x="247.46" y="959.6"/>
      <point x="322.11" y="877.3"/>
    </contour>
    <contour>
      <point x="452.39" y="735.51" type="curve" smooth="yes"/>
      <point x="204.01" y="735.51"/>
      <point x="75.32" y="892.85"/>
      <point x="75.32" y="1098.54" type="curve" smooth="yes"/>
      <point x="75.32" y="1298.89"/>
      <point x="212.35" y="1456.57"/>
      <point x="450.05" y="1456.57" type="curve" smooth="yes"/>
      <point x="690.08" y="1456.57"/>
      <point x="822.45" y="1295.88"/>
      <point x="822.45" y="1094.87" type="curve" smooth="yes"/>
      <point x="822.45" y="898.19"/>
      <point x="690.76" y="735.51"/>
    </contour>
  </outline>
</glyph>
<glyph name="guillemotright" format="1">
  <advance width="1143.89"/>
  <unicode hex="00BB"/>
  <outline>
    <contour>
      <point x="751.56" y="918.69" type="line"/>
      <point x="1025.25" y="541.32" type="line"/>
      <point x="745.89" y="163.63" type="line"/>
      <point x="566.75" y="163.63" type="line"/>
      <point x="810.38" y="541.99" type="line"/>
      <point x="574.75" y="918.69" type="line"/>
    </contour>
    <contour>
      <point x="316.85" y="918.69" type="line"/>
      <point x="590.54" y="541.32" type="line"/>
      <point x="311.18" y="163.63" type="line"/>
      <point x="132.04" y="163.63" type="line"/>
      <point x="375.67" y="541.99" type="line"/>
      <point x="140.04" y="918.69" type="line"/>
    </contour>
  </outline>
</glyph>
<glyph name="onequarter" format="1">
  <advance width="2061.21"/>
  <unicode hex="00BC"/>
  <outline>
    <contour>
      <point x="1612.43" y="11.85" type="line"/>
      <point x="1612.43" y="203.3" type="line"/>
      <point x="1239.95" y="203.3" type="line"/>
      <point x="1239.95" y="307.41" type="line"/>
      <point x="1607.33" y="817.82" type="line"/>
      <point x="1768.93" y="817.82" type="line"/>
      <point x="1768.93" y="326.17" type="line"/>
      <point x="1882.76" y="326.17" type="line"/>
      <point x="1885.86" y="203.3" type="line"/>
      <point x="1768.31" y="203.3" type="line"/>
      <point x="1768.31" y="11.85" type="line"/>
    </contour>
    <contour>
      <point x="1404.48" y="326.17" type="line"/>
      <point x="1610.43" y="326.17" type="line"/>
      <point x="1610.43" y="617.39" type="line"/>
    </contour>
    <contour>
      <point x="552.71" y="0.0" type="line"/>
      <point x="1445.98" y="1456.0" type="line"/>
      <point x="1632.93" y="1456.0" type="line"/>
      <point x="740.97" y="0.0" type="line"/>
    </contour>
    <contour>
      <point x="232.27" y="624.72" type="line"/>
      <point x="232.27" y="768.56" type="line"/>
      <point x="407.4" y="768.56" type="line"/>
      <point x="407.4" y="1279.3" type="line"/>
      <point x="394.07" y="1272.17"/>
      <point x="228.74" y="1226.47"/>
      <point x="212.31" y="1220.27" type="curve"/>
      <point x="212.62" y="1372.35" type="line"/>
      <point x="234.32" y="1379.48"/>
      <point x="424.32" y="1442.67"/>
      <point x="438.58" y="1451.35" type="curve"/>
      <point x="573.94" y="1456.0" type="line"/>
      <point x="573.94" y="766.25" type="line"/>
      <point x="732.51" y="766.25" type="line"/>
      <point x="732.51" y="624.72" type="line"/>
    </contour>
  </outline>
</glyph>
<glyph name="onehalf" format="1">
  <advance width="2321.34"/>
  <unicode hex="00BD"/>
  <outline>
    <contour>
      <point x="217.09" y="624.72" type="line"/>
      <point x="217.09" y="768.56" type="line"/>
      <point x="392.22" y="768.56" type="line"/>
      <point x="392.22" y="1279.3" type="line"/>
      <point x="378.89" y="1272.17"/>
      <point x="213.87" y="1226.47"/>
      <point x="197.44" y="1220.27" type="curve"/>
      <point x="197.44" y="1372.35" type="line"/>
      <point x="219.14" y="1379.48"/>
      <point x="409.14" y="1442.67"/>
      <point x="423.4" y="1451.35" type="curve"/>
      <point x="558.76" y="1456.0" type="line"/>
      <point x="558.76" y="766.25" type="line"/>
      <point x="717.33" y="766.25" type="line"/>
      <point x="717.33" y="624.72" type="line"/>
    </contour>
    <contour>
      <point x="1417.79" y="0.0" type="line"/>
      <point x="1417.79" y="145.5" type="line"/>
      <point x="1729.79" y="404.69"/>
      <point x="1824.06" y="518.77"/>
      <point x="1824.06" y="596.65" type="curve" smooth="yes"/>
      <point x="1824.06" y="662.27"/>
      <point x="1775.89" y="694.16"/>
      <point x="1704.76" y="694.16" type="curve" smooth="yes"/>
      <point x="1630.73" y="694.16"/>
      <point x="1547.41" y="656.58"/>
      <point x="1483.88" y="599.73" type="curve"/>
      <point x="1412.68" y="726.03" type="line"/>
      <point x="1492.49" y="802.29"/>
      <point x="1604.46" y="844.97"/>
      <point x="1715.59" y="844.97" type="curve" smooth="yes"/>
      <point x="1871.11" y="844.97"/>
      <point x="1997.91" y="763.87"/>
      <point x="1997.91" y="598.65" type="curve" smooth="yes"/>
      <point x="1997.91" y="433.55"/>
      <point x="1841.74" y="299.9"/>
      <point x="1662.58" y="158.71" type="curve"/>
      <point x="1990.01" y="158.71" type="line"/>
      <point x="1990.01" y="0.0" type="line"/>
    </contour>
    <contour>
      <point x="533.42" y="0.0" type="line"/>
      <point x="1426.69" y="1456.0" type="line"/>
      <point x="1613.64" y="1456.0" type="line"/>
      <point x="721.68" y="0.0" type="line"/>
    </contour>
  </outline>
</glyph>
<glyph name="threequarters" format="1">
  <advance width="2309.61"/>
  <unicode hex="00BE"/>
  <outline>
    <contour>
      <point x="501.37" y="602.69" type="curve" smooth="yes"/>
      <point x="401.92" y="602.69"/>
      <point x="301.43" y="635.69"/>
      <point x="225.01" y="697.62" type="curve"/>
      <point x="285.7" y="814.32" type="line"/>
      <point x="360.71" y="761.94"/>
      <point x="430.61" y="737.7"/>
      <point x="490.16" y="737.7" type="curve" smooth="yes"/>
      <point x="579.95" y="737.7"/>
      <point x="640.32" y="788.39"/>
      <point x="640.32" y="866.11" type="curve" smooth="yes"/>
      <point x="640.32" y="942.72"/>
      <point x="571.81" y="984.93"/>
      <point x="459.13" y="984.93" type="curve" smooth="yes"/>
      <point x="457.58" y="984.93"/>
      <point x="381.74" y="984.62"/>
      <point x="381.74" y="984.62" type="curve"/>
      <point x="381.74" y="1116.04" type="line"/>
      <point x="454.89" y="1116.04" type="line" smooth="yes"/>
      <point x="548.5" y="1116.04"/>
      <point x="617.39" y="1152.94"/>
      <point x="617.39" y="1222.55" type="curve" smooth="yes"/>
      <point x="617.39" y="1294.34"/>
      <point x="563.91" y="1327.65"/>
      <point x="487.43" y="1327.65" type="curve" smooth="yes"/>
      <point x="422.64" y="1327.65"/>
      <point x="348.98" y="1302.17"/>
      <point x="278.18" y="1256.55" type="curve"/>
      <point x="218.8" y="1367.73" type="line"/>
      <point x="302.57" y="1425.66"/>
      <point x="409.61" y="1459.45"/>
      <point x="508.06" y="1459.45" type="curve" smooth="yes"/>
      <point x="653.58" y="1459.45"/>
      <point x="778.68" y="1387.42"/>
      <point x="778.68" y="1239.35" type="curve" smooth="yes"/>
      <point x="778.68" y="1171.7"/>
      <point x="748.96" y="1098.11"/>
      <point x="648.22" y="1061.11" type="curve"/>
      <point x="760.34" y="1027.18"/>
      <point x="805.2" y="948.07"/>
      <point x="805.2" y="863.11" type="curve" smooth="yes"/>
      <point x="805.2" y="689.41"/>
      <point x="662.37" y="602.69"/>
    </contour>
    <contour>
      <point x="1427.72" y="326.17" type="line"/>
      <point x="1633.67" y="326.17" type="line"/>
      <point x="1633.67" y="617.39" type="line"/>
    </contour>
    <contour>
      <point x="1635.67" y="11.85" type="line"/>
      <point x="1635.67" y="203.3" type="line"/>
      <point x="1263.19" y="203.3" type="line"/>
      <point x="1263.19" y="307.41" type="line"/>
      <point x="1630.57" y="817.82" type="line"/>
      <point x="1792.17" y="817.82" type="line"/>
      <point x="1792.17" y="326.17" type="line"/>
      <point x="1906.0" y="326.17" type="line"/>
      <point x="1909.1" y="203.3" type="line"/>
      <point x="1791.55" y="203.3" type="line"/>
      <point x="1791.55" y="11.85" type="line"/>
    </contour>
    <contour>
      <point x="575.95" y="0.0" type="line"/>
      <point x="1469.22" y="1456.0" type="line"/>
      <point x="1656.17" y="1456.0" type="line"/>
      <point x="764.21" y="0.0" type="line"/>
    </contour>
  </outline>
</glyph>
<glyph name="AE" format="1">
  <advance width="2128.91"/>
  <unicode hex="00C6"/>
  <outline>
    <contour>
      <point x="22.64" y="0.0" type="line"/>
      <point x="869.0" y="1456.0" type="line"/>
      <point x="1922.98" y="1456.0" type="line"/>
      <point x="1922.98" y="1265.1" type="line"/>
      <point x="1247.77" y="1265.1" type="line"/>
      <point x="1285.08" y="839.43" type="line"/>
      <point x="1904.09" y="839.43" type="line"/>
      <point x="1904.09" y="655.19" type="line"/>
      <point x="1306.13" y="655.19" type="line"/>
      <point x="1349.1" y="190.24" type="line"/>
      <point x="1948.65" y="190.24" type="line"/>
      <point x="1948.65" y="0.0" type="line"/>
      <point x="1131.11" y="0.0" type="line"/>
      <point x="1098.8" y="381.16" type="line"/>
      <point x="499.24" y="381.16" type="line"/>
      <point x="282.34" y="0.0" type="line"/>
    </contour>
    <contour>
      <point x="587.02" y="552.37" type="line"/>
      <point x="1083.12" y="552.37" type="line"/>
      <point x="1031.15" y="1265.1" type="line"/>
      <point x="989.87" y="1265.1" type="line"/>
    </contour>
  </outline>
</glyph>
<glyph name="multiply" format="1">
  <advance width="1248.82"/>
  <unicode hex="00D7"/>
  <outline>
    <contour>
      <point x="343.49" y="132.56" type="line"/>
      <point x="206.99" y="269.06" type="line"/>
      <point x="487.58" y="549.98" type="line"/>
      <point x="206.99" y="830.9" type="line"/>
      <point x="343.49" y="967.4" type="line"/>
      <point x="624.41" y="686.48" type="line"/>
      <point x="905.67" y="967.4" type="line"/>
      <point x="1041.83" y="831.24" type="line"/>
      <point x="760.24" y="549.98" type="line"/>
      <point x="1041.83" y="268.72" type="line"/>
      <point x="905.67" y="132.56" type="line"/>
      <point x="624.41" y="413.15" type="line"/>
    </contour>
  </outline>
</glyph>
<glyph name="Oslash" format="1">
  <advance width="1663.0"/>
  <unicode hex="00D8"/>
  <outline>
    <contour>
      <point x="441.49" y="-125.76" type="line"/>
      <point x="337.93" y="-74.38" type="line"/>
      <point x="1210.8" y="1566.42" type="line"/>
      <point x="1314.36" y="1514.73" type="line"/>
    </contour>
    <component base="O"/>
  </outline>
</glyph>
<glyph name="Thorn" format="1">
  <advance width="1289.18"/>
  <unicode hex="00DE"/>
  <outline>
    <contour>
      <point x="195.41" y="0.0" type="line"/>
      <point x="195.41" y="1456.0" type="line"/>
      <point x="415.02" y="1456.0" type="line"/>
      <point x="415.02" y="1218.45" type="line"/>
      <point x="595.8" y="1218.45" type="line" smooth="yes"/>
      <point x="937.87" y="1218.45"/>
      <point x="1212.42" y="1142.83"/>
      <point x="1212.42" y="775.55" type="curve" smooth="yes"/>
      <point x="1212.42" y="466.03"/>
      <point x="946.79" y="335.65"/>
      <point x="628.79" y="335.65" type="curve" smooth="yes"/>
      <point x="413.64" y="335.65" type="line"/>
      <point x="413.64" y="0.0" type="line"/>
    </contour>
    <contour>
      <point x="413.64" y="524.67" type="line"/>
      <point x="654.35" y="524.67" type="line" smooth="yes"/>
      <point x="849.51" y="524.67"/>
      <point x="975.98" y="600.32"/>
      <point x="975.98" y="774.93" type="curve" smooth="yes"/>
      <point x="975.98" y="982.4"/>
      <point x="834.51" y="1031.12"/>
      <point x="608.42" y="1031.12" type="curve" smooth="yes"/>
      <point x="413.64" y="1031.12" type="line"/>
    </contour>
  </outline>
</glyph>
<glyph name="germandbls" format="1">
  <advance width="1256.73286031"/>
  <unicode hex="00DF"/>
  <outline>
    <contour>
      <point x="816.56286031" y="-22.31" type="curve" smooth="yes"/>
      <point x="636.39286031" y="-22.31"/>
      <point x="490.32286031" y="37.0"/>
      <point x="490.32286031" y="37.0" type="curve"/>
      <point x="526.36286031" y="203.64" type="line"/>
      <point x="526.36286031" y="203.64"/>
      <point x="676.08286031" y="136.74"/>
      <point x="798.83286031" y="149.71" type="curve" smooth="yes"/>
      <point x="886.13286031" y="158.92"/>
      <point x="956.32286031" y="216.84"/>
      <point x="956.32286031" y="332.45" type="curve" smooth="yes"/>
      <point x="956.32286031" y="505.78"/>
      <point x="817.80286031" y="613.7"/>
      <point x="563.66286031" y="732.81" type="curve"/>
      <point x="563.66286031" y="892.21" type="line"/>
      <point x="716.62286031" y="956.16"/>
      <point x="799.98286031" y="1042.41"/>
      <point x="799.98286031" y="1162.23" type="curve" smooth="yes"/>
      <point x="799.98286031" y="1261.91"/>
      <point x="720.22286031" y="1321.97"/>
      <point x="605.76286031" y="1321.97" type="curve" smooth="yes"/>
      <point x="452.57286031" y="1321.97"/>
      <point x="366.67286031" y="1201.85"/>
      <point x="366.67286031" y="1015.23" type="curve" smooth="yes"/>
      <point x="366.67286031" y="0.0" type="line"/>
      <point x="158.13286031" y="0.0" type="line"/>
      <point x="156.06286031" y="1013.99" type="line" smooth="yes"/>
      <point x="155.37286031" y="1327.62"/>
      <point x="328.55286031" y="1491.68"/>
      <point x="605.38286031" y="1491.68" type="curve" smooth="yes"/>
      <point x="861.07286031" y="1491.68"/>
      <point x="1027.08286031" y="1361.61"/>
      <point x="1027.08286031" y="1171.51" type="curve" smooth="yes"/>
      <point x="1027.08286031" y="1032.87"/>
      <point x="952.81286031" y="923.58"/>
      <point x="806.79286031" y="852.31" type="curve" smooth="yes"/>
      <point x="785.40286031" y="841.27"/>
      <point x="750.30286031" y="826.79"/>
      <point x="726.84286031" y="819.89" type="curve"/>
      <point x="750.99286031" y="814.37"/>
      <point x="787.61286031" y="801.82"/>
      <point x="811.76286031" y="793.54" type="curve" smooth="yes"/>
      <point x="1009.41286031" y="717.27"/>
      <point x="1187.49286031" y="583.3"/>
      <point x="1187.49286031" y="348.59" type="curve" smooth="yes"/>
      <point x="1187.49286031" y="120.69"/>
      <point x="1017.08286031" y="-22.31"/>
    </contour>
  </outline>
</glyph>
<glyph name="ae" format="1">
  <advance width="1784.61"/>
  <unicode hex="00E6"/>
  <outline>
    <contour>
      <point x="463.42" y="-24.65" type="curve" smooth="yes"/>
      <point x="640.19" y="-24.65"/>
      <point x="794.28" y="67.89"/>
      <point x="867.61" y="211.25" type="curve"/>
      <point x="939.64" y="68.91"/>
      <point x="1080.95" y="-20.36"/>
      <point x="1255.35" y="-22.67" type="curve" smooth="yes"/>
      <point x="1502.18" y="-26.63"/>
      <point x="1651.3" y="104.69"/>
      <point x="1651.3" y="104.69" type="curve"/>
      <point x="1590.59" y="259.86" type="line"/>
      <point x="1590.59" y="259.86"/>
      <point x="1448.21" y="143.25"/>
      <point x="1261.69" y="149.85" type="curve" smooth="yes"/>
      <point x="1077.5" y="156.45"/>
      <point x="985.08" y="264.23"/>
      <point x="974.36" y="454.29" type="curve"/>
      <point x="974.36" y="477.93" type="line"/>
      <point x="1672.88" y="477.93" type="line"/>
      <point x="1672.88" y="477.93"/>
      <point x="1676.23" y="506.58"/>
      <point x="1676.23" y="521.32" type="curve" smooth="yes"/>
      <point x="1676.23" y="825.56"/>
      <point x="1528.96" y="1056.29"/>
      <point x="1228.25" y="1052.33" type="curve" smooth="yes"/>
      <point x="1081.24" y="1050.35"/>
      <point x="965.32" y="978.07"/>
      <point x="889.29" y="862.85" type="curve"/>
      <point x="831.24" y="991.75"/>
      <point x="678.58" y="1052.33"/>
      <point x="559.38" y="1052.33" type="curve" smooth="yes"/>
      <point x="334.0" y="1052.33"/>
      <point x="179.15" y="964.71"/>
      <point x="151.35" y="947.96" type="curve"/>
      <point x="213.41" y="801.84" type="line"/>
      <point x="293.81" y="840.03"/>
      <point x="417.21" y="883.5"/>
      <point x="523.25" y="883.5" type="curve" smooth="yes"/>
      <point x="681.18" y="883.5"/>
      <point x="763.49" y="777.25"/>
      <point x="764.16" y="625.75" type="curve"/>
      <point x="728.13" y="625.75" type="line" smooth="yes"/>
      <point x="329.61" y="625.75"/>
      <point x="76.31" y="575.91"/>
      <point x="76.31" y="288.7" type="curve" smooth="yes"/>
      <point x="76.31" y="89.33"/>
      <point x="234.33" y="-24.65"/>
    </contour>
    <contour>
      <point x="479.36" y="147.86" type="curve" smooth="yes"/>
      <point x="376.77" y="147.86"/>
      <point x="286.18" y="189.15"/>
      <point x="286.18" y="298.04" type="curve" smooth="yes"/>
      <point x="286.18" y="438.26"/>
      <point x="457.44" y="477.93"/>
      <point x="635.35" y="477.93" type="curve" smooth="yes"/>
      <point x="764.82" y="477.93" type="line"/>
      <point x="762.81" y="317.1"/>
      <point x="686.9" y="147.86"/>
    </contour>
    <contour>
      <point x="977.03" y="622.4" type="line"/>
      <point x="1001.75" y="765.65"/>
      <point x="1085.7" y="884.84"/>
      <point x="1242.23" y="884.84" type="curve" smooth="yes"/>
      <point x="1374.33" y="884.84"/>
      <point x="1470.04" y="790.97"/>
      <point x="1488.03" y="634.04" type="curve" smooth="yes"/>
      <point x="1489.36" y="622.4" type="line"/>
    </contour>
  </outline>
</glyph>
<glyph name="eth" format="1">
  <advance width="1220.31"/>
  <unicode hex="00F0"/>
  <outline>
    <contour>
      <point x="589.62" y="-23.67" type="curve" smooth="yes"/>
      <point x="914.28" y="-23.67"/>
      <point x="1104.97" y="197.72"/>
      <point x="1104.97" y="625.97" type="curve" smooth="yes"/>
      <point x="1104.97" y="1171.42003"/>
      <point x="661.84" y="1419.52"/>
      <point x="357.08" y="1480.42" type="curve"/>
      <point x="278.75" y="1339.96" type="line"/>
      <point x="659.18617" y="1253.6861"/>
      <point x="877.04" y="1012.55"/>
      <point x="893.79" y="783.92" type="curve" smooth="yes"/>
      <point x="897.81" y="767.84"/>
      <point x="900.49" y="750.47"/>
      <point x="900.49" y="740.42" type="curve"/>
      <point x="822.33" y="840.19"/>
      <point x="709.27" y="901.69"/>
      <point x="562.51" y="901.69" type="curve" smooth="yes"/>
      <point x="284.18" y="901.69"/>
      <point x="101.98" y="724.07"/>
      <point x="101.98" y="460.74" type="curve" smooth="yes"/>
      <point x="101.98" y="196.41"/>
      <point x="289.63" y="-23.67"/>
    </contour>
    <contour>
      <point x="597.7" y="151.5" type="curve" smooth="yes"/>
      <point x="449.22" y="151.5"/>
      <point x="322.87" y="259.34"/>
      <point x="322.87" y="447.7" type="curve" smooth="yes"/>
      <point x="322.87" y="625.36"/>
      <point x="441.87" y="722.83"/>
      <point x="592.62" y="722.83" type="curve" smooth="yes"/>
      <point x="731.18" y="722.83"/>
      <point x="874.1" y="620.9"/>
      <point x="874.1" y="459.24" type="curve" smooth="yes"/>
      <point x="874.1" y="272.59"/>
      <point x="759.65" y="151.5"/>
    </contour>
    <contour>
      <point x="454.36" y="1031.07" type="line"/>
      <point x="1009.92" y="1366.96" type="line"/>
      <point x="941.6" y="1480.76" type="line"/>
      <point x="386.04" y="1145.2" type="line"/>
    </contour>
  </outline>
</glyph>
<glyph name="divide" format="1">
  <advance width="1378.8"/>
  <unicode hex="00F7"/>
  <outline>
    <contour>
      <point x="540.51" y="-1.78" type="line"/>
      <point x="540.51" y="243.73" type="line"/>
      <point x="804.41" y="243.73" type="line"/>
      <point x="805.08" y="-1.78" type="line"/>
    </contour>
    <contour>
      <point x="159.4" y="464.23" type="line"/>
      <point x="159.4" y="642.09" type="line"/>
      <point x="1177.19" y="642.09" type="line"/>
      <point x="1177.19" y="464.23" type="line"/>
    </contour>
    <contour>
      <point x="538.5" y="854.24" type="line"/>
      <point x="538.5" y="1099.08" type="line"/>
      <point x="802.4" y="1099.08" type="line"/>
      <point x="802.4" y="854.24" type="line"/>
    </contour>
  </outline>
</glyph>
<glyph name="thorn" format="1">
  <advance width="1232.97"/>
  <unicode hex="00FE"/>
  <outline>
    <contour>
      <point x="147.95" y="-408.91" type="line"/>
      <point x="147.95" y="1460.69" type="line"/>
      <point x="355.15" y="1460.69" type="line"/>
      <point x="353.81" y="915.5" type="line"/>
      <point x="420.73" y="1001.71"/>
      <point x="549.43" y="1051.0"/>
      <point x="656.61" y="1051.0" type="curve" smooth="yes"/>
      <point x="975.93" y="1051.0"/>
      <point x="1132.97" y="809.32"/>
      <point x="1132.97" y="525.66" type="curve" smooth="yes"/>
      <point x="1132.97" y="239.67"/>
      <point x="975.63" y="-23.0"/>
      <point x="655.94" y="-23.0" type="curve" smooth="yes"/>
      <point x="536.73" y="-23.0"/>
      <point x="425.42" y="22.29"/>
      <point x="351.81" y="97.48" type="curve"/>
      <point x="351.14" y="-408.91" type="line"/>
    </contour>
    <contour>
      <point x="629.26" y="147.86" type="curve" smooth="yes"/>
      <point x="825.79" y="147.86"/>
      <point x="908.73" y="324.77"/>
      <point x="908.73" y="521.0" type="curve" smooth="yes"/>
      <point x="908.73" y="705.57"/>
      <point x="841.45" y="878.14"/>
      <point x="636.6" y="878.14" type="curve" smooth="yes"/>
      <point x="423.76" y="878.14"/>
      <point x="351.81" y="694.9"/>
      <point x="351.81" y="494.0" type="curve" smooth="yes"/>
      <point x="351.81" y="295.11"/>
      <point x="447.06" y="147.86"/>
    </contour>
  </outline>
</glyph>
<glyph name="dcroat" format="1">
  <advance width="1254.63"/>
  <unicode hex="0111"/>
  <outline>
    <contour>
      <point x="593.05" y="1195.15" type="line"/>
      <point x="593.05" y="1341.86" type="line"/>
      <point x="1207.74" y="1341.86" type="line"/>
      <point x="1207.74" y="1195.15" type="line"/>
    </contour>
    <component base="d"/>
  </outline>
</glyph>
<glyph name="Hbar" format="1">
  <advance width="1543.11"/>
  <unicode hex="0126"/>
  <outline>
    <contour>
      <point x="92.34" y="1118.01" type="line"/>
      <point x="92.01" y="1257.37" type="line"/>
      <point x="1451.1" y="1257.37" type="line"/>
      <point x="1451.1" y="1118.01" type="line"/>
    </contour>
    <component base="H"/>
  </outline>
</glyph>
<glyph name="hbar" format="1">
  <advance width="1194.92"/>
  <unicode hex="0127"/>
  <outline>
    <contour>
      <point x="-20.39" y="1178.86" type="line"/>
      <point x="-20.7" y="1324.59" type="line"/>
      <point x="582.04" y="1324.59" type="line"/>
      <point x="582.35" y="1178.86" type="line"/>
    </contour>
    <component base="h"/>
  </outline>
</glyph>
<glyph name="dotlessi" format="1">
  <advance width="503.0"/>
  <unicode hex="0131"/>
  <outline>
    <contour>
      <point x="137.85" y="0.0" type="line"/>
      <point x="137.52" y="1026.0" type="line"/>
      <point x="350.76" y="1026.0" type="line"/>
      <point x="351.09" y="0.0" type="line"/>
    </contour>
  </outline>
</glyph>
<glyph name="kgreenlandic" format="1">
  <advance width="1082.0"/>
  <unicode hex="0138"/>
  <outline>
    <contour>
      <point x="159.24" y="0.0" type="line"/>
      <point x="159.24" y="1026.0" type="line"/>
      <point x="371.14" y="1026.0" type="line"/>
      <point x="371.14" y="597.87" type="line"/>
      <point x="773.49" y="1026.0" type="line"/>
      <point x="1062.81" y="1026.0" type="line"/>
      <point x="543.53" y="509.99" type="line"/>
      <point x="822.32" y="254.23"/>
      <point x="800.58" y="271.17"/>
      <point x="1098.8" y="0.0" type="curve"/>
      <point x="816.82" y="0.0" type="line"/>
      <point x="371.14" y="422.76" type="line"/>
      <point x="371.14" y="0.0" type="line"/>
    </contour>
  </outline>
</glyph>
<glyph name="Lslash" format="1">
  <advance width="1146.13"/>
  <unicode hex="0141"/>
  <outline>
    <contour>
      <point x="645.6" y="879.28" type="line"/>
      <point x="31.08" y="450.14" type="line"/>
      <point x="31.08" y="637.39" type="line"/>
      <point x="645.6" y="1066.2" type="line"/>
    </contour>
    <component base="L"/>
  </outline>
</glyph>
<glyph name="lslash" format="1">
  <advance width="503.0"/>
  <unicode hex="0142"/>
  <outline>
    <contour>
      <point x="139.19" y="0.0" type="line"/>
      <point x="139.19" y="710.44" type="line"/>
      <point x="4.02" y="610.44" type="line"/>
      <point x="4.02" y="794.34" type="line"/>
      <point x="138.52" y="894.34" type="line"/>
      <point x="138.52" y="1472.57" type="line"/>
      <point x="351.76" y="1472.57" type="line"/>
      <point x="351.76" y="1042.25" type="line"/>
      <point x="483.23" y="1140.57" type="line"/>
      <point x="483.23" y="954.99" type="line"/>
      <point x="352.43" y="854.33" type="line"/>
      <point x="352.43" y="0.0" type="line"/>
    </contour>
  </outline>
</glyph>
<glyph name="Eng" format="1">
  <advance width="1594.02"/>
  <unicode hex="014A"/>
  <outline>
    <contour>
      <point x="565.5" y="-397.44" type="curve"/>
      <point x="593.47" y="-225.63" type="line"/>
      <point x="702.23365" y="-255.57927"/>
      <point x="804.07052" y="-274.09144"/>
      <point x="891.6362" y="-274.09144" type="curve" smooth="yes"/>
      <point x="1069.43214296" y="-274.09144"/>
      <point x="1184.82585273" y="-218.049131194"/>
      <point x="1189.63510931" y="-18.6288690396" type="curve" smooth="yes"/>
      <point x="1189.87650555" y="-15.8353707528"/>
      <point x="1190.07701885" y="71.6717358509"/>
      <point x="1190.24" y="74.59058" type="curve"/>
      <point x="505.14" y="1006.75" type="line"/>
      <point x="398.64" y="1166.91" type="line"/>
      <point x="398.64" y="0.0" type="line"/>
      <point x="190.76" y="0.0" type="line"/>
      <point x="190.76" y="1456.0" type="line"/>
      <point x="428.85" y="1456.0" type="line"/>
      <point x="1083.88" y="547.03" type="line"/>
      <point x="1190.86" y="388.01" type="line"/>
      <point x="1190.86" y="1456.0" type="line"/>
      <point x="1402.57" y="1456.0" type="line"/>
      <point x="1402.57" y="56.96" type="line" smooth="yes"/>
      <point x="1402.57" y="-284.63"/>
      <point x="1233.3093" y="-442.4858"/>
      <point x="898.02617" y="-442.4858" type="curve" smooth="yes"/>
      <point x="801.15701" y="-442.4858"/>
      <point x="690.109" y="-427.63879"/>
    </contour>
  </outline>
</glyph>
<glyph name="eng" format="1">
  <advance width="1215.83"/>
  <unicode hex="014B"/>
  <outline>
    <contour>
      <point x="236.26" y="-353.71" type="curve"/>
      <point x="263.97" y="-182.88" type="line"/>
      <point x="373.84195" y="-213.09161"/>
      <point x="476.05969" y="-231.61792"/>
      <point x="563.6966" y="-231.61792" type="curve" smooth="yes"/>
      <point x="754.28549" y="-231.61792"/>
      <point x="860.7" y="-141.63919"/>
      <point x="860.7" y="78.81" type="curve" smooth="yes"/>
      <point x="860.7" y="571.87" type="line" smooth="yes"/>
      <point x="860.7" y="775.39"/>
      <point x="824.34" y="879.48"/>
      <point x="657.92" y="879.48" type="curve" smooth="yes"/>
      <point x="520.56" y="879.48"/>
      <point x="380.16" y="756.74"/>
      <point x="379.83" y="630.56" type="curve"/>
      <point x="379.83" y="0.0" type="line"/>
      <point x="167.26" y="0.0" type="line"/>
      <point x="167.26" y="696.59" type="line" smooth="yes"/>
      <point x="167.26" y="889.27"/>
      <point x="153.22" y="1026.0"/>
      <point x="153.22" y="1026.0" type="curve"/>
      <point x="375.16" y="1026.0" type="line"/>
      <point x="376.48" y="880.65" type="line"/>
      <point x="443.75" y="995.33"/>
      <point x="578.13" y="1051.67"/>
      <point x="699.98" y="1051.67" type="curve" smooth="yes"/>
      <point x="957.44" y="1051.67"/>
      <point x="1073.27" y="900.28"/>
      <point x="1073.27" y="570.1" type="curve" smooth="yes"/>
      <point x="1073.27" y="121.59" type="line" smooth="yes"/>
      <point x="1073.27" y="-220.10361"/>
      <point x="905.93057" y="-398.8994"/>
      <point x="569.98831" y="-398.8994" type="curve" smooth="yes"/>
      <point x="472.97043" y="-398.8994"/>
      <point x="361.547" y="-384.01897"/>
    </contour>
  </outline>
</glyph>
<glyph name="OE" format="1">
  <advance width="2052.03"/>
  <unicode hex="0152"/>
  <outline>
    <contour>
      <point x="810.72" y="-23.67" type="curve" smooth="yes"/>
      <point x="401.23" y="-35.67"/>
      <point x="106.66" y="230.13"/>
      <point x="106.66" y="730.34" type="curve" smooth="yes"/>
      <point x="106.66" y="1184.76"/>
      <point x="395.08" y="1477.59"/>
      <point x="785.16" y="1482.33" type="curve" smooth="yes"/>
      <point x="991.82" y="1486.7"/>
      <point x="1088.69" y="1410.18"/>
      <point x="1108.82" y="1391.05" type="curve"/>
      <point x="1108.82" y="1456.0" type="line"/>
      <point x="1930.58" y="1456.0" type="line"/>
      <point x="1930.58" y="1268.47" type="line"/>
      <point x="1327.72" y="1268.47" type="line"/>
      <point x="1327.72" y="839.43" type="line"/>
      <point x="1893.25" y="839.43" type="line"/>
      <point x="1893.25" y="651.23" type="line"/>
      <point x="1329.06" y="651.23" type="line"/>
      <point x="1329.06" y="187.53" type="line"/>
      <point x="1959.91" y="187.53" type="line"/>
      <point x="1959.91" y="0.0" type="line"/>
      <point x="1108.82" y="0.0" type="line"/>
      <point x="1108.82" y="80.88" type="line"/>
      <point x="1084.77" y="55.14"/>
      <point x="979.14" y="-19.0"/>
    </contour>
    <contour>
      <point x="816.7" y="153.14" type="curve" smooth="yes"/>
      <point x="1001.86" y="154.46"/>
      <point x="1083.73" y="229.24"/>
      <point x="1108.82" y="256.96" type="curve"/>
      <point x="1108.82" y="1202.92" type="line"/>
      <point x="1056.86" y="1251.18"/>
      <point x="960.26" y="1304.18"/>
      <point x="794.24" y="1294.8" type="curve" smooth="yes"/>
      <point x="532.67" y="1282.74"/>
      <point x="342.25" y="1082.17"/>
      <point x="342.25" y="725.0" type="curve" smooth="yes"/>
      <point x="342.25" y="373.92"/>
      <point x="517.28" y="150.17"/>
    </contour>
  </outline>
</glyph>
<glyph name="oe" format="1">
  <advance width="1988.76"/>
  <unicode hex="0153"/>
  <outline>
    <contour>
      <point x="1129.13" y="627.09" type="curve"/>
      <point x="1660.38" y="627.09" type="line"/>
      <point x="1660.38" y="630.39"/>
      <point x="1660.38" y="635.03"/>
      <point x="1660.05" y="638.33" type="curve" smooth="yes"/>
      <point x="1643.05" y="776.26"/>
      <point x="1545.08" y="879.81"/>
      <point x="1403.57" y="879.81" type="curve" smooth="yes"/>
      <point x="1253.74" y="879.81"/>
      <point x="1150.18" y="758.61"/>
    </contour>
    <contour>
      <point x="632.73" y="149.52" type="curve" smooth="yes"/>
      <point x="828.25" y="149.52"/>
      <point x="914.85" y="318.43"/>
      <point x="914.85" y="511.0" type="curve" smooth="yes"/>
      <point x="914.85" y="719.56"/>
      <point x="829.93" y="879.81"/>
      <point x="625.4" y="879.81" type="curve" smooth="yes"/>
      <point x="426.2" y="879.81"/>
      <point x="319.93" y="716.56"/>
      <point x="319.6" y="507.67" type="curve" smooth="yes"/>
      <point x="319.27" y="312.1"/>
      <point x="416.21" y="149.52"/>
    </contour>
    <contour>
      <point x="628.41" y="-22.0" type="curve" smooth="yes"/>
      <point x="291.09" y="-22.0"/>
      <point x="97.36" y="205.97"/>
      <point x="97.36" y="510.34" type="curve" smooth="yes"/>
      <point x="97.36" y="812.03"/>
      <point x="282.72" y="1052.0"/>
      <point x="626.7" y="1052.0" type="curve" smooth="yes"/>
      <point x="818.68" y="1052.0"/>
      <point x="947.67" y="966.38"/>
      <point x="1022.98" y="843.86" type="curve"/>
      <point x="1100.0" y="975.42"/>
      <point x="1215.92" y="1054.01"/>
      <point x="1402.94" y="1054.01" type="curve" smooth="yes"/>
      <point x="1696.94" y="1054.01"/>
      <point x="1860.98" y="834.33"/>
      <point x="1860.98" y="513.57" type="curve" smooth="yes"/>
      <point x="1860.98" y="457.83" type="line"/>
      <point x="1127.79" y="457.83" type="line"/>
      <point x="1128.46" y="453.14"/>
      <point x="1128.46" y="431.24"/>
      <point x="1129.13" y="427.22" type="curve"/>
      <point x="1145.18" y="261.03"/>
      <point x="1264.06" y="149.52"/>
      <point x="1455.35" y="149.52" type="curve" smooth="yes"/>
      <point x="1651.19" y="149.52"/>
      <point x="1774.34" y="256.21"/>
      <point x="1774.34" y="256.21" type="curve"/>
      <point x="1836.05" y="100.05" type="line"/>
      <point x="1836.05" y="100.05"/>
      <point x="1699.23" y="-22.0"/>
      <point x="1432.31" y="-22.0" type="curve" smooth="yes"/>
      <point x="1264.04" y="-22.0"/>
      <point x="1093.03" y="60.6"/>
      <point x="1022.0" y="191.12" type="curve"/>
      <point x="956.0" y="59.96"/>
      <point x="796.65" y="-22.0"/>
    </contour>
  </outline>
</glyph>
<glyph name="Tbar" format="1">
  <advance width="1160.47"/>
  <unicode hex="0166"/>
  <outline>
    <contour>
      <point x="220.48" y="623.74" type="line"/>
      <point x="220.48" y="783.52" type="line"/>
      <point x="921.64" y="783.52" type="line"/>
      <point x="921.64" y="623.74" type="line"/>
    </contour>
    <component base="T"/>
  </outline>
</glyph>
<glyph name="florin" format="1">
  <advance width="1088.74"/>
  <unicode hex="0192"/>
  <outline>
    <contour>
      <point x="202.07" y="-306.11" type="curve" smooth="yes"/>
      <point x="189.25" y="-306.11"/>
      <point x="141.83" y="-302.49"/>
      <point x="95.31" y="-288.73" type="curve"/>
      <point x="111.07" y="-118.85" type="line"/>
      <point x="111.07" y="-118.85"/>
      <point x="157.45" y="-129.47"/>
      <point x="197.73" y="-129.47" type="curve" smooth="yes"/>
      <point x="267.44" y="-129.47"/>
      <point x="329.34" y="-96.07"/>
      <point x="357.93" y="58.09" type="curve" smooth="yes"/>
      <point x="478.88" y="731.0" type="line"/>
      <point x="331.92" y="731.0" type="line"/>
      <point x="363.34" y="872.29" type="line"/>
      <point x="505.09" y="872.29" type="line"/>
      <point x="550.34" y="1117.82" type="line" smooth="yes"/>
      <point x="577.34" y="1271.98"/>
      <point x="639.82" y="1460.51"/>
      <point x="895.59" y="1460.51" type="curve" smooth="yes"/>
      <point x="1003.4" y="1460.51"/>
      <point x="1068.74" y="1421.54"/>
      <point x="1068.74" y="1421.54" type="curve"/>
      <point x="1052.05" y="1256.73" type="line"/>
      <point x="1052.05" y="1256.73"/>
      <point x="989.84" y="1276.42"/>
      <point x="938.84" y="1276.42" type="curve" smooth="yes"/>
      <point x="861.48" y="1276.42"/>
      <point x="803.92" y="1244.57"/>
      <point x="781.78" y="1129.01" type="curve" smooth="yes"/>
      <point x="731.12" y="872.29" type="line"/>
      <point x="909.83" y="872.29" type="line"/>
      <point x="881.31" y="731.0" type="line"/>
      <point x="701.77" y="731.0" type="line"/>
      <point x="583.02" y="67.26" type="line" smooth="yes"/>
      <point x="536.19" y="-194.2"/>
      <point x="427.75" y="-306.11"/>
    </contour>
  </outline>
</glyph>
<glyph name="dotlessj" format="1">
  <advance width="503.0"/>
  <unicode hex="0237"/>
  <outline>
    <contour>
      <point x="23.68" y="-410.25" type="curve" smooth="yes"/>
      <point x="-16.67" y="-410.25"/>
      <point x="-64.37" y="-405.57"/>
      <point x="-123.11" y="-393.89" type="curve"/>
      <point x="-123.44" y="-212.7" type="line"/>
      <point x="-67.34" y="-225.06"/>
      <point x="-36.99" y="-228.73"/>
      <point x="-17.33" y="-228.73" type="curve" smooth="yes"/>
      <point x="83.19" y="-228.73"/>
      <point x="143.51" y="-141.11"/>
      <point x="143.51" y="51.77" type="curve" smooth="yes"/>
      <point x="143.51" y="1026.0" type="line"/>
      <point x="355.41" y="1026.0" type="line"/>
      <point x="355.41" y="99.3" type="line" smooth="yes"/>
      <point x="355.41" y="-128.01"/>
      <point x="319.37" y="-410.25"/>
    </contour>
  </outline>
</glyph>
<glyph name="circumflex" format="1">
  <advance width="699.0"/>
  <unicode hex="02C6"/>
  <outline>
    <contour>
      <point x="0.25" y="1132.74" type="line"/>
      <point x="245.5" y="1487.17" type="line"/>
      <point x="449.74" y="1487.17" type="line"/>
      <point x="699.13" y="1132.74" type="line"/>
      <point x="506.41" y="1132.74" type="line"/>
      <point x="346.0" y="1314.94" type="line"/>
      <point x="184.21" y="1132.74" type="line"/>
    </contour>
  </outline>
</glyph>
<glyph name="caron" format="1">
  <advance width="699.0"/>
  <unicode hex="02C7"/>
  <outline>
    <contour>
      <point x="259.58" y="1132.74" type="line"/>
      <point x="-3.57" y="1486.48" type="line"/>
      <point x="203.46" y="1486.48" type="line"/>
      <point x="344.0" y="1302.84" type="line"/>
      <point x="487.16" y="1486.48" type="line"/>
      <point x="703.26" y="1486.48" type="line"/>
      <point x="441.8" y="1132.74" type="line"/>
    </contour>
  </outline>
</glyph>
<glyph name="breve" format="1">
  <advance width="654.24"/>
  <unicode hex="02D8"/>
  <outline>
    <contour>
      <point x="329.12" y="1179.71" type="curve" smooth="yes"/>
      <point x="149.63" y="1179.71"/>
      <point x="44.31" y="1261.54"/>
      <point x="30.62" y="1456.0" type="curve"/>
      <point x="181.74" y="1456.0" type="line"/>
      <point x="189.12" y="1353.79"/>
      <point x="252.16" y="1330.52"/>
      <point x="329.12" y="1330.52" type="curve" smooth="yes"/>
      <point x="406.08" y="1330.52"/>
      <point x="463.88" y="1355.34"/>
      <point x="474.5" y="1456.0" type="curve"/>
      <point x="623.62" y="1456.0" type="line"/>
      <point x="610.24" y="1262.47"/>
      <point x="506.13" y="1179.71"/>
    </contour>
  </outline>
</glyph>
<glyph name="ring" format="1">
  <advance width="659.27"/>
  <unicode hex="02DA"/>
  <outline>
    <contour>
      <point x="329.47" y="1383.26" type="curve" smooth="yes"/>
      <point x="388.47" y="1383.26"/>
      <point x="436.47" y="1334.6"/>
      <point x="436.47" y="1274.6" type="curve" smooth="yes"/>
      <point x="436.47" y="1214.27"/>
      <point x="388.47" y="1164.94"/>
      <point x="329.47" y="1164.94" type="curve" smooth="yes"/>
      <point x="271.14" y="1164.94"/>
      <point x="223.14" y="1214.27"/>
      <point x="223.14" y="1274.6" type="curve" smooth="yes"/>
      <point x="223.14" y="1334.6"/>
      <point x="271.14" y="1383.26"/>
    </contour>
    <contour>
      <point x="330.13" y="1478.0" type="curve" smooth="yes"/>
      <point x="214.09" y="1478.0"/>
      <point x="120.39" y="1392.64"/>
      <point x="120.39" y="1274.6" type="curve" smooth="yes"/>
      <point x="120.39" y="1156.9"/>
      <point x="214.09" y="1070.87"/>
      <point x="330.13" y="1070.87" type="curve" smooth="yes"/>
      <point x="445.17" y="1070.87"/>
      <point x="539.54" y="1156.9"/>
      <point x="539.54" y="1274.6" type="curve" smooth="yes"/>
      <point x="539.54" y="1392.64"/>
      <point x="445.17" y="1478.0"/>
    </contour>
  </outline>
</glyph>
<glyph name="ogonek" format="1">
  <advance width="508.0"/>
  <unicode hex="02DB"/>
  <outline>
    <contour>
      <point x="251.26" y="-379.28" type="curve" smooth="yes"/>
      <point x="126.58" y="-379.28"/>
      <point x="33.26" y="-331.67"/>
      <point x="33.26" y="-231.7" type="curve" smooth="yes"/>
      <point x="33.26" y="-103.57"/>
      <point x="175.44" y="-27.26"/>
      <point x="265.01" y="17.36" type="curve"/>
      <point x="393.34" y="13.4" type="line"/>
      <point x="291.75" y="-46.88"/>
      <point x="223.17" y="-125.28"/>
      <point x="223.17" y="-182.92" type="curve" smooth="yes"/>
      <point x="223.17" y="-227.56"/>
      <point x="263.11" y="-246.83"/>
      <point x="307.09" y="-246.83" type="curve" smooth="yes"/>
      <point x="367.42" y="-246.83"/>
      <point x="432.22" y="-226.11"/>
      <point x="469.13" y="-213.82" type="curve"/>
      <point x="469.13" y="-343.58" type="line"/>
      <point x="400.99" y="-365.61"/>
      <point x="319.3" y="-379.28"/>
    </contour>
  </outline>
</glyph>
<glyph name="tilde" format="1">
  <advance width="698.27"/>
  <unicode hex="02DC"/>
  <outline>
    <contour>
      <point x="3.3" y="1161.52" type="line"/>
      <point x="3.3" y="1316.3"/>
      <point x="80.71" y="1423.05"/>
      <point x="202.09" y="1423.05" type="curve" smooth="yes"/>
      <point x="309.83" y="1423.05"/>
      <point x="422.15" y="1324.71"/>
      <point x="487.09" y="1320.69" type="curve" smooth="yes"/>
      <point x="529.41" y="1318.01"/>
      <point x="552.84" y="1338.59"/>
      <point x="555.48" y="1423.05" type="curve"/>
      <point x="694.97" y="1423.05" type="line"/>
      <point x="694.97" y="1250.18"/>
      <point x="620.53" y="1153.55"/>
      <point x="494.14" y="1156.52" type="curve" smooth="yes"/>
      <point x="404.42" y="1158.5"/>
      <point x="277.73" y="1259.88"/>
      <point x="210.77" y="1259.88" type="curve" smooth="yes"/>
      <point x="173.85" y="1259.88"/>
      <point x="146.46" y="1229.91"/>
      <point x="139.46" y="1161.52" type="curve"/>
    </contour>
  </outline>
</glyph>
<glyph name="hungarumlaut" format="1">
  <advance width="969.0"/>
  <unicode hex="02DD"/>
  <outline>
    <contour>
      <point x="96.05" y="1141.17" type="line"/>
      <point x="301.66" y="1484.32" type="line"/>
      <point x="539.3" y="1484.32" type="line"/>
      <point x="248.89" y="1141.17" type="line"/>
    </contour>
    <contour>
      <point x="396.55" y="1141.17" type="line"/>
      <point x="627.94" y="1484.32" type="line"/>
      <point x="876.3" y="1484.32" type="line"/>
      <point x="554.74" y="1141.17" type="line"/>
    </contour>
  </outline>
</glyph>
<glyph name="uni0311" format="1">
  <advance width="629"/>
  <unicode hex="0311"/>
  <outline>
    <contour>
      <point x="32" y="1218" type="line"/>
      <point x="45" y="1379"/>
      <point x="151" y="1456"/>
      <point x="316" y="1456" type="curve" smooth="yes"/>
      <point x="473" y="1456"/>
      <point x="584" y="1376"/>
      <point x="596" y="1218" type="curve"/>
      <point x="510" y="1218" type="line"/>
      <point x="488" y="1309"/>
      <point x="398" y="1347"/>
      <point x="310" y="1347" type="curve" smooth="yes"/>
      <point x="222" y="1347"/>
      <point x="136" y="1314"/>
      <point x="120" y="1218" type="curve"/>
    </contour>
  </outline>
</glyph>
<glyph name="Omega" format="1">
  <advance width="1603.0"/>
  <unicode hex="03A9"/>
  <outline>
    <contour>
      <point x="88.59" y="0.0" type="line"/>
      <point x="54.81" y="176.86" type="line"/>
      <point x="366.66" y="175.19" type="line"/>
      <point x="202.12" y="316.2"/>
      <point x="95.24" y="546.24"/>
      <point x="95.24" y="799.45" type="curve" smooth="yes"/>
      <point x="95.24" y="1208.11"/>
      <point x="392.91" y="1469.77"/>
      <point x="792.92" y="1469.77" type="curve" smooth="yes"/>
      <point x="1207.93" y="1469.77"/>
      <point x="1469.61" y="1176.77"/>
      <point x="1469.61" y="791.43" type="curve" smooth="yes"/>
      <point x="1469.61" y="532.56"/>
      <point x="1343.1" y="307.85"/>
      <point x="1191.85" y="175.19" type="curve"/>
      <point x="1246.79" y="175.19"/>
      <point x="1414.66" y="176.86"/>
      <point x="1466.92" y="176.86" type="curve"/>
      <point x="1449.88" y="0.0" type="line"/>
      <point x="906.1" y="0.0" type="line"/>
      <point x="900.76" y="149.14" type="line"/>
      <point x="1096.72" y="282.79"/>
      <point x="1241.36" y="525.54"/>
      <point x="1241.36" y="777.45" type="curve" smooth="yes"/>
      <point x="1241.36" y="1052.01"/>
      <point x="1089.44" y="1290.91"/>
      <point x="789.93" y="1290.91" type="curve" smooth="yes"/>
      <point x="515.4" y="1290.91"/>
      <point x="324.49" y="1081.65"/>
      <point x="324.49" y="781.11" type="curve" smooth="yes"/>
      <point x="324.49" y="529.2"/>
      <point x="460.8" y="278.78"/>
      <point x="659.42" y="149.14" type="curve"/>
      <point x="663.76" y="0.0" type="line"/>
    </contour>
  </outline>
</glyph>
<glyph name="pi" format="1">
  <advance width="1288.0"/>
  <unicode hex="03C0"/>
  <outline>
    <contour>
      <point x="1055.62" y="-14.7" type="curve" smooth="yes"/>
      <point x="900.94" y="-14.7"/>
      <point x="814.1" y="65.97"/>
      <point x="814.1" y="270.98" type="curve" smooth="yes"/>
      <point x="814.1" y="866.53" type="line"/>
      <point x="516.61" y="866.53" type="line"/>
      <point x="516.61" y="866.53"/>
      <point x="486.09" y="150.85"/>
      <point x="389.79" y="0.0" type="curve"/>
      <point x="176.56" y="0.0" type="line"/>
      <point x="279.53" y="166.44"/>
      <point x="309.45" y="559.36"/>
      <point x="322.74" y="866.53" type="curve"/>
      <point x="203.73" y="863.53"/>
      <point x="115.79" y="838.16"/>
      <point x="69.25" y="805.86" type="curve"/>
      <point x="52.25" y="963.0" type="line"/>
      <point x="98.49" y="1001.6"/>
      <point x="196.47" y="1026.0"/>
      <point x="347.01" y="1026.0" type="curve" smooth="yes"/>
      <point x="1214.0" y="1026.0" type="line"/>
      <point x="1214.0" y="866.53" type="line"/>
      <point x="1011.65" y="866.53" type="line"/>
      <point x="1011.65" y="298.18" type="line" smooth="yes"/>
      <point x="1011.65" y="238.51"/>
      <point x="1012.65" y="154.49"/>
      <point x="1108.99" y="154.49" type="curve" smooth="yes"/>
      <point x="1129.66" y="154.49"/>
      <point x="1156.66" y="158.49"/>
      <point x="1188.33" y="167.49" type="curve"/>
      <point x="1187.33" y="147.49"/>
      <point x="1185.33" y="107.39"/>
      <point x="1185.33" y="87.72" type="curve" smooth="yes"/>
      <point x="1185.33" y="56.72"/>
      <point x="1188.33" y="30.97"/>
      <point x="1198.0" y="-0.7" type="curve"/>
      <point x="1146.66" y="-9.7"/>
      <point x="1094.29" y="-14.7"/>
    </contour>
  </outline>
</glyph>
<glyph name="endash" format="1">
  <advance width="1085.0"/>
  <unicode hex="2013"/>
  <outline>
    <contour>
      <point x="-8.01" y="468.23" type="line"/>
      <point x="-8.01" y="644.09" type="line"/>
      <point x="1090.7" y="644.09" type="line"/>
      <point x="1090.7" y="468.23" type="line"/>
    </contour>
  </outline>
</glyph>
<glyph name="emdash" format="1">
  <advance width="2171.0"/>
  <unicode hex="2014"/>
  <outline>
    <contour>
      <point x="19.11" y="468.23" type="line"/>
      <point x="19.11" y="644.09" type="line"/>
      <point x="2147.27" y="644.09" type="line"/>
      <point x="2147.27" y="468.23" type="line"/>
    </contour>
  </outline>
</glyph>
<glyph name="uni2015" format="1">
  <advance width="4096.0"/>
  <unicode hex="2015"/>
  <outline>
    <contour>
      <point x="58.64" y="468.23" type="line"/>
      <point x="58.64" y="634.71" type="line"/>
      <point x="4037.36" y="634.71" type="line"/>
      <point x="4037.36" y="468.23" type="line"/>
    </contour>
  </outline>
</glyph>
<glyph name="quoteleft" format="1">
  <advance width="540.9"/>
  <unicode hex="2018"/>
  <outline>
    <contour>
      <point x="423.6" y="874.6" type="line"/>
      <point x="284.82" y="874.6" type="line"/>
      <point x="125.44" y="1456.0" type="line"/>
      <point x="378.32" y="1456.0" type="line"/>
    </contour>
  </outline>
</glyph>
<glyph name="quotesinglbase" format="1">
  <advance width="634.74"/>
  <unicode hex="201A"/>
  <outline>
    <contour>
      <point x="144.43" y="-318.05" type="line"/>
      <point x="255.79" y="235.84" type="line"/>
      <point x="484.43" y="235.84" type="line"/>
      <point x="325.69" y="-318.05" type="line"/>
    </contour>
  </outline>
</glyph>
<glyph name="quotedblleft" format="1">
  <advance width="1024.0"/>
  <unicode hex="201C"/>
  <outline>
    <contour>
      <point x="150.2" y="874.6" type="line"/>
      <point x="326.3" y="1456.0" type="line"/>
      <point x="502.85" y="1456.0" type="line"/>
      <point x="392.49" y="874.6" type="line"/>
    </contour>
    <contour>
      <point x="564.85" y="874.6" type="line"/>
      <point x="732.92" y="1456.0" type="line"/>
      <point x="910.14" y="1456.0" type="line"/>
      <point x="800.78" y="874.6" type="line"/>
    </contour>
  </outline>
</glyph>
<glyph name="quotedblright" format="1">
  <advance width="1024.0"/>
  <unicode hex="201D"/>
  <outline>
    <contour>
      <point x="189.91" y="874.6" type="line"/>
      <point x="297.26" y="1456.0" type="line"/>
      <point x="532.86" y="1456.0" type="line"/>
      <point x="368.5" y="874.6" type="line"/>
    </contour>
    <contour>
      <point x="567.5" y="874.6" type="line"/>
      <point x="677.19" y="1456.0" type="line"/>
      <point x="910.78" y="1456.0" type="line"/>
      <point x="747.4" y="874.6" type="line"/>
    </contour>
  </outline>
</glyph>
<glyph name="quotedblbase" format="1">
  <advance width="1024.0"/>
  <unicode hex="201E"/>
  <outline>
    <contour>
      <point x="124.18" y="-227.65" type="line"/>
      <point x="232.63" y="236.88" type="line"/>
      <point x="468.45" y="236.88" type="line"/>
      <point x="309.93" y="-227.65" type="line"/>
    </contour>
    <contour>
      <point x="507.33" y="-227.65" type="line"/>
      <point x="616.16" y="236.88" type="line"/>
      <point x="852.29" y="236.88" type="line"/>
      <point x="689.32" y="-227.65" type="line"/>
    </contour>
  </outline>
</glyph>
<glyph name="dagger" format="1">
  <advance width="1022.0"/>
  <unicode hex="2020"/>
  <outline>
    <contour>
      <point x="409.55" y="108.31" type="line"/>
      <point x="409.55" y="894.47" type="line"/>
      <point x="83.55" y="894.47" type="line"/>
      <point x="83.55" y="1064.66" type="line"/>
      <point x="409.55" y="1064.66" type="line"/>
      <point x="409.55" y="1432.91" type="line"/>
      <point x="583.71" y="1432.91" type="line"/>
      <point x="583.71" y="1064.66" type="line"/>
      <point x="919.0" y="1064.66" type="line"/>
      <point x="919.0" y="894.47" type="line"/>
      <point x="579.09" y="894.47" type="line"/>
      <point x="579.09" y="108.31" type="line"/>
    </contour>
  </outline>
</glyph>
<glyph name="daggerdbl" format="1">
  <advance width="1124.33"/>
  <unicode hex="2021"/>
  <outline>
    <contour>
      <point x="474.07" y="-66.8" type="line"/>
      <point x="474.07" y="390.74" type="line"/>
      <point x="133.4" y="390.74" type="line"/>
      <point x="133.4" y="535.26" type="line"/>
      <point x="474.07" y="535.26" type="line"/>
      <point x="474.07" y="914.82" type="line"/>
      <point x="138.06" y="914.82" type="line"/>
      <point x="138.06" y="1065.68" type="line"/>
      <point x="474.07" y="1065.68" type="line"/>
      <point x="474.07" y="1456.0" type="line"/>
      <point x="658.31" y="1456.0" type="line"/>
      <point x="658.31" y="1065.68" type="line"/>
      <point x="990.93" y="1065.68" type="line"/>
      <point x="990.93" y="914.82" type="line"/>
      <point x="658.31" y="914.82" type="line"/>
      <point x="658.31" y="535.26" type="line"/>
      <point x="982.59" y="535.26" type="line"/>
      <point x="982.59" y="390.74" type="line"/>
      <point x="658.64" y="390.74" type="line"/>
      <point x="658.64" y="-66.8" type="line"/>
    </contour>
  </outline>
</glyph>
<glyph name="bullet" format="1">
  <advance width="989.33"/>
  <unicode hex="2022"/>
  <outline>
    <contour>
      <point x="493.0" y="369.59" type="curve" smooth="yes"/>
      <point x="295.28" y="369.59"/>
      <point x="161.28" y="516.62"/>
      <point x="161.28" y="687.3" type="curve" smooth="yes"/>
      <point x="161.28" y="861.98"/>
      <point x="306.31" y="1010.0"/>
      <point x="493.0" y="1010.0" type="curve" smooth="yes"/>
      <point x="686.38" y="1010.0"/>
      <point x="828.05" y="860.32"/>
      <point x="828.05" y="687.3" type="curve" smooth="yes"/>
      <point x="828.05" y="513.29"/>
      <point x="681.69" y="369.59"/>
    </contour>
  </outline>
</glyph>
<glyph name="ellipsis" format="1">
  <advance width="1620.0"/>
  <unicode hex="2026"/>
  <outline>
    <contour>
      <point x="132.78" y="-11.0" type="line"/>
      <point x="132.78" y="234.88" type="line"/>
      <point x="399.46" y="234.88" type="line"/>
      <point x="400.15" y="-11.0" type="line"/>
    </contour>
    <contour>
      <point x="661.74" y="-11.0" type="line"/>
      <point x="661.74" y="234.88" type="line"/>
      <point x="928.42" y="234.88" type="line"/>
      <point x="929.11" y="-11.0" type="line"/>
    </contour>
    <contour>
      <point x="1190.7" y="-11.0" type="line"/>
      <point x="1190.7" y="234.88" type="line"/>
      <point x="1456.0" y="234.88" type="line"/>
      <point x="1456.0" y="-11.0" type="line"/>
    </contour>
  </outline>
</glyph>
<glyph name="perthousand" format="1">
  <advance width="2653.28"/>
  <unicode hex="2030"/>
  <outline>
    <contour>
      <point x="2204.82" y="-22.86" type="curve" smooth="yes"/>
      <point x="1981.75" y="-22.86"/>
      <point x="1851.43" y="138.83"/>
      <point x="1851.43" y="352.04" type="curve" smooth="yes"/>
      <point x="1851.43" y="559.8"/>
      <point x="1983.23" y="729.49"/>
      <point x="2206.68" y="729.49" type="curve" smooth="yes"/>
      <point x="2431.68" y="729.49"/>
      <point x="2559.76" y="562.28"/>
      <point x="2559.76" y="353.59" type="curve" smooth="yes"/>
      <point x="2559.76" y="140.38"/>
      <point x="2427.27" y="-22.86"/>
    </contour>
    <contour>
      <point x="2205.75" y="115.67" type="curve" smooth="yes"/>
      <point x="2325.91" y="115.67"/>
      <point x="2376.43" y="202.17"/>
      <point x="2376.43" y="353.9" type="curve" smooth="yes"/>
      <point x="2376.43" y="500.59"/>
      <point x="2330.74" y="590.96"/>
      <point x="2206.37" y="590.96" type="curve" smooth="yes"/>
      <point x="2080.45" y="590.96"/>
      <point x="2034.76" y="496.25"/>
      <point x="2034.76" y="351.73" type="curve" smooth="yes"/>
      <point x="2034.76" y="198.76"/>
      <point x="2085.9" y="115.67"/>
    </contour>
    <component base="percent"/>
  </outline>
</glyph>
<glyph name="guilsinglleft" format="1">
  <advance width="702.48"/>
  <unicode hex="2039"/>
  <outline>
    <contour>
      <point x="411.69" y="163.63" type="line"/>
      <point x="138.0" y="541.0" type="line"/>
      <point x="417.36" y="918.69" type="line"/>
      <point x="596.5" y="918.69" type="line"/>
      <point x="352.87" y="540.33" type="line"/>
      <point x="588.5" y="163.63" type="line"/>
    </contour>
  </outline>
</glyph>
<glyph name="guilsinglright" format="1">
  <advance width="702.48"/>
  <unicode hex="203A"/>
  <outline>
    <contour>
      <point x="290.79" y="918.02" type="line"/>
      <point x="564.48" y="540.65" type="line"/>
      <point x="285.12" y="162.96" type="line"/>
      <point x="105.98" y="162.96" type="line"/>
      <point x="349.61" y="541.32" type="line"/>
      <point x="113.98" y="918.02" type="line"/>
    </contour>
  </outline>
</glyph>
<glyph name="fraction" format="1">
  <advance width="1099.56"/>
  <unicode hex="2044"/>
  <outline>
    <contour>
      <point x="0.0" y="0.0" type="line"/>
      <point x="893.61" y="1456.0" type="line"/>
      <point x="1099.56" y="1456.0" type="line"/>
      <point x="207.28" y="0.0" type="line"/>
    </contour>
  </outline>
</glyph>
<glyph name="foursuperior" format="1">
  <advance width="897.0"/>
  <unicode hex="2074"/>
  <outline>
    <contour>
      <point x="455.36" y="636.39" type="line"/>
      <point x="455.36" y="827.84" type="line"/>
      <point x="82.88" y="827.84" type="line"/>
      <point x="82.88" y="931.95" type="line"/>
      <point x="450.26" y="1442.36" type="line"/>
      <point x="611.86" y="1442.36" type="line"/>
      <point x="611.86" y="950.71" type="line"/>
      <point x="725.69" y="950.71" type="line"/>
      <point x="728.79" y="827.84" type="line"/>
      <point x="611.24" y="827.84" type="line"/>
      <point x="611.24" y="636.39" type="line"/>
    </contour>
    <contour>
      <point x="247.41" y="950.71" type="line"/>
      <point x="453.36" y="950.71" type="line"/>
      <point x="453.36" y="1241.93" type="line"/>
    </contour>
  </outline>
</glyph>
<glyph name="Euro" format="1">
  <advance width="1190.0"/>
  <unicode hex="20AC"/>
  <outline>
    <contour>
      <point x="1077.48" y="82.59" type="curve"/>
      <point x="1078.1" y="249.22" type="line"/>
      <point x="977.05" y="210.58"/>
      <point x="862.88" y="164.33"/>
      <point x="745.61" y="164.33" type="curve" smooth="yes"/>
      <point x="550.25" y="164.33"/>
      <point x="449.22" y="298.11"/>
      <point x="418.22" y="493.23" type="curve"/>
      <point x="932.62" y="493.23" type="line"/>
      <point x="955.07" y="641.58" type="line"/>
      <point x="402.84" y="641.58" type="line"/>
      <point x="398.7" y="656.76"/>
      <point x="398.08" y="765.48"/>
      <point x="400.46" y="785.38" type="curve"/>
      <point x="962.86" y="785.38" type="line"/>
      <point x="987.69" y="926.83" type="line"/>
      <point x="424.67" y="926.83" type="line"/>
      <point x="472.74" y="1108.23"/>
      <point x="573.42" y="1247.11"/>
      <point x="755.99" y="1247.11" type="curve" smooth="yes"/>
      <point x="857.81" y="1247.11"/>
      <point x="969.02" y="1205.22"/>
      <point x="1058.27" y="1126.51" type="curve"/>
      <point x="1101.17" y="1298.95" type="line"/>
      <point x="1011.96" y="1387.92"/>
      <point x="896.37" y="1429.37"/>
      <point x="759.54" y="1429.37" type="curve" smooth="yes"/>
      <point x="447.68" y="1429.37"/>
      <point x="255.37" y="1221.41"/>
      <point x="195.23" y="926.83" type="curve"/>
      <point x="77.68" y="926.83" type="line"/>
      <point x="50.16" y="785.38" type="line"/>
      <point x="172.78" y="785.38" type="line"/>
      <point x="169.02" y="757.55"/>
      <point x="169.33" y="660.89"/>
      <point x="173.09" y="641.58" type="curve"/>
      <point x="78.68" y="641.58" type="line"/>
      <point x="54.54" y="493.23" type="line"/>
      <point x="189.54" y="493.23" type="line"/>
      <point x="236.06" y="187.03"/>
      <point x="403.3" y="-21.0"/>
      <point x="730.99" y="-21.0" type="curve" smooth="yes"/>
      <point x="856.13" y="-21.0"/>
      <point x="972.27" y="11.45"/>
    </contour>
  </outline>
</glyph>
<glyph name="trademark" format="1">
  <advance width="1869.0"/>
  <unicode hex="2122"/>
  <outline>
    <contour>
      <point x="814.31" y="658.84" type="line"/>
      <point x="814.31" y="1434.56" type="line"/>
      <point x="1008.83" y="1434.56" type="line"/>
      <point x="1253.71" y="897.16" type="line"/>
      <point x="1501.87" y="1434.56" type="line"/>
      <point x="1693.09" y="1434.56" type="line"/>
      <point x="1693.09" y="658.84" type="line"/>
      <point x="1532.54" y="658.84" type="line"/>
      <point x="1532.54" y="1172.45" type="line"/>
      <point x="1303.11" y="658.84" type="line"/>
      <point x="1200.65" y="658.84" type="line"/>
      <point x="971.18" y="1165.42" type="line"/>
      <point x="971.18" y="658.84" type="line"/>
    </contour>
    <contour>
      <point x="304.91" y="658.84" type="line"/>
      <point x="304.91" y="1294.03" type="line"/>
      <point x="72.01" y="1294.03" type="line"/>
      <point x="72.01" y="1434.56" type="line"/>
      <point x="707.33" y="1434.56" type="line"/>
      <point x="707.33" y="1294.03" type="line"/>
      <point x="469.11" y="1294.03" type="line"/>
      <point x="469.11" y="658.84" type="line"/>
    </contour>
  </outline>
</glyph>
<glyph name="partialdiff" format="1">
  <advance width="1162.93"/>
  <unicode hex="2202"/>
  <outline>
    <contour>
      <point x="483.41" y="-24.0" type="curve" smooth="yes"/>
      <point x="877.24" y="-24.0"/>
      <point x="1066.79" y="410.72"/>
      <point x="1066.79" y="835.44" type="curve" smooth="yes"/>
      <point x="1066.79" y="1302.37"/>
      <point x="878.03" y="1510.92"/>
      <point x="571.13" y="1510.92" type="curve" smooth="yes"/>
      <point x="453.75" y="1510.92"/>
      <point x="334.16" y="1471.54"/>
      <point x="249.33" y="1411.64" type="curve"/>
      <point x="262.4" y="1252.97" type="line"/>
      <point x="321.84" y="1288.41"/>
      <point x="428.67" y="1338.97"/>
      <point x="552.96" y="1338.97" type="curve" smooth="yes"/>
      <point x="725.7" y="1338.97"/>
      <point x="838.52" y="1188.78"/>
      <point x="845.42" y="946.88" type="curve" smooth="yes"/>
      <point x="846.11" y="931.85"/>
      <point x="845.8" y="870.88"/>
      <point x="845.8" y="857.4" type="curve"/>
      <point x="817.08" y="923.81"/>
      <point x="721.15" y="1002.0"/>
      <point x="577.42104" y="1002.0" type="curve" smooth="yes"/>
      <point x="293.58" y="1002.0"/>
      <point x="61.3" y="748.69"/>
      <point x="61.3" y="424.83" type="curve" smooth="yes"/>
      <point x="61.3" y="171.38"/>
      <point x="205.13" y="-24.0"/>
    </contour>
    <contour>
      <point x="484.34" y="151.02" type="curve" smooth="yes"/>
      <point x="358.11" y="151.02"/>
      <point x="279.98" y="258.22"/>
      <point x="279.98" y="421.14" type="curve" smooth="yes"/>
      <point x="279.98" y="641.37"/>
      <point x="416.66" y="831.74"/>
      <point x="594.2" y="831.74" type="curve" smooth="yes"/>
      <point x="703.91" y="831.74"/>
      <point x="791.87" y="742.47"/>
      <point x="829.49" y="648.79" type="curve"/>
      <point x="784.14" y="310.46"/>
      <point x="665.9" y="151.02"/>
    </contour>
  </outline>
</glyph>
<glyph name="uni2206" format="1">
  <advance width="1310.65"/>
  <unicode hex="2206"/>
  <outline>
    <contour>
      <point x="39.33" y="0.0" type="line"/>
      <point x="1267.69" y="0.0" type="line"/>
      <point x="1267.69" y="95.41" type="line"/>
      <point x="749.18" y="1410.91" type="line"/>
      <point x="558.84" y="1410.91" type="line"/>
      <point x="39.33" y="95.41" type="line"/>
    </contour>
    <contour>
      <point x="315.13" y="185.97" type="line"/>
      <point x="378.78" y="366.87"/>
      <point x="584.98" y="892.84"/>
      <point x="648.63" y="1074.41" type="curve"/>
      <point x="716.97" y="889.49"/>
      <point x="918.87" y="369.55"/>
      <point x="987.21" y="185.97" type="curve"/>
    </contour>
  </outline>
</glyph>
<glyph name="product" format="1">
  <advance width="1568.0"/>
  <unicode hex="220F"/>
  <outline>
    <contour>
      <point x="227.54" y="-100.0" type="line"/>
      <point x="227.54" y="1277.88" type="line"/>
      <point x="75.43" y="1277.88" type="line"/>
      <point x="74.81" y="1456.0" type="line"/>
      <point x="1449.1" y="1456.0" type="line"/>
      <point x="1450.48" y="1277.88" type="line"/>
      <point x="1321.48" y="1277.88" type="line"/>
      <point x="1321.48" y="-100.0" type="line"/>
      <point x="1082.76" y="-100.0" type="line"/>
      <point x="1082.76" y="1277.88" type="line"/>
      <point x="460.5" y="1277.88" type="line"/>
      <point x="460.5" y="-100.0" type="line"/>
    </contour>
  </outline>
</glyph>
<glyph name="summation" format="1">
  <advance width="1224.82"/>
  <unicode hex="2211"/>
  <outline>
    <contour>
      <point x="98.62" y="-201.92" type="line"/>
      <point x="98.62" y="-88.94" type="line"/>
      <point x="610.62" y="636.78" type="line"/>
      <point x="120.0" y="1343.92" type="line"/>
      <point x="120.0" y="1455.38" type="line"/>
      <point x="1119.16" y="1455.38" type="line"/>
      <point x="1119.16" y="1282.53" type="line"/>
      <point x="424.9" y="1282.53" type="line"/>
      <point x="862.17" y="641.33" type="line"/>
      <point x="404.87" y="-23.62" type="line"/>
      <point x="1161.16" y="-23.62" type="line"/>
      <point x="1161.16" y="-201.92" type="line"/>
    </contour>
  </outline>
</glyph>
<glyph name="minus" format="1">
  <advance width="1383.91"/>
  <unicode hex="2212"/>
  <outline>
    <contour>
      <point x="186.39" y="371.11" type="line"/>
      <point x="186.39" y="546.06" type="line"/>
      <point x="1197.52" y="546.06" type="line"/>
      <point x="1197.52" y="371.11" type="line"/>
    </contour>
  </outline>
</glyph>
<glyph name="radical" format="1">
  <advance width="1314.0"/>
  <unicode hex="221A"/>
  <outline>
    <contour>
      <point x="577.5" y="-146.97" type="line"/>
      <point x="260.91" y="658.51" type="line"/>
      <point x="258.9" y="657.84"/>
      <point x="95.61" y="629.17"/>
      <point x="95.61" y="629.17" type="curve"/>
      <point x="61.54" y="780.03" type="line"/>
      <point x="399.42" y="835.72" type="line"/>
      <point x="647.56" y="168.3" type="line"/>
      <point x="1024.38" y="1571.88" type="line"/>
      <point x="1210.66" y="1571.88" type="line"/>
      <point x="752.7" y="-146.97" type="line"/>
    </contour>
  </outline>
</glyph>
<glyph name="infinity" format="1">
  <advance width="1734.35"/>
  <unicode hex="221E"/>
  <outline>
    <contour>
      <point x="464.14" y="233.24" type="curve" smooth="yes"/>
      <point x="245.38" y="233.24"/>
      <point x="96.0" y="411.07"/>
      <point x="96.0" y="620.28" type="curve" smooth="yes"/>
      <point x="96.0" y="810.11"/>
      <point x="267.38" y="961.94"/>
      <point x="459.14" y="961.94" type="curve" smooth="yes"/>
      <point x="623.52" y="961.94"/>
      <point x="752.9" y="864.7"/>
      <point x="870.28" y="707.87" type="curve"/>
      <point x="981.97" y="860.7"/>
      <point x="1103.66" y="961.94"/>
      <point x="1273.73" y="961.94" type="curve" smooth="yes"/>
      <point x="1494.8" y="961.94"/>
      <point x="1636.18" y="811.11"/>
      <point x="1636.18" y="601.9" type="curve" smooth="yes"/>
      <point x="1636.18" y="383.38"/>
      <point x="1466.8" y="233.24"/>
      <point x="1271.73" y="233.24" type="curve" smooth="yes"/>
      <point x="1122.35" y="233.24"/>
      <point x="1001.66" y="313.79"/>
      <point x="868.28" y="486.62" type="curve"/>
      <point x="752.9" y="335.48"/>
      <point x="625.52" y="233.24"/>
    </contour>
    <contour>
      <point x="475.42" y="372.94" type="curve" smooth="yes"/>
      <point x="601.66" y="372.94"/>
      <point x="707.28" y="473.8"/>
      <point x="796.52" y="595.9" type="curve"/>
      <point x="707.28" y="724.0"/>
      <point x="601.66" y="823.48"/>
      <point x="465.42" y="823.48" type="curve" smooth="yes"/>
      <point x="325.18" y="823.48"/>
      <point x="249.46" y="720.69"/>
      <point x="249.46" y="598.21" type="curve" smooth="yes"/>
      <point x="249.46" y="484.11"/>
      <point x="335.18" y="372.94"/>
    </contour>
    <contour>
      <point x="1273.35" y="372.94" type="curve" smooth="yes"/>
      <point x="1420.59" y="372.94"/>
      <point x="1480.62" y="483.11"/>
      <point x="1480.62" y="623.52" type="curve" smooth="yes"/>
      <point x="1480.62" y="731.31"/>
      <point x="1397.59" y="823.48"/>
      <point x="1268.35" y="823.48" type="curve" smooth="yes"/>
      <point x="1139.8" y="823.48"/>
      <point x="1027.18" y="714.69"/>
      <point x="945.56" y="598.21" type="curve"/>
      <point x="1062.49" y="451.49"/>
      <point x="1153.11" y="372.94"/>
    </contour>
  </outline>
</glyph>
<glyph name="integral" format="1">
  <advance width="779.6"/>
  <unicode hex="222B"/>
  <outline>
    <contour>
      <point x="182.83" y="-313.07" type="curve" smooth="yes"/>
      <point x="85.1" y="-313.07"/>
      <point x="26.06" y="-288.72"/>
      <point x="26.06" y="-288.72" type="curve"/>
      <point x="26.06" y="-126.22" type="line"/>
      <point x="26.06" y="-126.22"/>
      <point x="97.47" y="-141.89"/>
      <point x="154.83" y="-141.89" type="curve" smooth="yes"/>
      <point x="261.35" y="-141.89"/>
      <point x="280.32" y="-75.94"/>
      <point x="280.32" y="45.63" type="curve" smooth="yes"/>
      <point x="280.32" y="1175.88" type="line" smooth="yes"/>
      <point x="280.32" y="1394.56"/>
      <point x="363.07" y="1556.57"/>
      <point x="591.41" y="1556.57" type="curve" smooth="yes"/>
      <point x="681.43" y="1556.57"/>
      <point x="746.88" y="1532.89"/>
      <point x="746.88" y="1532.89" type="curve"/>
      <point x="746.88" y="1365.7" type="line"/>
      <point x="746.88" y="1365.7"/>
      <point x="682.11" y="1384.72"/>
      <point x="625.44" y="1384.72" type="curve" smooth="yes"/>
      <point x="516.24" y="1384.72"/>
      <point x="493.9" y="1319.44"/>
      <point x="493.9" y="1197.87" type="curve" smooth="yes"/>
      <point x="493.9" y="66.95" type="line" smooth="yes"/>
      <point x="493.9" y="-151.73"/>
      <point x="412.51" y="-313.07"/>
    </contour>
  </outline>
</glyph>
<glyph name="approxequal" format="1">
  <advance width="1351.0"/>
  <unicode hex="2248"/>
  <outline>
    <contour>
      <point x="292.15" y="240.99" type="line"/>
      <point x="318.39" y="343.06"/>
      <point x="366.49" y="407.37"/>
      <point x="444.17" y="407.37" type="curve" smooth="yes"/>
      <point x="486.37" y="407.37"/>
      <point x="545.37" y="379.37"/>
      <point x="603.4" y="347.96" type="curve" smooth="yes"/>
      <point x="707.19" y="286.72"/>
      <point x="791.78" y="250.96"/>
      <point x="873.16" y="250.96" type="curve" smooth="yes"/>
      <point x="1049.27" y="250.96"/>
      <point x="1143.34" y="365.0"/>
      <point x="1184.24" y="533.18" type="curve"/>
      <point x="1024.56" y="574.29" type="line"/>
      <point x="986.94" y="469.98"/>
      <point x="943.84" y="408.98"/>
      <point x="877.78" y="408.98" type="curve" smooth="yes"/>
      <point x="837.34" y="408.98"/>
      <point x="778.93" y="449.67"/>
      <point x="707.69" y="480.7" type="curve" smooth="yes"/>
      <point x="628.31" y="523.01"/>
      <point x="538.48" y="567.39"/>
      <point x="444.41" y="567.39" type="curve" smooth="yes"/>
      <point x="284.51" y="567.39"/>
      <point x="170.92" y="458.35"/>
      <point x="125.71" y="284.86" type="curve"/>
    </contour>
    <contour>
      <point x="293.22" y="601.57" type="line"/>
      <point x="322.91" y="697.43"/>
      <point x="367.25" y="765.19"/>
      <point x="439.79" y="765.19" type="curve" smooth="yes"/>
      <point x="486.82" y="765.19"/>
      <point x="539.99" y="736.88"/>
      <point x="599.4" y="701.33" type="curve" smooth="yes"/>
      <point x="707.02" y="636.64"/>
      <point x="781.64" y="607.78"/>
      <point x="871.85" y="607.78" type="curve" smooth="yes"/>
      <point x="1044.89" y="607.78"/>
      <point x="1143.72" y="718.75"/>
      <point x="1182.93" y="890.0" type="curve"/>
      <point x="1023.25" y="928.35" type="line"/>
      <point x="985.56" y="823.42"/>
      <point x="941.84" y="763.04"/>
      <point x="876.47" y="763.04" type="curve" smooth="yes"/>
      <point x="837.58" y="763.04"/>
      <point x="776.27" y="789.04"/>
      <point x="696.55" y="834.83" type="curve" smooth="yes"/>
      <point x="604.86" y="889.21"/>
      <point x="531.55" y="921.83"/>
      <point x="443.1" y="921.83" type="curve" smooth="yes"/>
      <point x="278.75" y="921.83"/>
      <point x="163.16" y="812.79"/>
      <point x="124.4" y="638.23" type="curve"/>
    </contour>
  </outline>
</glyph>
<glyph name="notequal" format="1">
  <advance width="1372.1"/>
  <unicode hex="2260"/>
  <outline>
    <contour>
      <point x="488.8" y="39.97" type="line"/>
      <point x="325.26" y="65.34" type="line"/>
      <point x="443.21" y="310.93" type="line"/>
      <point x="161.65" y="310.93" type="line"/>
      <point x="161.65" y="469.79" type="line"/>
      <point x="524.31" y="469.79" type="line"/>
      <point x="642.5" y="696.51" type="line"/>
      <point x="161.65" y="696.51" type="line"/>
      <point x="161.65" y="856.37" type="line"/>
      <point x="718.93" y="856.37" type="line"/>
      <point x="849.57" y="1122.33" type="line"/>
      <point x="1018.12" y="1097.63" type="line"/>
      <point x="898.49" y="856.37" type="line"/>
      <point x="1210.45" y="856.37" type="line"/>
      <point x="1210.45" y="696.51" type="line"/>
      <point x="822.4" y="696.51" type="line"/>
      <point x="701.87" y="469.79" type="line"/>
      <point x="1210.45" y="469.79" type="line"/>
      <point x="1210.45" y="310.93" type="line"/>
      <point x="623.44" y="310.93" type="line"/>
    </contour>
  </outline>
</glyph>
<glyph name="lessequal" format="1">
  <advance width="1350.67"/>
  <unicode hex="2264"/>
  <outline>
    <contour>
      <point x="1135.45" y="234.85" type="line"/>
      <point x="152.01" y="704.21" type="line"/>
      <point x="152.01" y="807.95" type="line"/>
      <point x="1139.78" y="1271.8" type="line"/>
      <point x="1139.78" y="1075.59" type="line"/>
      <point x="426.04" y="755.6" type="line"/>
      <point x="1135.45" y="427.72" type="line"/>
    </contour>
    <contour>
      <point x="139.08" y="0.0" type="line"/>
      <point x="139.08" y="158.18" type="line"/>
      <point x="1155.44" y="158.18" type="line"/>
      <point x="1155.44" y="0.0" type="line"/>
    </contour>
  </outline>
</glyph>
<glyph name="greaterequal" format="1">
  <advance width="1350.69"/>
  <unicode hex="2265"/>
  <outline>
    <contour>
      <point x="146.24" y="0.0" type="line"/>
      <point x="146.24" y="159.26" type="line"/>
      <point x="1164.76" y="159.26" type="line"/>
      <point x="1164.76" y="0.0" type="line"/>
    </contour>
    <contour>
      <point x="158.79" y="1273.91" type="line"/>
      <point x="1144.87" y="804.39" type="line"/>
      <point x="1144.87" y="700.21" type="line"/>
      <point x="154.48" y="235.26" type="line"/>
      <point x="154.48" y="432.73" type="line"/>
      <point x="868.66" y="752.66" type="line"/>
      <point x="158.79" y="1079.82" type="line"/>
    </contour>
  </outline>
</glyph>
<glyph name="lozenge" format="1">
  <advance width="1248.0"/>
  <unicode hex="25CA"/>
  <outline>
    <contour>
      <point x="602.27" y="171.7" type="line"/>
      <point x="920.04" y="703.63" type="line"/>
      <point x="610.26" y="1226.85" type="line"/>
      <point x="292.49" y="704.29" type="line"/>
    </contour>
    <contour>
      <point x="532.52" y="-41.65" type="line"/>
      <point x="88.55" y="703.63" type="line"/>
      <point x="539.18" y="1451.24" type="line"/>
      <point x="678.34" y="1451.24" type="line"/>
      <point x="1125.31" y="704.63" type="line"/>
      <point x="670.68" y="-41.65" type="line"/>
    </contour>
  </outline>
</glyph>
<glyph name="fi" format="1">
  <advance width="1256.53"/>
  <unicode hex="FB01"/>
  <outline>
    <contour>
      <point x="255.7" y="0.0" type="line"/>
      <point x="255.7" y="884.83" type="line"/>
      <point x="69.34" y="884.83" type="line"/>
      <point x="69.34" y="1026.0" type="line"/>
      <point x="255.7" y="1026.0" type="line"/>
      <point x="255.7" y="1090.82" type="line" smooth="yes"/>
      <point x="255.7" y="1365.27"/>
      <point x="294.33" y="1486.64"/>
      <point x="666.18" y="1486.64" type="curve" smooth="yes"/>
      <point x="716.2" y="1486.64" type="line"/>
      <point x="710.84" y="1321.79" type="line"/>
      <point x="485.94" y="1321.79"/>
      <point x="467.27" y="1286.21"/>
      <point x="467.27" y="1102.43" type="curve" smooth="yes"/>
      <point x="467.27" y="1026.0" type="line"/>
      <point x="918.7" y="1026.0" type="line"/>
      <point x="918.7" y="884.83" type="line"/>
      <point x="467.27" y="884.83" type="line"/>
      <point x="467.27" y="0.0" type="line"/>
    </contour>
    <component base="i" xOffset="730.83"/>
  </outline>
</glyph>
